<svg width="13" height="14" viewBox="0 0 13 14" fill="none" xmlns="http://www.w3.org/2000/svg">
<path d="M12.7969 6.66942C12.7969 10.2033 9.97768 13.0681 6.5 13.0681C3.02232 13.0681 0.203125 10.2033 0.203125 6.66942C0.203125 3.13553 3.02232 0.270752 6.5 0.270752C9.97768 0.270752 12.7969 3.13553 12.7969 6.66942ZM5.77164 10.0575L10.4435 5.31007C10.6022 5.14886 10.6022 4.88747 10.4435 4.72627L9.86901 4.14246C9.71037 3.98123 9.45313 3.98123 9.29447 4.14246L5.48438 8.01413L3.70553 6.20653C3.54689 6.04532 3.28966 6.04532 3.13099 6.20653L2.55648 6.79033C2.39784 6.95153 2.39784 7.21292 2.55648 7.37413L5.19711 10.0574C5.35577 10.2187 5.61298 10.2187 5.77164 10.0575Z" fill="#348DEE"/>
</svg>
