<svg width="35" height="35" viewBox="0 0 35 35" fill="none" xmlns="http://www.w3.org/2000/svg">
<g clip-path="url(#clip0_111_1059)">
<path d="M11.0286 34.6559C2.15053 25.7778 2.16372 11.3965 11.0286 2.53155C11.4181 2.14203 12.0217 2.07819 12.4822 2.36598L16.913 5.13542C17.1466 5.28143 17.3215 5.50491 17.4071 5.76679C17.4927 6.02867 17.4835 6.31229 17.3812 6.5681L15.1658 12.1066C15.0712 12.3432 14.9022 12.5426 14.6843 12.6748C14.4664 12.807 14.2115 12.8647 13.958 12.8394L10.1428 12.4579C8.7038 16.4406 8.73381 20.83 10.1428 24.7295L13.958 24.348C14.2116 24.3226 14.4665 24.3804 14.6844 24.5125C14.9022 24.6447 15.0712 24.8441 15.1659 25.0807L17.3813 30.6193C17.4836 30.8751 17.4927 31.1587 17.4072 31.4206C17.3216 31.6825 17.1467 31.906 16.9131 32.052L12.4822 34.8214C12.2569 34.9622 11.9905 35.0225 11.7265 34.9925C11.4625 34.9624 11.2165 34.8437 11.0286 34.6559ZM21.2684 6.52647C22.0772 7.89687 22.0772 9.60319 21.2684 10.9736C20.9984 11.4311 20.3723 11.5177 19.9888 11.15L19.5804 10.7586C19.313 10.5024 19.2527 10.1008 19.4258 9.77354C19.5924 9.45809 19.6795 9.10676 19.6795 8.75003C19.6795 8.3933 19.5924 8.04196 19.4258 7.72652C19.2527 7.39921 19.313 6.99767 19.5804 6.74146L19.9888 6.35003C20.3723 5.98239 20.9984 6.06894 21.2684 6.52647ZM27.5429 0.292981C31.654 5.18779 31.6507 12.3162 27.5429 17.207C27.237 17.5712 26.6863 17.5998 26.343 17.2708L25.9467 16.8909C25.635 16.5921 25.6065 16.1028 25.8831 15.7713C29.2797 11.7013 29.2769 5.79536 25.8831 1.72873C25.6065 1.39719 25.6349 0.907873 25.9467 0.609074L26.343 0.229201C26.6863 -0.0998124 27.237 -0.0711698 27.5429 0.292981ZM24.4003 3.36512C26.8646 6.53166 26.8686 10.9632 24.4003 14.1349C24.1002 14.5205 23.5323 14.5622 23.1796 14.224L22.7819 13.8426C22.4812 13.5542 22.4403 13.0842 22.6941 12.7536C24.5081 10.3908 24.5079 7.10903 22.6941 4.74639C22.4403 4.4158 22.4812 3.94583 22.7819 3.65736L23.1796 3.27598C23.5323 2.9378 24.1002 2.9795 24.4003 3.36512Z" fill="white"/>
</g>
<defs>
<clipPath id="clip0_111_1059">
<rect width="35" height="35" fill="white"/>
</clipPath>
</defs>
</svg>
