<svg width="13" height="13" viewBox="0 0 13 13" fill="none" xmlns="http://www.w3.org/2000/svg">
<g clip-path="url(#clip0_130_2)">
<path d="M6.5 6.5C8.29512 6.5 9.75 5.04512 9.75 3.25C9.75 1.45488 8.29512 0 6.5 0C4.70488 0 3.25 1.45488 3.25 3.25C3.25 5.04512 4.70488 6.5 6.5 6.5ZM8.775 7.3125H8.35098C7.7873 7.57148 7.16016 7.71875 6.5 7.71875C5.83984 7.71875 5.21523 7.57148 4.64902 7.3125H4.225C2.34102 7.3125 0.8125 8.84102 0.8125 10.725V11.7812C0.8125 12.4541 1.3584 13 2.03125 13H10.9688C11.6416 13 12.1875 12.4541 12.1875 11.7812V10.725C12.1875 8.84102 10.659 7.3125 8.775 7.3125Z" fill="black"/>
</g>
<defs>
<clipPath id="clip0_130_2">
<rect width="13" height="13" fill="white"/>
</clipPath>
</defs>
</svg>
