<svg version="1.2" xmlns="http://www.w3.org/2000/svg" viewBox="0 0 1000 600" width="1000" height="600">
	<title>VVB toeslag</title>
	<style>
		.s0 { fill: #0664bc } 
		.s1 { fill: #ffffff } 
		.s2 { fill: #f7f8f9;stroke: #bc1010;stroke-miterlimit:100;stroke-width: 4 } 
		.s3 { fill: #bc1010 } 
	</style>
	<rect width="1000" height="600" id="Background" style="fill: #ffffff"/>
	<g id="Folder 1">
		<g id="blue">
			<path id="Layer 1" class="s0" d="m190 194.1h310.7c13.8 0 25 11.2 25 25v50.7c0 13.9-11.2 25-25 25h-310.7c-13.8 0-25-11.1-25-25v-50.7c0-13.8 11.2-25 25-25z"/>
			<path id="Melding (1)" class="s1" aria-label="Melding (1)"  d="m225.7 224.7v29.3h6.9v-18.1h0.2l7 17.9h4.5l7-17.8h0.2v18h6.9v-29.3h-8.7l-7.5 18.1h-0.3l-7.5-18.1zm47.5 29.7c5.8 0 9.6-2.8 10.4-7.1l-6.4-0.2c-0.6 1.5-2 2.3-3.8 2.3-2.7 0-4.4-1.8-4.4-4.5v-0.2h14.7v-1.7c0-7.3-4.5-11.3-10.7-11.3-6.6 0-10.9 4.6-10.9 11.4 0 7 4.2 11.3 11.1 11.3zm-4.2-13.8c0.1-2.2 1.8-3.8 4.1-3.8 2.4 0 4 1.6 4 3.8zm25.3-15.9h-7v29.3h7zm12.5 29.6c3.3 0 5.3-1.8 6.1-3.9h0.3v3.6h6.9v-29.3h-7v11.1h-0.2c-0.8-2-2.7-4.1-6.2-4.1-4.6 0-8.7 3.6-8.7 11.3 0 7.5 3.9 11.3 8.8 11.3zm2.4-5.4c-2.6 0-4-2.3-4-5.9 0-3.5 1.4-5.8 4-5.8 2.6 0 4 2.2 4 5.8 0 3.6-1.5 5.9-4 5.9zm15.3 5.1h7v-22h-7zm3.5-24.5c2 0 3.6-1.5 3.6-3.4 0-1.8-1.6-3.3-3.6-3.3-2 0-3.6 1.5-3.6 3.3 0 1.9 1.6 3.4 3.6 3.4zm15 12c0-2.5 1.4-4 3.6-4 2.3 0 3.6 1.5 3.6 3.9v12.6h7v-14c0-4.9-3-8.2-7.7-8.2-3.2 0-5.7 1.6-6.6 4.3h-0.3v-4.1h-6.6v22h7zm28.8 21.3c6.6 0 11.1-3.1 11.1-8.6v-22.1h-7v3.7h-0.2c-0.8-2-2.7-4-6.2-4-4.6 0-8.7 3.5-8.7 11.2 0 7.5 3.9 10.8 8.7 10.8 3.3 0 5.4-1.5 6.3-3.6h0.2v3.9c0 2.8-1.7 3.8-4.1 3.8-2.2 0-3.5-0.8-3.9-2.2l-6.6 0.4c0.5 3.8 4.1 6.7 10.4 6.7zm0.2-14.1c-2.6 0-4.1-2.1-4.1-5.7 0-3.5 1.5-5.7 4.1-5.7 2.5 0 4 2.2 4 5.7 0 3.6-1.5 5.7-4 5.7zm25.4-6.2c0 7.1 1.9 13 5.9 18.1h6.8c-3.1-3.8-5.4-11.3-5.4-18.1 0-6.7 2.3-14.2 5.4-18h-6.8c-4 5.1-5.9 10.9-5.9 18zm29.3-17.7h-6.6l-7.2 4.4v6.2l6.5-4h0.2v22.7h7.1zm17.8 17.7c0-7-1.9-12.9-5.9-18h-6.8c3.1 3.8 5.4 11.3 5.4 18 0 6.8-2.3 14.3-5.4 18.1h6.8c4-5.1 5.9-11 5.9-18.1z"/>
		</g>
		<g id="red">
			<path id="Shape 1" class="s2" d="m282.7 278.7h438.3c13.8 0 25 11.2 25 25v42.7c0 13.8-11.2 25-25 25h-438.3c-13.8 0-25-11.2-25-25v-42.7c0-13.8 11.2-25 25-25z"/>
			<path id="VVB toeslag ontvangen" class="s3" aria-label="VVB toeslag ontvangen"  d="m302 310.6h-7.2l8.9 26.4h8.5l8.9-26.4h-7.1l-5.9 19.3h-0.2zm27.9 0h-7.1l8.9 26.4h8.5l8.9-26.4h-7.1l-5.9 19.4h-0.3zm22.1 26.3h11.8c5.8 0 9.2-3.1 9.2-7.3 0-3.9-2.8-6.2-6-6.4v-0.2c2.9-0.7 4.9-2.8 4.9-5.8 0-3.9-3-6.6-8.9-6.6h-11zm6.3-5.2v-6.3h4.1c2.4 0 3.9 1.3 3.9 3.3 0 1.9-1.3 3-4 3zm0-10.4v-5.8h3.6c2.1 0 3.5 1.1 3.5 2.9 0 1.8-1.5 2.9-3.6 2.9zm36.7-4.2h-3.6v-4.8h-6.3v4.8h-2.6v4.6h2.6v9.6c0 4 2.6 6.1 7 5.8 1.5 0 2.6-0.3 3.2-0.5l-0.9-4.6c-0.3 0.1-0.9 0.2-1.4 0.2-1 0-1.6-0.4-1.6-1.6v-8.9h3.6zm12.2 20.2c6.3 0 10-4.1 10-10.2 0-6.1-3.7-10.2-10-10.2-6.2 0-10 4.1-10 10.2 0 6.1 3.8 10.2 10 10.2zm0.1-4.8c-2.4 0-3.6-2.2-3.6-5.5 0-3.3 1.2-5.5 3.6-5.5 2.2 0 3.5 2.2 3.5 5.5 0 3.3-1.3 5.5-3.5 5.5zm22.4 4.8c5.2 0 8.6-2.5 9.3-6.4l-5.7-0.2c-0.5 1.3-1.8 2-3.5 2-2.4 0-3.9-1.6-3.9-4v-0.2h13.2v-1.5c0-6.6-4-10.1-9.6-10.1-6 0-9.8 4.1-9.8 10.2 0 6.3 3.8 10.2 10 10.2zm-3.8-12.4c0.1-2 1.7-3.5 3.7-3.5 2.1 0 3.6 1.4 3.6 3.5zm33.7-1.7c-0.3-4-3.5-6.3-8.9-6.3-5.3 0-8.7 2.3-8.7 6.3 0 3 1.9 5 5.9 5.7l3.4 0.6c1.7 0.4 2.4 0.9 2.4 1.8 0 1-1.1 1.6-2.7 1.6-1.8 0-3-0.8-3.3-2.2l-6.2 0.1c0.4 4 3.8 6.5 9.5 6.5 5.2 0 9.1-2.7 9.1-6.7 0-2.9-1.9-4.6-5.8-5.4l-3.9-0.7c-1.6-0.4-2.2-0.9-2.2-1.7 0-1 1.2-1.6 2.7-1.6 1.6 0 2.8 0.9 3 2.1zm9.8-12.6h-6.3v26.4h6.3zm9.6 26.7c2.8 0 4.7-1.1 5.7-3.1h0.2v2.7h5.9v-13.4c0-4.2-3.7-6.6-8.7-6.6-5.3 0-8.4 2.7-8.9 6.3l5.8 0.2c0.3-1.3 1.4-2.1 3-2.1 1.6 0 2.5 0.8 2.5 2.1v0.1c0 1.2-1.3 1.5-4.6 1.8-4.1 0.3-7.4 1.8-7.4 6.1 0 4 2.7 5.9 6.5 5.9zm1.9-4.2c-1.4 0-2.4-0.6-2.4-2 0-1.2 1-2 2.8-2.3 1.1-0.1 2.6-0.4 3.3-0.8v1.9c0 1.9-1.6 3.2-3.7 3.2zm23 11.7c6 0 10-2.8 10-7.8v-19.9h-6.2v3.4h-0.2c-0.8-1.8-2.5-3.6-5.6-3.6-4.2 0-7.9 3.2-7.9 10.1 0 6.7 3.6 9.7 7.9 9.7 2.9 0 4.9-1.4 5.6-3.2h0.2v3.5c0 2.5-1.5 3.4-3.6 3.4-2.1 0-3.3-0.8-3.6-2l-6 0.3c0.5 3.5 3.7 6.1 9.4 6.1zm0.2-12.7c-2.3 0-3.6-1.9-3.6-5.1 0-3.1 1.2-5.2 3.6-5.2 2.3 0 3.6 2 3.6 5.2 0 3.2-1.3 5.1-3.6 5.1zm30.9 5.2c6.2 0 10-4.1 10-10.2 0-6.1-3.8-10.2-10-10.2-6.2 0-10 4.1-10 10.2 0 6.1 3.8 10.2 10 10.2zm0-4.7c-2.3 0-3.6-2.3-3.6-5.5 0-3.3 1.3-5.5 3.6-5.5 2.3 0 3.6 2.2 3.6 5.5 0 3.2-1.3 5.5-3.6 5.5zm19.5-6.9c0-2.3 1.3-3.6 3.3-3.6 2 0 3.2 1.3 3.2 3.5v11.3h6.3v-12.6c0-4.4-2.7-7.4-6.9-7.4-2.9 0-5.1 1.5-6 3.9h-0.2v-3.7h-6v19.8h6.3zm27.9-8.5h-3.6v-4.7h-6.3v4.7h-2.6v4.7h2.6v9.6c0 4 2.6 6 7 5.8 1.5-0.1 2.6-0.4 3.2-0.6l-0.9-4.5c-0.3 0.1-0.9 0.2-1.4 0.2-1 0-1.6-0.4-1.6-1.6v-8.9h3.6zm22.4 0h-6.6l-3.7 13.6h-0.2l-3.7-13.6h-6.6l6.8 19.8h7.2zm7.4 20.1c2.8 0 4.7-1.1 5.8-3.1h0.1v2.7h6v-13.4c0-4.2-3.8-6.6-8.8-6.6-5.3 0-8.3 2.7-8.8 6.3l5.8 0.2c0.3-1.3 1.3-2 3-2 1.5 0 2.5 0.7 2.5 2v0.1c0 1.2-1.3 1.5-4.7 1.8-4 0.3-7.4 1.8-7.4 6.2 0 3.9 2.8 5.8 6.5 5.8zm2-4.1c-1.5 0-2.5-0.7-2.5-2.1 0-1.2 1-2 2.8-2.3 1.2-0.1 2.6-0.4 3.3-0.8v1.9c0 1.9-1.6 3.3-3.6 3.3zm20-7.5c0-2.3 1.3-3.6 3.3-3.6 2 0 3.2 1.3 3.2 3.5v11.3h6.3v-12.6c0-4.4-2.7-7.4-6.9-7.4-2.9 0-5.1 1.5-6 3.9h-0.2v-3.6h-6v19.7h6.3zm25.9 19.2c6 0 10.1-2.8 10.1-7.8v-19.9h-6.3v3.4h-0.2c-0.7-1.8-2.5-3.6-5.6-3.6-4.1 0-7.9 3.2-7.9 10.1 0 6.7 3.6 9.7 7.9 9.7 3 0 4.9-1.4 5.6-3.2h0.3v3.5c0 2.5-1.6 3.4-3.7 3.4-2 0-3.2-0.8-3.6-2l-5.9 0.3c0.4 3.5 3.7 6.1 9.3 6.1zm0.2-12.7c-2.3 0-3.6-1.9-3.6-5.1 0-3.1 1.3-5.2 3.6-5.2 2.3 0 3.7 2 3.7 5.2 0 3.2-1.4 5.1-3.7 5.1zm23.1 5.2c5.2 0 8.6-2.5 9.4-6.4l-5.8-0.2c-0.5 1.3-1.8 2.1-3.5 2.1-2.4 0-3.9-1.7-3.9-4.1v-0.1h13.2v-1.6c0-6.5-3.9-10.1-9.6-10.1-5.9 0-9.8 4.1-9.8 10.2 0 6.3 3.8 10.2 10 10.2zm-3.8-12.4c0.1-2 1.7-3.5 3.8-3.5 2 0 3.5 1.5 3.6 3.5zm22.7 0.7c0-2.2 1.3-3.6 3.3-3.6 2 0 3.2 1.4 3.2 3.6v11.3h6.3v-12.6c0-4.4-2.7-7.4-6.9-7.4-2.9 0-5.1 1.5-6 3.9h-0.2v-3.7h-6v19.8h6.3z"/>
		</g>
	</g>
</svg>