<svg version="1.2" xmlns="http://www.w3.org/2000/svg" viewBox="0 0 375 224" width="375" height="224">
	<title>Icon 4 Max retourtermijn overschreden</title>
	<style>
		.s0 { fill: #0664bc } 
		.s1 { fill: #ffffff } 
		.s2 { fill: #f7f8f9;stroke: #bc1010;stroke-miterlimit:100;stroke-width: 4 } 
		.s3 { fill: #bc1010 } 
	</style>
	<g id="Folder 1">
		<g id="blue">
			<path id="Layer 1" class="s0" d="m27 68h129c13.8 0 25 11.2 25 25 0 13.8-11.2 25-25 25h-129c-13.8 0-25-11.2-25-25 0-13.8 11.2-25 25-25z"/>
			<path id="Melding (1)" class="s1" aria-label="Melding (1)"  d="m32.1 83.5v14.5h3.4v-9h0.1l3.5 8.9h2.2l3.5-8.8h0.1v8.9h3.5v-14.5h-4.4l-3.7 9h-0.2l-3.6-9zm23.5 14.7c2.9 0 4.8-1.4 5.2-3.5l-3.2-0.1c-0.3 0.7-1 1.1-1.9 1.1-1.4 0-2.2-0.9-2.2-2.2v-0.1h7.3v-0.9c0-3.6-2.2-5.6-5.3-5.6-3.3 0-5.4 2.3-5.4 5.7 0 3.5 2.1 5.6 5.5 5.6zm-2.1-6.8c0.1-1.1 0.9-1.9 2.1-1.9 1.1 0 2 0.8 2 1.9zm12.5-7.9h-3.5v14.5h3.5zm6.2 14.7c1.6 0 2.6-0.9 3-1.9h0.2v1.7h3.4v-14.5h-3.5v5.5h-0.1c-0.4-1-1.3-2-3-2-2.3 0-4.4 1.7-4.4 5.6 0 3.7 2 5.6 4.4 5.6zm1.2-2.7c-1.3 0-2-1.1-2-2.9 0-1.8 0.7-2.9 2-2.9 1.3 0 2 1.1 2 2.9 0 1.8-0.7 2.9-2 2.9zm7.6 2.5h3.5v-10.9h-3.5zm1.7-12.1c1 0 1.8-0.8 1.8-1.7 0-0.9-0.8-1.7-1.8-1.7-0.9 0-1.7 0.8-1.7 1.7 0 0.9 0.8 1.7 1.7 1.7zm7.4 5.9c0-1.2 0.8-2 1.9-2 1.1 0 1.7 0.8 1.7 2v6.2h3.5v-6.9c0-2.5-1.5-4.1-3.8-4.1-1.6 0-2.8 0.8-3.3 2.1h-0.1v-2h-3.3v10.9h3.4zm14.3 10.6c3.3 0 5.6-1.5 5.6-4.3v-11h-3.5v1.9h-0.1c-0.4-1-1.4-2-3.1-2-2.3 0-4.3 1.8-4.3 5.6 0 3.7 1.9 5.3 4.3 5.3 1.6 0 2.7-0.7 3.1-1.7h0.1v1.9c0 1.4-0.8 1.9-2 1.9-1.1 0-1.8-0.5-1.9-1.1l-3.3 0.2c0.2 1.9 2 3.3 5.1 3.3zm0.1-7c-1.2 0-2-1.1-2-2.8 0-1.8 0.8-2.9 2-2.9 1.3 0 2.1 1.1 2.1 2.9 0 1.7-0.8 2.8-2.1 2.8zm12.7-3.1c0 3.5 0.9 6.5 2.9 9h3.4c-1.6-1.9-2.7-5.6-2.7-9 0-3.3 1.1-7 2.7-8.9h-3.4c-2 2.5-2.9 5.4-2.9 8.9zm14.5-8.8h-3.3l-3.6 2.2v3.1l3.3-2h0.1v11.3h3.5zm8.8 8.8c0-3.5-0.9-6.4-2.9-9h-3.4c1.6 1.9 2.7 5.6 2.7 9 0 3.3-1.1 7.1-2.7 8.9h3.4c2-2.5 2.9-5.4 2.9-8.9z"/>
		</g>
		<g id="red">
			<path id="Shape 1" class="s2" d="m71 110h279c12.7 0 23 10.3 23 23 0 12.7-10.3 23-23 23h-279c-12.7 0-23-10.3-23-23 0-12.7 10.3-23 23-23z"/>
			<path id="Max retourtermijn overschreden" class="s3" aria-label="Max retourtermijn overschreden"  d="m67 125.9v13.1h3.1v-8.1h0.1l3.1 8h2l3.1-7.9h0.1v8h3.1v-13.1h-3.9l-3.3 8.1h-0.2l-3.3-8.1zm19.4 13.3c1.4 0 2.3-0.6 2.8-1.6h0.1v1.4h3v-6.7c0-2.1-1.9-3.2-4.4-3.2-2.6 0-4.1 1.3-4.4 3.1l2.9 0.1c0.1-0.7 0.7-1 1.5-1 0.8 0 1.2 0.3 1.2 1 0 0.6-0.6 0.8-2.3 0.9-2 0.2-3.6 0.9-3.6 3.1 0 1.9 1.3 2.9 3.2 2.9zm1-2.1c-0.8 0-1.3-0.3-1.3-1 0-0.6 0.5-1 1.4-1.1 0.6-0.1 1.3-0.2 1.7-0.4v0.9c0 1-0.8 1.6-1.8 1.6zm9.4-7.9h-3.1l2.7 4.9-2.9 4.9h3.2l1.7-3.3 1.8 3.3h3.2l-2.9-4.9 2.8-4.9h-3.2l-1.7 3.2zm11.8 9.8h3.1v-5.3c0-1.2 0.9-2 2-2 0.3 0 0.9 0.1 1.2 0.2v-2.7c-0.3-0.1-0.6-0.1-0.9-0.1-1.1 0-1.9 0.6-2.3 1.9h-0.1v-1.8h-3zm11.7 0.2c2.5 0 4.2-1.2 4.6-3.2l-2.9-0.1c-0.2 0.7-0.9 1-1.7 1-1.2 0-1.9-0.8-1.9-2h6.5v-0.8c0-3.3-2-5-4.7-5-3 0-4.9 2-4.9 5 0 3.2 1.9 5.1 5 5.1zm-1.9-6.2c0-0.9 0.8-1.7 1.8-1.7 1.1 0 1.8 0.7 1.8 1.7zm13.7-3.8h-1.8v-2.4h-3.1v2.4h-1.3v2.3h1.3v4.8c0 2 1.3 3 3.5 2.9 0.7-0.1 1.3-0.2 1.6-0.3l-0.5-2.3c-0.1 0.1-0.4 0.1-0.7 0.1-0.5 0-0.8-0.2-0.8-0.8v-4.4h1.8zm6.1 10c3.1 0 4.9-2 4.9-5.1 0-3-1.8-5-4.9-5-3.1 0-5 2-5 5 0 3.1 1.9 5.1 5 5.1zm0-2.4c-1.2 0-1.8-1.1-1.8-2.7 0-1.6 0.6-2.7 1.8-2.7 1.1 0 1.8 1.1 1.8 2.7 0 1.6-0.7 2.7-1.8 2.7zm12.9-2c0 1.1-0.8 1.8-1.7 1.8-0.9 0-1.5-0.7-1.5-1.8v-5.6h-3.2v6.3c0 2.2 1.4 3.6 3.4 3.6 1.5 0 2.6-0.7 3-1.9h0.1v1.8h3v-9.8h-3.1zm5.1 4.2h3.1v-5.3c0-1.2 0.8-1.9 2-1.9 0.3 0 0.9 0 1.2 0.1v-2.7c-0.3-0.1-0.6-0.1-0.9-0.1-1.1 0-1.9 0.6-2.3 1.9h-0.1v-1.8h-3zm13.6-9.8h-1.8v-2.4h-3.1v2.4h-1.3v2.3h1.3v4.8c-0.1 2 1.2 3 3.4 2.9 0.8-0.1 1.3-0.2 1.6-0.3l-0.4-2.3c-0.2 0.1-0.5 0.1-0.7 0.1-0.5 0-0.8-0.2-0.8-0.8v-4.4h1.8zm6 10c2.6 0 4.3-1.2 4.7-3.2l-2.9-0.1c-0.2 0.7-0.9 1-1.7 1-1.2 0-1.9-0.8-1.9-2h6.5v-0.8c0-3.2-2-5-4.8-5-2.9 0-4.8 2-4.8 5 0 3.2 1.8 5.1 4.9 5.1zm-1.8-6.2c0-0.9 0.8-1.7 1.8-1.7 1 0 1.8 0.7 1.8 1.7zm8.1 6h3.2v-5.3c0-1.2 0.8-2 1.9-2 0.4 0 0.9 0.1 1.2 0.2v-2.7c-0.2-0.1-0.5-0.1-0.8-0.1-1.1 0-2 0.6-2.3 1.9h-0.1v-1.8h-3.1zm7.6 0h3.1v-5.8c0-1 0.6-1.6 1.4-1.6 0.8 0 1.4 0.6 1.4 1.5v5.9h3v-5.9c0-0.9 0.5-1.5 1.4-1.5 0.8 0 1.3 0.5 1.3 1.5v5.9h3.1v-6.6c0-2.1-1.2-3.3-3.1-3.3-1.4 0-2.6 0.7-2.9 1.9h-0.1c-0.3-1.2-1.4-1.9-2.7-1.9-1.4 0-2.4 0.7-2.8 1.9h-0.1v-1.8h-3zm16.7 0h3.1v-9.8h-3.1zm1.6-11c0.8 0 1.6-0.7 1.6-1.5 0-0.8-0.8-1.5-1.6-1.5-0.9 0-1.6 0.7-1.6 1.5 0 0.8 0.7 1.5 1.6 1.5zm3.5 1.1v10.2c0 0.7-0.3 1-1.1 1-0.2 0-0.3 0-0.4 0v2.3c0.2 0 0.4 0 0.6 0 2.5 0 4-0.8 4-3.2v-10.3zm1.6-1.1c0.9 0 1.6-0.7 1.6-1.5 0-0.8-0.7-1.5-1.6-1.5-0.9 0-1.6 0.7-1.6 1.5 0 0.8 0.7 1.5 1.6 1.5zm6.7 5.4c0-1.2 0.6-1.8 1.6-1.8 1 0 1.6 0.6 1.6 1.7v5.7h3.1v-6.3c0-2.2-1.3-3.7-3.4-3.7-1.5 0-2.6 0.8-3 1.9h-0.1v-1.8h-3v9.9h3.2zm16.7 5.8c3.1 0 5-2.1 5-5.1 0-3-1.9-5.1-5-5.1-3.1 0-5 2.1-5 5.1 0 3 1.9 5.1 5 5.1zm0-2.4c-1.1 0-1.8-1.1-1.8-2.7 0-1.7 0.7-2.8 1.8-2.8 1.1 0 1.8 1.1 1.8 2.8 0 1.6-0.7 2.7-1.8 2.7zm15.8-7.7h-3.3l-1.8 6.8h-0.1l-1.8-6.8h-3.3l3.3 9.9h3.6zm5.5 10c2.5 0 4.2-1.3 4.6-3.2l-2.9-0.1c-0.2 0.7-0.9 1-1.7 1-1.2 0-1.9-0.8-1.9-2v-0.1h6.5v-0.8c0-3.2-1.9-5-4.7-5-3 0-4.9 2.1-4.9 5.1 0 3.2 1.9 5.1 5 5.1zm-1.9-6.2c0-1 0.8-1.7 1.8-1.7 1.1 0 1.8 0.7 1.8 1.7zm8.2 6h3.1v-5.3c0-1.2 0.8-2 1.9-2 0.4 0 1 0.1 1.3 0.2v-2.8c-0.3 0-0.6-0.1-0.9-0.1-1.1 0-1.9 0.7-2.3 2h-0.1v-1.8h-3zm16.1-6.9c-0.1-1.9-1.7-3.1-4.4-3.1-2.7 0-4.3 1.2-4.3 3.1 0 1.6 0.9 2.5 2.9 2.9l1.7 0.3c0.8 0.2 1.2 0.4 1.2 0.9 0 0.5-0.6 0.8-1.4 0.8-0.9 0-1.5-0.4-1.6-1.1l-3.1 0.1c0.2 1.9 1.9 3.2 4.7 3.2 2.6 0 4.6-1.4 4.6-3.4 0-1.4-1-2.3-2.9-2.6l-1.9-0.4c-0.9-0.2-1.1-0.5-1.1-0.8 0-0.5 0.5-0.8 1.3-0.8 0.8 0 1.4 0.4 1.5 1zm6.3 7c2.8 0 4.5-1.6 4.6-4h-3c-0.1 1-0.7 1.6-1.5 1.6-1.1 0-1.9-0.9-1.9-2.7 0-1.7 0.8-2.6 1.9-2.6 0.8 0 1.4 0.6 1.5 1.6h3c-0.1-2.4-1.9-4-4.6-4-3.1 0-4.9 2.1-4.9 5.1 0 3 1.8 5 4.9 5zm9.3-5.8c0-1.1 0.7-1.7 1.7-1.7 1 0 1.5 0.6 1.5 1.7v5.6h3.2v-6.2c0-2.2-1.4-3.7-3.4-3.7-1.5 0-2.6 0.7-3 1.9h-0.1v-5h-3v13h3.1zm8.3 5.6h3.1v-5.3c0-1.2 0.9-1.9 2-1.9 0.4 0 0.9 0 1.2 0.1v-2.7c-0.2-0.1-0.6-0.1-0.9-0.1-1 0-1.9 0.6-2.3 1.9h-0.1v-1.8h-3zm11.7 0.2c2.5 0 4.2-1.2 4.6-3.2l-2.9-0.1c-0.2 0.7-0.9 1.1-1.7 1.1-1.2 0-1.9-0.8-1.9-2v-0.1h6.5v-0.8c0-3.2-1.9-5-4.7-5-3 0-4.9 2-4.9 5.1 0 3.1 1.9 5 5 5zm-1.9-6.1c0-1 0.8-1.8 1.8-1.8 1.1 0 1.8 0.7 1.8 1.8zm11.8 6.1c1.4 0 2.3-0.9 2.7-1.8h0.1v1.6h3.1v-13.1h-3.1v5h-0.1c-0.4-0.9-1.2-1.8-2.8-1.8-2 0-3.9 1.6-3.9 5 0 3.4 1.8 5.1 4 5.1zm1-2.5c-1.1 0-1.8-1-1.8-2.6 0-1.6 0.7-2.6 1.8-2.6 1.2 0 1.9 1 1.9 2.6 0 1.6-0.7 2.6-1.9 2.6zm11.5 2.5c2.6 0 4.2-1.2 4.6-3.2l-2.9-0.1c-0.2 0.7-0.8 1.1-1.7 1.1-1.2 0-1.9-0.8-1.9-2v-0.1h6.5v-0.8c0-3.2-1.9-5-4.7-5-3 0-4.9 2-4.9 5.1 0 3.1 1.9 5 5 5zm-1.9-6.1c0-1 0.8-1.8 1.8-1.8 1.1 0 1.8 0.7 1.8 1.8zm11.3 0.3c0-1.1 0.7-1.8 1.7-1.8 0.9 0 1.5 0.7 1.5 1.8v5.6h3.2v-6.2c0-2.2-1.4-3.7-3.5-3.7-1.4 0-2.5 0.7-2.9 1.9h-0.1v-1.8h-3v9.8h3.1z"/>
		</g>
	</g>
</svg>