<svg version="1.2" xmlns="http://www.w3.org/2000/svg" viewBox="0 0 350 209" width="350" height="209">
	<title>RET opslaan icon 6</title>
	<style>
		.s0 { fill: #0664bc } 
		.s1 { fill: #ffffff } 
		.s2 { fill: none;stroke: #0664bc;stroke-miterlimit:100;stroke-width: 1.5 } 
		.s3 { fill: #666666 } 
		.s4 { fill: #ffc90d } 
		.s5 { fill: #e5e5e5 } 
		.s6 { fill: none;stroke: #000000;stroke-miterlimit:100;stroke-dasharray: 4,2 } 
	</style>
	<rect width="350" height="209" id="Background" style="fill: #ffffff"/>
	<g id="Ret opslaan">
		<path id="Shape 6" class="s0" d="m220.8 103.4h94.2c11 0 20 9 20 20v3.9c0 11-9 20-20 20h-94.2c-11.1 0-20-9-20-20v-3.9c0-11 8.9-20 20-20z"/>
		<path id="Retouropmerking 	opslaan" class="s1" aria-label="Retouropmerking
	opslaan"  d="m211.5 122.9h2.1l-0.1-3.9 1.5-0.1 1.9 3.9h2.3l-2.1-4.3c1-0.5 1.6-1.7 1.6-3.2 0-2.2-1.3-3.6-3.5-3.6l-3.8 0.1zm1.9-5.9v-3.3h1.4c1.2-0.1 1.7 0.5 1.7 1.6 0.1 1.1-0.5 1.7-1.7 1.7zm10 5.8c1.8 0 3-1 3.2-2.6l-1.8-0.1c-0.2 0.6-0.8 1-1.4 1-1 0-1.7-0.7-1.7-2l4.9-0.1v-0.6c0-2.9-1.5-4.2-3.4-4.2-2.2 0.1-3.5 1.8-3.5 4.4 0 2.6 1.4 4.3 3.7 4.2zm-1.7-5.1c0-1 0.6-1.7 1.5-1.8 0.9 0 1.5 0.7 1.5 1.7zm10.1-3.5h-1.4v-2l-2 0.1v2h-1l0.1 1.7h1v4.3c0 1.7 1 2.5 2.5 2.4 0.5-0.1 0.9-0.2 1.1-0.3l-0.4-1.7c-0.1 0-0.3 0.1-0.5 0.1-0.4 0-0.7-0.2-0.7-0.8v-4l1.3-0.1zm4.7 8.5c2.2-0.1 3.5-1.8 3.5-4.4 0-2.6-1.4-4.3-3.6-4.3-2.2 0.1-3.6 1.8-3.6 4.4 0.1 2.6 1.5 4.3 3.7 4.3zm0-1.8c-1.1 0-1.6-1.1-1.6-2.5 0-1.5 0.5-2.6 1.5-2.6 1 0 1.5 1.1 1.6 2.5 0 1.5-0.5 2.5-1.5 2.6zm9.5-2.1c0 1.1-0.7 1.7-1.4 1.7-0.7 0-1.2-0.6-1.3-1.6v-4.9l-2 0.1v5.3c0.1 1.9 1.1 3.1 2.5 3.1 1.1-0.1 1.9-0.7 2.2-1.7h0.1v1.5h2l-0.2-8.4-2 0.1zm3.7 3.5l2-0.1-0.1-4.7c0-1 0.7-1.8 1.6-1.8 0.2 0 0.6 0.1 0.8 0.1v-2c-0.2-0.1-0.4-0.1-0.7-0.1-0.8 0-1.4 0.6-1.7 1.6l-0.1-1.4h-1.9zm8.4 0c2.2 0 3.5-1.8 3.5-4.4-0.1-2.5-1.5-4.3-3.7-4.2-2.2 0-3.5 1.8-3.5 4.4 0.1 2.5 1.5 4.3 3.7 4.2zm0-1.8c-1.1 0-1.6-1-1.6-2.5 0-1.4 0.5-2.5 1.5-2.5 1-0.1 1.5 1 1.5 2.5 0.1 1.4-0.4 2.5-1.4 2.5zm4.9 4.7l2-0.1v-4.4c0.3 0.7 0.9 1.4 2.1 1.4 1.7 0 2.9-1.6 2.9-4.3-0.1-2.9-1.4-4.3-3-4.3-1.2 0-1.8 0.9-2.1 1.6h-0.1v-1.4h-2zm1.9-7.3c0-1.5 0.5-2.5 1.5-2.5 1 0 1.5 1 1.6 2.4 0 1.5-0.5 2.5-1.5 2.5-1 0-1.6-0.9-1.6-2.4zm6.5 4h2v-5c0-1 0.5-1.6 1.1-1.6 0.7 0 1.1 0.5 1.2 1.3v5.2h2l-0.1-5.1c0-0.9 0.4-1.5 1.2-1.5 0.6 0 1.1 0.5 1.1 1.4l0.1 5.2 2-0.1-0.1-5.6c0-1.8-1-2.8-2.3-2.8-1.1 0-1.9 0.7-2.2 1.6h-0.1c-0.2-0.9-1-1.5-2-1.5-0.9 0-1.7 0.6-2 1.6h-0.1v-1.5l-1.9 0.1zm15.5-0.2c1.8 0 3-1 3.2-2.6l-1.8-0.1c-0.2 0.7-0.7 1-1.4 1-1 0-1.7-0.7-1.7-2l5-0.1-0.1-0.6c0-2.8-1.5-4.2-3.4-4.2-2.2 0.1-3.5 1.8-3.5 4.4 0 2.7 1.4 4.3 3.7 4.2zm-1.7-5.1c0-1 0.6-1.7 1.5-1.8 0.9 0 1.5 0.7 1.5 1.7zm6.4 4.9h2l-0.1-4.7c0-1.1 0.7-1.8 1.5-1.8 0.3 0 0.7 0 0.9 0.1v-2c-0.2-0.1-0.5-0.1-0.7-0.1-0.8 0-1.4 0.6-1.7 1.6h-0.1v-1.5l-1.9 0.1zm5.4-0.1l2-0.1v-2.6l0.5-0.7 2.1 3.3 2.3-0.1-2.9-4.6 2.7-3.7h-2.4l-2.2 3.3h-0.2v-6h-2.1zm7.8-0.1h2l-0.1-8.4-2 0.1zm0.9-9.5c0.6 0 1-0.5 1-1.2 0-0.6-0.5-1.1-1.1-1.1-0.6 0-1.1 0.5-1.1 1.2 0.1 0.6 0.6 1.1 1.2 1.1zm4.6 4.5c0-1.1 0.6-1.7 1.4-1.7 0.8 0 1.3 0.6 1.3 1.6l0.1 4.9h2l-0.1-5.4c0-1.9-1-3.1-2.5-3-1.1 0-1.9 0.6-2.2 1.6h-0.1v-1.5h-1.9l0.1 8.4 2-0.1zm9.7 8c2.1 0 3.5-1.2 3.5-3.3l-0.1-8.4h-2v1.4h-0.1c-0.3-0.7-0.9-1.5-2.1-1.5-1.6 0.1-2.9 1.5-2.9 4.4 0.1 2.7 1.4 4 3 4 1.2 0 1.8-0.7 2.1-1.4h0.1v1.5c0 1.2-0.6 1.6-1.5 1.6-0.9 0-1.3-0.4-1.5-0.9l-1.9 0.3c0.3 1.3 1.4 2.3 3.4 2.3zm0-5.2c-1 0-1.6-0.8-1.6-2.3 0-1.4 0.5-2.4 1.5-2.4 1 0 1.5 0.9 1.5 2.4 0.1 1.4-0.5 2.3-1.4 2.3zm-72.9 21.8c2.2 0 3.5-1.8 3.5-4.4 0-2.5-1.4-4.2-3.6-4.2-2.2 0-3.6 1.8-3.6 4.4 0.1 2.5 1.5 4.3 3.7 4.2zm0-1.8c-1 0-1.6-1-1.6-2.5 0-1.4 0.5-2.5 1.5-2.5 1-0.1 1.5 1 1.6 2.5 0 1.4-0.5 2.5-1.5 2.5zm4.9 4.7l2-0.1v-4.4c0.3 0.7 1 1.4 2.1 1.4 1.7 0 3-1.5 2.9-4.3 0-2.9-1.4-4.3-3-4.3-1.2 0-1.8 0.9-2 1.6h-0.1l-0.1-1.4h-1.9zm1.8-7.3c0-1.5 0.5-2.5 1.5-2.5 1 0 1.6 1 1.6 2.4 0 1.5-0.5 2.5-1.5 2.5-1 0-1.6-0.9-1.6-2.4zm12.5-2.1c-0.2-1.5-1.3-2.4-3.1-2.4-1.9 0-3.1 1.1-3.1 2.7 0 1.2 0.7 2 2.2 2.3l1.2 0.3c0.7 0.1 1 0.4 1 0.8 0 0.5-0.5 0.8-1.2 0.9-0.7 0-1.2-0.4-1.3-1l-2 0.1c0.2 1.6 1.4 2.6 3.3 2.5 1.9 0 3.2-1.1 3.2-2.8 0-1.2-0.7-1.9-2.1-2.2l-1.3-0.3c-0.7-0.1-1-0.4-1-0.8 0-0.5 0.5-0.8 1.1-0.9 0.7 0 1.2 0.5 1.3 1zm3.3-5.2h-2l0.2 11.1h2zm3.9 11.2c1 0 1.7-0.6 2.1-1.3v1.1h1.9v-5.6c-0.1-2-1.5-2.8-3.2-2.8-1.7 0-2.8 1-3.1 2.5l1.9 0.2c0.1-0.6 0.5-1 1.3-1 0.6 0 1 0.4 1 1v0.1c0.1 0.5-0.4 0.6-1.7 0.8-1.4 0.1-2.7 0.7-2.7 2.6 0 1.6 1.1 2.4 2.5 2.4zm0.5-1.6c-0.6 0-1.1-0.3-1.1-0.9 0-0.7 0.5-1 1.2-1.1 0.4-0.1 1.1-0.3 1.4-0.4v0.8c0 0.9-0.6 1.6-1.5 1.6zm7.2 1.5c1.1-0.1 1.7-0.6 2.1-1.4l0.1 1.2 1.9-0.1-0.1-5.6c0-2-1.5-2.8-3.1-2.8-1.8 0.1-2.9 1-3.2 2.6l1.9 0.1c0.1-0.5 0.6-1 1.3-1 0.7 0 1.1 0.4 1.1 1.1 0 0.6-0.5 0.6-1.8 0.8-1.4 0.2-2.7 0.8-2.7 2.6 0.1 1.7 1.1 2.5 2.5 2.5zm0.5-1.6c-0.6 0-1-0.4-1-1 0-0.6 0.4-1 1.1-1.1 0.5-0.1 1.2-0.2 1.4-0.4v0.9c0 0.9-0.6 1.5-1.5 1.6zm7.1-3.6c0-1 0.5-1.7 1.3-1.7 0.9 0 1.4 0.6 1.4 1.6v4.9h2v-5.3c-0.1-2-1.1-3.2-2.6-3.1-1.1 0-1.8 0.6-2.1 1.6h-0.1l-0.1-1.5-1.9 0.1 0.1 8.3h2.1z"/>
	</g>
	<g id="Arrow">
		<path id="Shape 5" class="s2" d="m101.4 103.3c-5.7 16.1 7.2 66.4 34.2 80.8 29 15.5 74.6-12.1 80.4-27.8"/>
		<path id="Arrowhead" class="s0" d="m216.8 156.3l-3-3 9.2-4.4-2.5 11.1-3-3.1-2.4 3.2-0.7-0.7z"/>
		<path id="cover" class="s1" d="m95 93h11c2.8 0 5 2.2 5 5v31c0 2.8-2.2 5-5 5h-11c-2.8 0-5-2.2-5-5v-31c0-2.8 2.2-5 5-5z"/>
	</g>
	<g id="Kleuren ">
		<g id="Email">
			<path id="Email" class="s3" d="m9 3h42.7c2.7 0 5 2.2 5 5v14c0 2.8-2.3 5-5 5h-42.7c-2.8 0-5-2.2-5-5v-14c0-2.8 2.2-5 5-5z"/>
			<path id="Email " class="s1" aria-label="Email
"  d="m10.1 19.9h7.1v-1.6h-5.1v-3h4.7v-1.7h-4.7v-2.9h5.1v-1.7h-7.1zm9 0h1.9v-5c0-1 0.7-1.7 1.5-1.7 0.9 0 1.4 0.6 1.4 1.4v5.3h1.9v-5.1c0-0.9 0.5-1.6 1.5-1.6 0.8 0 1.4 0.5 1.4 1.5v5.2h1.9v-5.5c0-1.8-1-2.8-2.5-2.8-1.2 0-2.1 0.6-2.5 1.5h-0.1c-0.3-0.9-1.1-1.5-2.2-1.5-1.1 0-1.9 0.6-2.3 1.5h-0.1v-1.4h-1.8zm15.8 0.2c1.3 0 2.1-0.6 2.4-1.3h0.1v1.1h1.8v-5.5c0-2.1-1.7-2.8-3.3-2.8-1.7 0-3 0.8-3.4 2.3l1.8 0.2c0.1-0.5 0.7-1 1.6-1 0.9 0 1.4 0.5 1.4 1.3 0 0.6-0.6 0.6-2 0.7-1.6 0.2-3.1 0.7-3.1 2.5 0 1.6 1.2 2.5 2.7 2.5zm0.5-1.4c-0.8 0-1.4-0.4-1.4-1.1 0-0.7 0.7-1.1 1.6-1.2 0.5-0.1 1.5-0.2 1.7-0.4v1c0 0.9-0.7 1.7-1.9 1.7zm5.8 1.2h1.9v-8.2h-1.9zm1-9.3c0.6 0 1.1-0.5 1.1-1.1 0-0.5-0.5-1-1.1-1-0.7 0-1.2 0.5-1.2 1 0 0.6 0.5 1.1 1.2 1.1zm4.8-1.6h-1.9v10.9h1.9z"/>
		</g>
		<path id="Geel up" class="s4" d="m9 38h77.8c2.8 0 5 2.2 5 5v17c0 2.8-2.2 5-5 5h-77.8c-2.8 0-5-2.2-5-5v-17c0-2.8 2.2-5 5-5z"/>
		<g id="Line 3">
			<path id="Geel up copy" class="s4" d="m142.7 67h11.4c2.8 0 5 2.2 5 5v17c0 2.8-2.2 5-5 5h-11.4c-2.8 0-5-2.2-5-5v-17c0-2.8 2.2-5 5-5z"/>
			<path id="Gray" class="s5" d="m8 68h45.6c2.8 0 5 2.2 5 5v17c0 2.8-2.2 5-5 5h-45.6c-2.8 0-5-2.2-5-5v-17c0-2.8 2.2-5 5-5z"/>
			<path id="Gray copy" class="s5" d="m67.5 68h61.3c2.7 0 5 2.2 5 5v17c0 2.8-2.3 5-5 5h-61.3c-2.7 0-5-2.2-5-5v-17c0-2.8 2.3-5 5-5z"/>
		</g>
		<g id="Line 4">
			<path id="Geel up copy 2" class="s4" d="m9 97h71c2.7 0 5 2.2 5 5v17c0 2.8-2.3 5-5 5h-71c-2.8 0-5-2.2-5-5v-17c0-2.8 2.2-5 5-5z"/>
			<path id="Gray copy 2" class="s5" d="m93.9 97h65.1c2.8 0 5 2.2 5 5v17c0 2.8-2.2 5-5 5h-65.1c-2.8 0-5-2.2-5-5v-17c0-2.8 2.2-5 5-5z"/>
		</g>
		<g id="Lijn 5">
			<path id="Gray copy 3" class="s5" d="m8 126h16.3c2.8 0 5 2.2 5 5v17c0 2.8-2.2 5-5 5h-16.3c-2.8 0-5-2.2-5-5v-17c0-2.8 2.2-5 5-5z"/>
			<path id="Gray copy 4" class="s5" d="m37.3 126h32.9c2.8 0 5 2.2 5 5v17c0 2.8-2.2 5-5 5h-32.9c-2.8 0-5-2.2-5-5v-17c0-2.8 2.2-5 5-5z"/>
		</g>
		<path id="Geel up copy 4" class="s4" d="m9 155h53.4c2.8 0 5 2.2 5 5v17c0 2.8-2.2 5-5 5h-53.4c-2.8 0-5-2.2-5-5v-17c0-2.8 2.2-5 5-5z"/>
		<path id="Shape 7" class="s6" d="m90 94h73c2.8 0 5 2.2 5 5v23c0 2.8-2.2 5-5 5h-73c-2.8 0-5-2.2-5-5v-23c0-2.8 2.2-5 5-5z"/>
	</g>
</svg>