<svg version="1.2" xmlns="http://www.w3.org/2000/svg" viewBox="0 0 500 299" width="500" height="299">
	<title>Order image 12 Pre_label</title>
	<defs>
		<filter x="-50%" y="-50%" width="200%" height="200%" id="f1" ><feDropShadow dx="0" dy="0" stdDeviation="7.083333333333334" flood-color="#000000" flood-opacity=".4"/></filter>
	</defs>
	<style>
		.s0 { filter: url(#f1);fill: #f0f0f0;stroke: #000000;stroke-linejoin: round } 
		.s1 { fill: #000000 } 
		.s2 { fill: #ffffff;stroke: #000000;stroke-linejoin: round } 
		.s3 { display: none;fill: #000000 } 
	</style>
	<rect width="500" height="299" id="Background" style="display: none;fill: #ffffff"/>
	<g id="prepost label">
		<path id="Layer 1" class="s0" d="m48 14h409c16.6 0 30 13.4 30 30v216c0 16.6-13.4 30-30 30h-409c-16.6 0-30-13.4-30-30v-216c0-16.6 13.4-30 30-30z"/>
		<g id="Zegel rechts">
			<path id="16-09-2024" class="s1" aria-label="16-09-2024"  d="m405.1 116.7h-0.7l-1.8 1.2v0.7l1.7-1.2h0.1v6.6h0.7zm4.5 7.4c1.3 0 2.3-1.1 2.3-2.4 0-1.4-1.1-2.4-2.3-2.4-0.7 0-1.4 0.4-1.8 1.1 0-2.1 0.7-3.2 1.9-3.2 0.8 0 1.3 0.6 1.4 1.3h0.7c-0.2-1.1-1-1.9-2.1-1.9-1.7 0-2.5 1.7-2.5 4 0 2.6 1.1 3.5 2.4 3.5zm0-0.6c-0.9 0-1.6-0.8-1.7-1.8-0.1-0.9 0.7-1.8 1.7-1.8 0.9 0 1.6 0.8 1.6 1.8 0 1-0.7 1.8-1.6 1.8zm6.7-2.9h-3v0.6h3zm3.9 3.5c1.5 0 2.4-1.4 2.4-3.8 0-2.3-0.9-3.7-2.4-3.7-1.6 0-2.5 1.4-2.5 3.7 0 2.4 0.9 3.8 2.5 3.8zm0-0.6c-1.2 0-1.8-1.2-1.8-3.2 0-2 0.6-3.1 1.8-3.1 1.1 0 1.7 1.1 1.7 3.1 0 2-0.6 3.2-1.7 3.2zm6-6.9c-1.4 0-2.3 1.1-2.3 2.4 0 1.3 1 2.3 2.2 2.3 0.8 0 1.5-0.4 1.9-1 0 2-0.7 3.2-1.9 3.2-0.8 0-1.3-0.6-1.4-1.4h-0.7c0.1 1.2 0.9 2 2.1 2 1.7 0 2.5-1.7 2.5-4.1 0-2.5-1.2-3.4-2.4-3.4zm0 0.6c0.9 0 1.6 0.7 1.7 1.7 0 1-0.7 1.8-1.7 1.8-0.9 0-1.6-0.7-1.6-1.7 0-1 0.7-1.8 1.6-1.8zm6.9 3.4h-3v0.5h3zm1.2 3.5h4.5v-0.6h-3.6v-0.1l1.8-2c1.3-1.3 1.6-1.9 1.6-2.7 0-1.1-0.9-2-2.1-2-1.2 0-2.1 0.9-2.1 2.1h0.6c0-0.9 0.6-1.5 1.5-1.5 0.8 0 1.5 0.5 1.5 1.4 0 0.7-0.4 1.2-1.3 2.2l-2.4 2.7zm8.4 0.1c1.5 0 2.4-1.4 2.4-3.8 0-2.3-0.9-3.7-2.4-3.7-1.5 0-2.4 1.4-2.4 3.7 0 2.4 0.9 3.8 2.4 3.8zm0-0.6c-1.1 0-1.8-1.2-1.8-3.2 0-1.9 0.7-3.1 1.8-3.1 1.1 0 1.8 1.2 1.8 3.1 0 2-0.7 3.2-1.8 3.2zm3.9 0.5h4.5v-0.6h-3.6v-0.1l1.8-2c1.2-1.3 1.6-1.9 1.6-2.7 0-1.1-0.9-2-2.1-2-1.3 0-2.2 0.9-2.2 2.1h0.7c0-0.9 0.5-1.5 1.4-1.5 0.9 0 1.5 0.5 1.5 1.4 0 0.7-0.3 1.2-1.3 2.2l-2.3 2.7zm5.7-1.6h3.4v1.6h0.7v-1.6h0.9v-0.6h-0.9v-5.1h-0.8l-3.3 5.2zm3.4-0.6h-2.6v-0.1l2.6-4.1z"/>
			<path id="Nederland" class="s1" aria-label="Nederland"  d="m408.7 24.7h-1.7v4.2h-0.1l-2.8-4.2h-1.5v7.3h1.7v-4.2h0.1l2.8 4.2h1.5zm3.7 7.4c1.4 0 2.4-0.7 2.6-1.8h-1.6c-0.2 0.3-0.5 0.5-1 0.5-0.6 0-1.1-0.4-1.1-1.1h3.7v-0.5c0-1.8-1.1-2.8-2.7-2.8-1.6 0-2.7 1.2-2.7 2.9 0 1.7 1.1 2.8 2.8 2.8zm-1.1-3.4c0.1-0.6 0.5-1 1.1-1 0.5 0 1 0.4 1 1zm6.5 3.4c0.8 0 1.3-0.5 1.5-1h0.1v0.9h1.7v-7.3h-1.7v2.8h-0.1c-0.2-0.5-0.7-1.1-1.5-1.1-1.2 0-2.2 0.9-2.2 2.8 0 1.9 1 2.9 2.2 2.9zm0.6-1.4c-0.7 0-1-0.6-1-1.5 0-0.8 0.3-1.4 1-1.4 0.6 0 1 0.6 1 1.4 0 0.9-0.4 1.5-1 1.5zm6.3 1.4c1.5 0 2.4-0.7 2.6-1.8h-1.6c-0.1 0.3-0.5 0.5-0.9 0.5-0.7 0-1.1-0.4-1.1-1.1h3.6v-0.5c0-1.8-1.1-2.8-2.6-2.8-1.7 0-2.7 1.2-2.7 2.9 0 1.7 1 2.8 2.7 2.8zm-1-3.4c0-0.6 0.4-1 1-1 0.6 0 1 0.4 1 1zm4.5 3.3h1.8v-3c0-0.6 0.4-1.1 1.1-1.1 0.2 0 0.5 0.1 0.6 0.1v-1.5c-0.1 0-0.3-0.1-0.4-0.1-0.6 0-1.1 0.4-1.3 1.1h-0.1v-1h-1.7zm6-7.3h-1.7v7.3h1.7zm2.6 7.4c0.8 0 1.3-0.3 1.6-0.9h0.1v0.8h1.6v-3.7c0-1.2-1-1.8-2.4-1.8-1.5 0-2.3 0.7-2.5 1.7l1.6 0.1c0.1-0.4 0.4-0.6 0.9-0.6 0.4 0 0.7 0.2 0.7 0.6 0 0.3-0.4 0.4-1.3 0.5-1.1 0.1-2.1 0.5-2.1 1.7 0 1.1 0.8 1.6 1.8 1.6zm0.6-1.2c-0.4 0-0.7-0.1-0.7-0.5 0-0.4 0.3-0.6 0.7-0.6 0.4-0.1 0.8-0.2 1-0.3v0.6c0 0.5-0.5 0.8-1 0.8zm5.5-2c0-0.6 0.3-1 0.9-1 0.5 0 0.9 0.4 0.9 1v3.1h1.7v-3.5c0-1.2-0.7-2-1.9-2-0.8 0-1.4 0.4-1.6 1h-0.1v-1h-1.7v5.5h1.8zm6.6 3.2c0.8 0 1.3-0.5 1.5-1h0.1v0.9h1.7v-7.3h-1.8v2.8c-0.2-0.5-0.7-1-1.5-1-1.2 0-2.2 0.9-2.2 2.8 0 1.8 1 2.8 2.2 2.8zm0.6-1.4c-0.7 0-1-0.5-1-1.4 0-0.9 0.3-1.5 1-1.5 0.6 0 1 0.6 1 1.5 0 0.9-0.4 1.4-1 1.4z"/>
			<path id="Shape 5" class="s2" d="m414 39h33c8.3 0 15 6.7 15 15v44c0 8.3-6.7 15-15 15h-33c-8.3 0-15-6.7-15-15v-44c0-8.3 6.7-15 15-15z"/>
		</g>
		<g id="Mid tekst">
			<path id="Shape 4" class="s2" d="m153 125h189c8.3 0 15 6.7 15 15v59c0 8.3-6.7 15-15 15h-189c-8.3 0-15-6.7-15-15v-59c0-8.3 6.7-15 15-15z"/>
			<path id="Irene van der veld Het kruid 17 " class="s1" aria-label="Irene van der veld
Het kruid 17
1147 DL Almelo
NEDERLAND"  d="m156.3 138.8h-1.2v8.2h1.2zm2.1 8.2h1v-3.9c0-0.8 0.8-1.4 1.8-1.4 0.3 0 0.6 0 0.6 0v-0.9c-0.1 0-0.4 0-0.5 0-0.9 0-1.6 0.4-1.8 1h-0.1v-1h-1zm7.4 0.2c1.4 0 2.5-0.6 2.8-1.6l-1-0.2c-0.3 0.6-0.9 0.9-1.8 0.9-1.2 0-2.1-0.7-2.1-2h5v-0.4c0-2.3-1.5-3.1-3-3.1-1.9 0-3.1 1.3-3.1 3.2 0 1.9 1.2 3.2 3.2 3.2zm-2.1-3.7c0-1 0.8-1.8 2-1.8 1.2 0 1.9 0.7 1.9 1.8zm7.8-0.1c0-1.1 0.7-1.7 1.8-1.7 1 0 1.6 0.5 1.6 1.5v3.8h1v-3.9c0-1.5-0.9-2.3-2.3-2.3-1.1 0-1.7 0.4-2.1 1.1v-1h-1.1v6.1h1.1zm9.3 3.9c1.4 0 2.5-0.7 2.8-1.6l-1-0.2c-0.3 0.6-0.9 0.9-1.8 0.9-1.2 0-2.1-0.7-2.1-2h5v-0.4c0-2.3-1.5-3.1-3-3.1-1.9 0-3.1 1.3-3.1 3.2 0 1.9 1.2 3.2 3.2 3.2zm-2.1-3.7c0-1 0.8-1.8 2-1.8 1.2 0 1.9 0.7 1.9 1.8zm16-2.6h-1.1l-2 4.9-2-4.9h-1.1l2.6 6.1h1.1zm3.2 6.3c1.2 0 1.9-0.5 2.1-0.9v0.8h1.1v-4.1c0-1.9-1.7-2.1-2.6-2.1-1 0-2.2 0.3-2.8 1.4l1 0.3c0.3-0.4 0.8-0.9 1.9-0.9 0.9 0 1.4 0.5 1.4 1.2v0.1c0 0.4-0.5 0.4-1.8 0.5-1.3 0.2-2.7 0.4-2.7 1.8 0 1.2 1.1 1.9 2.4 1.9zm0.2-0.8c-0.9 0-1.5-0.4-1.5-1 0-0.7 0.7-1 1.6-1.1 0.4 0 1.6-0.1 1.8-0.3v0.9c0 0.7-0.7 1.5-1.9 1.5zm6-3c0-1.1 0.8-1.7 1.8-1.7 1 0 1.6 0.6 1.6 1.5v3.9h1.1v-3.9c0-1.6-1-2.3-2.4-2.3-1 0-1.7 0.4-2 1h-0.1v-1h-1v6.2h1zm12.7 3.8c1.3 0 1.8-0.7 2-1.1h0.1v1h1.1v-8.2h-1.1v3h-0.1c-0.2-0.3-0.6-1-2-1-1.8 0-3 1.2-3 3.1 0 2 1.2 3.2 3 3.2zm0.1-0.8c-1.3 0-2-1.1-2-2.4 0-1.3 0.7-2.3 2-2.3 1.3 0 2 0.9 2 2.3 0 1.4-0.7 2.4-2 2.4zm8.1 0.8c1.4 0 2.5-0.6 2.8-1.5l-1-0.3c-0.3 0.6-1 1-1.8 1-1.3 0-2.1-0.8-2.2-2.1h5.1v-0.4c0-2.3-1.5-3-3-3-1.9 0-3.1 1.3-3.1 3.2 0 1.8 1.2 3.1 3.2 3.1zm-2.2-3.7c0.1-0.9 0.9-1.8 2.1-1.8 1.2 0 1.9 0.8 1.9 1.8zm6.7 3.6h1.1v-3.9c0-0.8 0.7-1.4 1.7-1.4 0.3 0 0.6 0 0.7 0v-0.9c-0.1-0.1-0.4-0.1-0.6-0.1-0.8 0-1.5 0.5-1.8 1.1h-0.1v-1h-1zm14.1-6.1h-1.2l-1.9 4.9h-0.1l-1.9-4.9h-1.2l2.6 6.1h1.1zm4.1 6.3c1.4 0 2.4-0.6 2.8-1.5l-1.1-0.3c-0.3 0.6-0.9 1-1.7 1-1.3 0-2.2-0.8-2.2-2.1h5.1v-0.4c0-2.3-1.6-3-3-3-1.9 0-3.2 1.3-3.2 3.2 0 1.8 1.3 3.1 3.3 3.1zm-2.2-3.7c0.1-0.9 0.8-1.8 2.1-1.8 1.1 0 1.9 0.8 1.9 1.8zm7.7-4.6h-1v8.2h1zm4.6 8.3c1.4 0 1.8-0.7 2.1-1.1h0.1v1h1v-8.2h-1v3h-0.1c-0.3-0.3-0.7-1.1-2-1.1-1.8 0-3 1.3-3 3.2 0 2 1.2 3.2 2.9 3.2zm0.2-0.9c-1.4 0-2.1-1-2.1-2.3 0-1.3 0.7-2.3 2.1-2.3 1.3 0 2 0.9 2 2.3 0 1.4-0.7 2.3-2 2.3zm-102.8 14.8h1.1v-3.7h4.9v3.7h1.2v-8.2h-1.2v3.6h-4.9v-3.6h-1.1zm12.2 0.1c1.4 0 2.5-0.6 2.8-1.5l-1-0.3c-0.3 0.6-1 1-1.8 1-1.3 0-2.1-0.8-2.2-2.1h5.1v-0.4c0-2.3-1.5-3-3-3-1.9 0-3.1 1.3-3.1 3.2 0 1.8 1.2 3.1 3.2 3.1zm-2.2-3.7c0.1-0.9 0.9-1.8 2.1-1.8 1.2 0 1.9 0.8 1.9 1.8zm9.7-2.6h-1.5v-1.4h-1v1.4h-1.1v0.8h1.1v3.9c0 1 1 1.6 1.9 1.6 0.4 0 0.6-0.1 0.8-0.2l-0.3-0.8c0 0-0.2 0-0.4 0-0.5 0-1-0.1-1-0.9v-3.6h1.5zm5.3 6.2h1v-2.3l0.8-0.6 2.6 2.9h1.3l-3.1-3.5 2.9-2.7h-1.3l-3.1 2.8h-0.1v-4.8h-1zm6.9 0h1.1v-3.9c0-0.8 0.7-1.4 1.7-1.4 0.3 0 0.6 0 0.7 0v-0.9c-0.1 0-0.4 0-0.6 0-0.8 0-1.5 0.4-1.8 1h-0.1v-1h-1zm9.2-2.5c0 1.2-1 1.7-1.8 1.7-0.9 0-1.6-0.6-1.6-1.5v-3.8h-1v3.9c0 1.6 0.9 2.3 2.2 2.3 1.1 0 1.8-0.5 2.1-1.1h0.1v1h1v-6.1h-1zm3 2.5h1.1v-6.1h-1.1zm0.5-7.2c0.5 0 0.8-0.3 0.8-0.6 0-0.4-0.3-0.7-0.8-0.7-0.4 0-0.7 0.3-0.7 0.7 0 0.3 0.3 0.6 0.7 0.6zm5.2 7.3c1.3 0 1.8-0.7 2-1.1h0.1v1h1.1v-8.2h-1.1v3h-0.1c-0.2-0.3-0.7-1-2-1-1.8 0-3 1.2-3 3.1 0 2 1.2 3.2 3 3.2zm0.1-0.8c-1.3 0-2-1.1-2-2.4 0-1.3 0.6-2.3 2-2.3 1.3 0 2 0.9 2 2.3 0 1.4-0.7 2.4-2 2.4zm12-7.5h-1.1l-2.3 1.3v1.1l2.2-1.4h0.1v7.2h1.1zm3 8.2h1.2l4.1-7.3v-0.9h-6v0.9h4.8zm-61.8 4.8h-1.1l-2.3 1.4v1l2.2-1.3h0.1v7.1h1.1zm5.9 0h-1.1l-2.3 1.4v1l2.3-1.3v7.1h1.1zm2.5 6.5h4.4v1.7h1v-1.7h1.3v-0.9h-1.3v-5.6h-1.3l-4.1 5.7zm4.4-0.9h-3.2l3.1-4.3h0.1zm4.3 2.5h1.2l4.1-7.2v-1h-5.9v0.9h4.8v0.1zm13.6 0c2.9 0 4.5-1.6 4.5-4.1 0-2.6-1.6-4.1-4.4-4.1h-3v8.2zm-1.7-0.9v-6.4h1.8c2.2 0 3.3 1.2 3.3 3.2 0 2-1.1 3.2-3.4 3.2zm8 0.9h5.5v-0.9h-4.3v-7.3h-1.2zm11.2 0l0.9-2.3h3.8l0.9 2.3h1.2l-3.4-8.2h-1.2l-3.4 8.2zm1.3-3.2l1.5-3.7h0.1l1.5 3.7zm7.9-5h-1.1v8.2h1.1zm1.9 8.2h1.1v-3.9c0-0.9 0.8-1.5 1.6-1.5 0.8 0 1.4 0.5 1.4 1.2v4.2h1.1v-4c0-0.8 0.5-1.4 1.5-1.4 0.8 0 1.4 0.4 1.4 1.3v4.1h1.1v-4.1c0-1.5-0.9-2.2-2.1-2.2-1 0-1.8 0.5-2.1 1.1h-0.1c-0.3-0.7-0.9-1.1-1.9-1.1-0.9 0-1.5 0.4-1.8 1.1h-0.1v-1h-1.1zm14.1 0.2c1.4 0 2.4-0.7 2.8-1.6l-1.1-0.3c-0.2 0.7-0.9 1-1.7 1-1.3 0-2.1-0.7-2.2-2h5.1v-0.4c0-2.3-1.6-3.1-3-3.1-1.9 0-3.2 1.3-3.2 3.2 0 1.9 1.3 3.2 3.3 3.2zm-2.2-3.7c0.1-1 0.8-1.8 2.1-1.8 1.1 0 1.9 0.7 1.9 1.8zm7.7-4.7h-1v8.2h1zm4.8 8.3c1.9 0 3.2-1.2 3.2-3.1 0-1.9-1.3-3.2-3.2-3.2-1.8 0-3.1 1.3-3.1 3.2 0 1.9 1.3 3.1 3.1 3.1zm0-0.8c-1.4 0-2-1.1-2-2.3 0-1.3 0.6-2.4 2-2.4 1.5 0 2.1 1.1 2.1 2.4 0 1.2-0.6 2.3-2.1 2.3zm-79.5 6.5h-1.1v6.5h-0.1l-5.1-6.5h-1.1v8.2h1.1v-6.4h0.1l5.1 6.4h1.1zm2.2 8.2h5.7v-0.9h-4.5v-2.8h4.2v-0.8h-4.2v-2.8h4.4v-0.9h-5.6zm10.5 0c2.9 0 4.5-1.5 4.5-4.1 0-2.5-1.6-4.1-4.3-4.1h-3v8.2zm-1.8-0.9v-6.4h1.8c2.2 0 3.3 1.2 3.3 3.2 0 2-1.1 3.2-3.4 3.2zm8.1 0.9h5.7v-0.9h-4.6v-2.7h4.2v-0.9h-4.2v-2.8h4.5v-0.9h-5.6zm7.6 0h1.1v-3.2h2.1c0.1 0 0.1 0 0.2 0l2 3.2h1.3l-2.1-3.4c1.2-0.3 1.7-1.2 1.7-2.3 0-1.4-1-2.5-3.1-2.5h-3.2zm1.1-4.1v-3.2h2c1.5 0 2.1 0.7 2.1 1.7 0 0.9-0.6 1.5-2.1 1.5zm7.1 4.1h5.4v-0.8h-4.3v-7.4h-1.1zm8.1 0l1-2.3h3.7l1 2.3h1.2l-3.5-8.1h-1.1l-3.4 8.1zm1.3-3.1l1.4-3.7h0.1l1.5 3.7zm14.4-5h-1.1v6.4h-0.1l-5.1-6.4h-1.1v8.1h1.1v-6.4h0.1l5.1 6.4h1.1zm5.1 8.2c2.8 0 4.4-1.5 4.4-4.1 0-2.5-1.6-4.1-4.3-4.1h-3v8.2zm-1.7-0.8v-6.5h1.8c2.1 0 3.3 1.2 3.3 3.2 0 2-1.2 3.3-3.5 3.3z"/>
		</g>
		<g id="Afzendinfo">
			<path id="Shape 6" class="s2" d="m45 27h82c8.3 0 15 6.7 15 15v54c0 8.3-6.7 15-15 15h-82c-8.3 0-15-6.7-15-15v-54c0-8.3 6.7-15 15-15z"/>
			<path id=" Afzender SuperWinkel Europalaan" class="s1" aria-label="
Afzender
SuperWinkel
Europalaan 2
4899 DC Houten

Bestelnr: 458141336"  d="m37 41l0.8-2.2h3l0.8 2.2h0.7l-2.7-7.3h-0.7l-2.6 7.3zm1-2.8l1.3-3.6 1.3 3.6zm7.7-2.7h-1.2v-0.6c0-0.6 0.3-0.9 0.8-0.9 0.2 0 0.4 0 0.5 0.1l0.1-0.6c-0.1 0-0.3-0.1-0.6-0.1-0.8 0-1.5 0.5-1.5 1.3v0.8h-0.8v0.6h0.8v4.9h0.7v-4.9h1.2zm1.1 5.5h4v-0.6h-3.2v-0.1l3.1-4.3v-0.5h-3.8v0.6h3l-3.1 4.3zm7.5 0.2c1.1 0 1.8-0.6 2.1-1.3l-0.6-0.2c-0.2 0.5-0.7 0.9-1.5 0.9-1.1 0-1.8-0.8-1.9-2.1h4.1v-0.3c0-1.8-1.1-2.7-2.3-2.7-1.4 0-2.4 1.2-2.4 2.9 0 1.6 1 2.8 2.5 2.8zm-1.9-3.2c0.1-1.1 0.8-1.9 1.8-1.9 1 0 1.7 0.8 1.7 1.9zm6-0.4c0-0.9 0.7-1.5 1.5-1.5 0.9 0 1.4 0.6 1.4 1.5v3.4h0.6v-3.5c0-1.3-0.7-2-1.8-2-0.8 0-1.4 0.4-1.6 1h-0.1v-0.9h-0.6v5.4h0.6zm7.2 3.6c1 0 1.4-0.7 1.6-1.2h0.1v1.1h0.6v-7.3h-0.6v2.8h-0.1c-0.2-0.4-0.6-1.1-1.6-1.1-1.4 0-2.3 1.2-2.3 2.8 0 1.7 0.9 2.9 2.3 2.9zm0-0.6c-1.1 0-1.6-1-1.6-2.3 0-1.2 0.5-2.2 1.6-2.2 1.1 0 1.7 0.9 1.7 2.2 0 1.4-0.6 2.3-1.7 2.3zm6.3 0.6c1.1 0 1.9-0.6 2.1-1.3l-0.6-0.2c-0.2 0.5-0.7 0.9-1.5 0.9-1.1 0-1.8-0.8-1.8-2.1h4v-0.3c0-1.8-1.1-2.7-2.3-2.7-1.4 0-2.4 1.2-2.4 2.9 0 1.6 1 2.8 2.5 2.8zm-1.8-3.2c0.1-1.1 0.7-1.9 1.7-1.9 1 0 1.7 0.8 1.7 1.9zm5.4 3.1h0.7v-3.6c0-0.8 0.6-1.4 1.5-1.4 0.1 0 0.3 0.1 0.3 0.1v-0.7c-0.1 0-0.2 0-0.3 0-0.7 0-1.3 0.4-1.5 0.9v-0.8h-0.7zm-34.6 6.5h0.6c0-1.1-1-1.9-2.3-1.9-1.4 0-2.4 0.8-2.4 2 0 0.9 0.6 1.5 1.8 1.9l0.9 0.2c0.9 0.3 1.5 0.6 1.5 1.4 0 0.8-0.8 1.4-1.9 1.4-1 0-1.8-0.5-1.8-1.3h-0.7c0.1 1.1 1 1.9 2.5 1.9 1.6 0 2.5-0.9 2.5-2 0-1.2-1-1.7-2-2l-0.7-0.2c-0.7-0.2-1.5-0.6-1.5-1.3 0-0.8 0.7-1.4 1.7-1.4 1 0 1.7 0.5 1.8 1.3zm5.7 3.4c0 1-0.8 1.6-1.5 1.6-0.8 0-1.4-0.6-1.4-1.5v-3.5h-0.6v3.6c0 1.3 0.7 2 1.8 2 0.8 0 1.3-0.4 1.6-1h0.1v0.9h0.6v-5.5h-0.6zm2.3 4.2h0.6v-3.1c0.3 0.5 0.7 1.1 1.7 1.1 1.4 0 2.3-1.1 2.3-2.8 0-1.7-0.9-2.8-2.3-2.8-1 0-1.4 0.6-1.7 1.1v-1h-0.6zm0.6-4.8c0-1.3 0.6-2.2 1.6-2.2 1.1 0 1.7 1 1.7 2.2 0 1.3-0.6 2.3-1.7 2.3-1 0-1.6-1-1.6-2.3zm7.6 2.8c1 0 1.8-0.5 2-1.2l-0.6-0.2c-0.2 0.5-0.7 0.9-1.4 0.9-1.2 0-1.9-0.8-1.9-2.1h4.1v-0.3c0-1.8-1.2-2.7-2.3-2.7-1.5 0-2.4 1.2-2.4 2.8 0 1.7 0.9 2.8 2.5 2.8zm-1.9-3.2c0.1-1 0.8-1.8 1.8-1.8 0.9 0 1.6 0.8 1.6 1.8zm5.5 3.1h0.6v-3.5c0-0.8 0.6-1.4 1.5-1.4 0.1 0 0.3 0 0.4 0.1v-0.7c-0.1 0-0.3 0-0.4 0-0.7 0-1.3 0.4-1.5 0.9v-0.8h-0.6zm4.9 0h0.7l1.7-6.2h0.1l1.7 6.2h0.7l2-7.3h-0.7l-1.7 6.3-1.7-6.3h-0.7l-1.7 6.3-1.7-6.3h-0.7zm7.9 0h0.7v-5.4h-0.7zm0.4-6.4c0.2 0 0.4-0.2 0.4-0.5 0-0.2-0.2-0.4-0.4-0.4-0.3 0-0.5 0.2-0.5 0.4 0 0.3 0.2 0.5 0.5 0.5zm2.6 2.9c0-0.9 0.6-1.5 1.5-1.5 0.8 0 1.4 0.6 1.4 1.5v3.5h0.6v-3.6c0-1.3-0.8-2-1.9-2-0.8 0-1.3 0.4-1.6 1v-0.9h-0.6v5.5h0.6zm5.2 3.4h0.6v-2.2l0.6-0.5 2.2 2.7h0.8l-2.5-3.2 2.3-2.3h-0.8l-2.5 2.6h-0.1v-4.4h-0.6zm7.2 0.1c1.1 0 1.8-0.6 2.1-1.3l-0.6-0.2c-0.2 0.5-0.7 0.9-1.5 0.9-1.1 0-1.8-0.8-1.9-2.1h4.1v-0.3c0-1.8-1.1-2.6-2.3-2.6-1.4 0-2.4 1.1-2.4 2.8 0 1.6 1 2.8 2.5 2.8zm-1.9-3.2c0.1-1 0.8-1.9 1.8-1.9 1 0 1.7 0.8 1.7 1.9zm6-4.2h-0.6v7.3h0.6zm-56.1 19.3h4.2v-0.6h-3.6v-2.8h3.4v-0.6h-3.4v-2.7h3.6v-0.6h-4.2zm9.2-2.1c0 1-0.7 1.5-1.5 1.5-0.8 0-1.3-0.5-1.3-1.4v-3.5h-0.6v3.6c0 1.3 0.7 2 1.8 2 0.8 0 1.3-0.5 1.6-1v0.9h0.7v-5.5h-0.7zm2.3 2.1h0.7v-3.5c0-0.8 0.6-1.4 1.4-1.4 0.2 0 0.4 0 0.4 0v-0.6c-0.1 0-0.2 0-0.3 0-0.7 0-1.3 0.4-1.5 0.9h-0.1v-0.8h-0.6zm5.5 0.1c1.5 0 2.4-1.2 2.4-2.8 0-1.7-0.9-2.9-2.4-2.9-1.4 0-2.4 1.2-2.4 2.9 0 1.6 1 2.8 2.4 2.8zm0-0.6c-1.1 0-1.7-1-1.7-2.2 0-1.3 0.6-2.3 1.7-2.3 1.2 0 1.8 1 1.8 2.3 0 1.2-0.6 2.2-1.8 2.2zm3.8 2.5h0.7v-3c0.2 0.5 0.7 1.1 1.7 1.1 1.3 0 2.2-1.2 2.2-2.8 0-1.7-0.9-2.9-2.2-2.9-1 0-1.5 0.7-1.7 1.2h-0.1v-1.1h-0.6zm0.7-4.8c0-1.3 0.6-2.2 1.6-2.2 1.1 0 1.7 1 1.7 2.2 0 1.3-0.6 2.3-1.7 2.3-1 0-1.6-0.9-1.6-2.3zm6.9 2.9c0.9 0 1.4-0.5 1.6-1h0.1v0.9h0.6v-3.7c0-1.5-1.1-1.9-1.9-1.9-0.9 0-1.7 0.4-2.1 1.3l0.6 0.2c0.2-0.5 0.7-0.9 1.5-0.9 0.8 0 1.3 0.5 1.3 1.2v0.1c0 0.4-0.5 0.5-1.4 0.6-1.3 0.1-2.1 0.5-2.1 1.5 0 1.1 0.8 1.7 1.8 1.7zm0-0.6c-0.7 0-1.2-0.4-1.2-1 0-0.7 0.5-1 1.5-1.1 0.4 0 1.2-0.1 1.4-0.3v0.8c0 0.9-0.7 1.6-1.7 1.6zm4.6-6.8h-0.6v7.3h0.6zm3.2 7.4c0.9 0 1.5-0.5 1.7-1v0.8h0.7v-3.7c0-1.4-1.1-1.8-2-1.8-0.8 0-1.7 0.3-2 1.2l0.6 0.2c0.2-0.4 0.7-0.8 1.5-0.8 0.8 0 1.2 0.4 1.2 1.2v0.1c0 0.4-0.5 0.4-1.4 0.5-1.2 0.2-2.1 0.5-2.1 1.6 0 1.1 0.8 1.7 1.8 1.7zm0.1-0.6c-0.7 0-1.2-0.4-1.2-1.1 0-0.6 0.5-0.9 1.4-1 0.5-0.1 1.3-0.2 1.4-0.3v0.7c0 0.9-0.6 1.7-1.6 1.7zm5.5 0.6c0.9 0 1.4-0.5 1.7-1v0.8h0.6v-3.7c0-1.4-1.1-1.8-1.9-1.8-0.8 0-1.7 0.3-2.1 1.2l0.6 0.2c0.2-0.4 0.7-0.8 1.5-0.8 0.9 0 1.3 0.4 1.3 1.2v0.1c0 0.4-0.5 0.4-1.4 0.5-1.2 0.2-2.1 0.5-2.1 1.6 0 1.1 0.8 1.7 1.8 1.7zm0.1-0.6c-0.7 0-1.3-0.4-1.3-1.1 0-0.6 0.6-0.9 1.5-1 0.4-0.1 1.2-0.2 1.4-0.3v0.7c0 0.9-0.6 1.7-1.6 1.7zm4.6-3c0-0.9 0.6-1.5 1.4-1.5 0.9 0 1.4 0.6 1.4 1.4v3.5h0.6v-3.5c0-1.3-0.7-2-1.8-2-0.8 0-1.4 0.4-1.6 0.9h-0.1v-0.8h-0.6v5.4h0.7zm7.9 3.4h4.5v-0.6h-3.6l1.8-2c1.2-1.3 1.6-1.9 1.6-2.8 0-1.1-0.9-1.9-2.1-1.9-1.2 0-2.1 0.8-2.1 2h0.6c0-0.8 0.6-1.4 1.5-1.4 0.8 0 1.5 0.5 1.5 1.3 0 0.7-0.4 1.2-1.3 2.3l-2.4 2.7zm-54.8 10.4h3.4v1.6h0.7v-1.6h0.9v-0.6h-0.9v-5.1h-0.8l-3.3 5.2zm3.4-0.6h-2.6v-0.1l2.6-4.1zm5.3 2.2c1.4 0 2.4-0.8 2.4-2 0-0.9-0.6-1.7-1.4-1.9 0.7-0.2 1.1-0.9 1.2-1.7-0.1-1-1-1.9-2.2-1.9-1.2 0-2.1 0.9-2.1 1.9 0 0.8 0.4 1.5 1.2 1.7-0.9 0.2-1.5 1-1.5 1.9 0 1.2 1 2 2.4 2zm0-0.6c-1 0-1.7-0.6-1.7-1.4 0-0.9 0.7-1.6 1.7-1.6 1 0 1.8 0.7 1.8 1.6 0 0.8-0.8 1.4-1.8 1.4zm0-3.5c-0.8 0-1.5-0.6-1.5-1.4 0-0.8 0.6-1.4 1.5-1.4 0.9 0 1.5 0.6 1.5 1.4 0 0.8-0.6 1.4-1.5 1.4zm6.1-3.4c-1.4 0-2.3 1.1-2.3 2.4 0 1.4 1 2.4 2.2 2.4 0.8 0 1.5-0.4 1.8-1.1 0 2.1-0.6 3.2-1.8 3.2-0.9 0-1.4-0.5-1.5-1.3h-0.6c0.1 1.1 0.9 1.9 2.1 1.9 1.6 0 2.5-1.7 2.5-4 0-2.6-1.2-3.4-2.4-3.5zm0 0.6c0.9 0 1.5 0.8 1.6 1.8 0.1 0.9-0.7 1.8-1.6 1.8-1 0-1.7-0.8-1.7-1.8 0-1 0.7-1.8 1.7-1.8zm6.1-0.6c-1.4 0-2.3 1.1-2.3 2.4 0 1.4 1 2.4 2.2 2.4 0.8 0 1.5-0.4 1.8-1.1 0 2.1-0.6 3.2-1.8 3.2-0.9 0-1.4-0.5-1.5-1.3h-0.7c0.2 1.1 1 1.9 2.2 1.9 1.6 0 2.5-1.7 2.5-4 0-2.6-1.2-3.4-2.4-3.5zm0 0.6c0.9 0 1.5 0.8 1.6 1.8 0.1 0.9-0.7 1.8-1.6 1.8-1 0-1.7-0.8-1.7-1.8 0-1 0.7-1.8 1.7-1.8zm9 6.8c2.2 0 3.4-1.4 3.4-3.6 0-2.3-1.2-3.7-3.3-3.7h-2.3v7.3zm-1.4-0.6v-6.1h1.5c1.8 0 2.7 1.2 2.7 3.1 0 1.9-0.9 3-2.8 3zm12.2-4.4c-0.2-1.3-1.3-2.4-2.9-2.4-1.8 0-3.1 1.5-3.1 3.8 0 2.3 1.3 3.7 3.1 3.7 1.6 0 2.7-1 2.9-2.4h-0.7c-0.2 1-1 1.8-2.2 1.8-1.3 0-2.5-1.1-2.5-3.1 0-2 1.2-3.1 2.5-3.1 1.2 0 2 0.7 2.2 1.7zm4.4 5h0.7v-3.3h4.1v3.3h0.7v-7.3h-0.7v3.4h-4.1v-3.4h-0.7zm9.4 0.2c1.4 0 2.4-1.2 2.4-2.9 0-1.6-1-2.8-2.4-2.8-1.4 0-2.4 1.2-2.4 2.8 0 1.7 1 2.9 2.4 2.9zm0-0.6c-1.1 0-1.8-1-1.8-2.3 0-1.2 0.7-2.2 1.8-2.2 1.1 0 1.8 1 1.8 2.2 0 1.3-0.7 2.3-1.8 2.3zm7.2-1.6c0 1-0.7 1.5-1.4 1.5-0.8 0-1.4-0.6-1.4-1.4v-3.5h-0.6v3.5c0 1.3 0.7 2 1.8 2 0.8 0 1.3-0.4 1.6-1v0.9h0.7v-5.4h-0.7zm4.5-3.4h-1.2v-1.3h-0.6v1.3h-0.8v0.6h0.8v3.6c0 0.9 0.7 1.4 1.4 1.4 0.3 0 0.5-0.1 0.6-0.1l-0.2-0.6c-0.1 0-0.2 0-0.3 0-0.5 0-0.9-0.2-0.9-0.9v-3.4h1.2zm3.6 5.5c1.1 0 1.8-0.6 2.1-1.2l-0.6-0.2c-0.3 0.4-0.7 0.9-1.5 0.9-1.1 0-1.8-0.9-1.9-2.1h4.1v-0.3c0-1.9-1.1-2.7-2.3-2.7-1.4 0-2.4 1.2-2.4 2.8 0 1.7 1 2.8 2.5 2.8zm-1.9-3.2c0.1-1 0.8-1.8 1.8-1.8 1 0 1.6 0.8 1.6 1.8zm6.1-0.3c0-0.9 0.7-1.5 1.5-1.5 0.9 0 1.4 0.5 1.4 1.4v3.5h0.6v-3.5c0-1.3-0.7-2-1.8-2-0.8 0-1.4 0.4-1.6 0.9h-0.1v-0.8h-0.6v5.4h0.6zm-73.5 27.4h2.6c1.5 0 2.3-0.8 2.3-1.9 0-1.1-0.8-1.7-1.5-1.8v-0.1c0.7-0.1 1.2-0.6 1.2-1.5 0-1.1-0.7-1.9-2.1-1.9h-2.5zm0.7-0.6v-2.8h1.9c1 0 1.6 0.6 1.6 1.4 0 0.8-0.5 1.4-1.6 1.4zm0-3.4v-2.7h1.8c1 0 1.5 0.5 1.5 1.3 0 0.8-0.6 1.4-1.5 1.4zm7.9 4.1c1.1 0 1.8-0.6 2.1-1.3l-0.6-0.2c-0.2 0.5-0.7 0.9-1.5 0.9-1.1 0-1.8-0.8-1.8-2.1h4v-0.3c0-1.8-1.1-2.7-2.3-2.7-1.4 0-2.4 1.2-2.4 2.9 0 1.6 1 2.8 2.5 2.8zm-1.8-3.2c0-1.1 0.7-1.9 1.7-1.9 1 0 1.7 0.8 1.7 1.9zm9.1-1.2c-0.3-0.8-0.9-1.3-1.8-1.3-1.1 0-1.9 0.7-1.9 1.6 0 0.7 0.4 1.2 1.3 1.4l0.9 0.2c0.6 0.2 0.9 0.5 0.9 0.9 0 0.6-0.5 1-1.4 1-0.7 0-1.2-0.3-1.3-1l-0.6 0.2c0.2 0.9 0.9 1.4 2 1.4 1.2 0 2-0.7 2-1.6 0-0.7-0.5-1.2-1.4-1.5l-0.8-0.2c-0.7-0.1-1-0.4-1-0.9 0-0.5 0.5-0.9 1.3-0.9 0.7 0 1 0.4 1.2 0.9zm3.6-1.2h-1.1v-1.3h-0.7v1.3h-0.8v0.5h0.8v3.6c0 0.9 0.7 1.4 1.4 1.4 0.3 0 0.5 0 0.6-0.1l-0.1-0.6c-0.1 0.1-0.2 0.1-0.4 0.1-0.4 0-0.8-0.2-0.8-0.9v-3.5h1.1zm3.6 5.6c1.1 0 1.8-0.6 2.1-1.3l-0.6-0.2c-0.2 0.5-0.7 0.9-1.5 0.9-1.1 0-1.8-0.8-1.8-2.1h4v-0.3c0-1.8-1.1-2.7-2.3-2.7-1.4 0-2.4 1.2-2.4 2.9 0 1.6 1 2.8 2.5 2.8zm-1.8-3.2c0-1 0.7-1.9 1.7-1.9 1 0 1.7 0.8 1.7 1.9zm6.1-4.2h-0.7v7.3h0.7zm2.3 3.8c0-0.9 0.6-1.5 1.4-1.5 0.9 0 1.4 0.6 1.4 1.4v3.5h0.7v-3.5c0-1.3-0.8-2-1.9-2-0.8 0-1.3 0.4-1.6 0.9h-0.1v-0.8h-0.6v5.4h0.7zm5.1 3.5h0.7v-3.6c0-0.8 0.6-1.4 1.4-1.4 0.2 0 0.4 0.1 0.4 0.1v-0.7c-0.1 0-0.2 0-0.3 0-0.7 0-1.3 0.4-1.5 0.9h-0.1v-0.8h-0.6zm4.1-0.1c0.3 0 0.5-0.3 0.5-0.5 0-0.3-0.2-0.6-0.5-0.6-0.3 0-0.5 0.3-0.5 0.6 0 0.2 0.2 0.5 0.5 0.5zm0-4c0.3 0 0.5-0.2 0.5-0.5 0-0.3-0.2-0.5-0.5-0.5-0.3 0-0.5 0.2-0.5 0.5 0 0.3 0.2 0.5 0.5 0.5zm4.8 2.5h3.4v1.6h0.6v-1.6h1v-0.6h-1v-5.1h-0.8l-3.2 5.2zm3.4-0.6h-2.7l2.6-4.2h0.1zm5.2 2.2c1.3 0 2.3-1 2.3-2.3 0-1.5-1-2.5-2.3-2.5-0.5 0-1 0.2-1.3 0.5h-0.1l0.3-2.4h3.1v-0.6h-3.6l-0.5 3.5 0.7 0.1c0.3-0.3 0.8-0.4 1.3-0.4 1 0 1.7 0.7 1.7 1.8 0 1-0.7 1.8-1.6 1.8-0.9 0-1.5-0.6-1.6-1.4h-0.6c0 1.1 0.9 1.9 2.2 1.9zm6 0c1.4 0 2.4-0.8 2.4-2 0-0.9-0.6-1.7-1.4-1.8v-0.1c0.7-0.2 1.2-0.8 1.2-1.6 0-1.1-1-1.9-2.2-1.9-1.2 0-2.1 0.8-2.1 1.9 0 0.8 0.5 1.4 1.2 1.6v0.1c-0.9 0.1-1.5 0.9-1.5 1.8 0 1.2 1 2 2.4 2zm0-0.5c-1 0-1.7-0.7-1.7-1.5 0-0.9 0.7-1.5 1.7-1.5 1 0 1.8 0.6 1.8 1.5 0 0.8-0.7 1.5-1.8 1.5zm0-3.6c-0.8 0-1.5-0.6-1.5-1.4 0-0.8 0.7-1.3 1.5-1.3 0.9 0 1.5 0.5 1.5 1.3 0 0.8-0.6 1.4-1.5 1.4zm6.1-3.2h-0.7l-1.7 1.1v0.7l1.7-1.1h0.1v6.5h0.6zm2.1 5.8h3.4v1.5h0.6v-1.5h1v-0.6h-1v-5.2h-0.8l-3.2 5.2zm3.4-0.6h-2.7l2.6-4.2h0.1zm5.2-5.1h-0.7l-1.7 1.1v0.7l1.7-1.1v6.6h0.7zm4.5 7.3c1.4 0 2.4-0.8 2.4-2 0-0.9-0.6-1.6-1.5-1.8 0.8-0.3 1.2-0.9 1.2-1.7 0-1-0.8-1.9-2-1.9-1.3 0-2.2 0.8-2.3 1.9h0.7c0-0.8 0.7-1.3 1.5-1.3 0.9 0 1.5 0.5 1.5 1.3 0 0.9-0.7 1.4-1.6 1.4h-0.4v0.6h0.4c1.1 0 1.8 0.6 1.8 1.5 0 0.8-0.7 1.4-1.7 1.4-0.9 0-1.6-0.5-1.7-1.3h-0.6c0 1.2 1 1.9 2.3 1.9zm6.3 0c1.4 0 2.4-0.8 2.4-2 0-0.9-0.6-1.6-1.5-1.8 0.8-0.3 1.2-0.9 1.2-1.7 0-1-0.8-1.9-2.1-1.9-1.2 0-2.2 0.8-2.2 1.9h0.7c0-0.8 0.7-1.3 1.5-1.3 0.9 0 1.5 0.5 1.5 1.3 0 0.9-0.7 1.4-1.6 1.4h-0.5v0.6h0.5c1.1 0 1.8 0.6 1.8 1.5 0 0.8-0.7 1.4-1.7 1.4-0.9 0-1.6-0.5-1.7-1.3h-0.6c0 1.2 1 1.9 2.3 1.9zm6.2 0c1.4 0.1 2.3-1 2.3-2.3 0-1.4-1-2.4-2.2-2.4-0.8 0-1.4 0.4-1.8 1.1 0-2.1 0.6-3.2 1.8-3.2 0.9 0 1.4 0.5 1.5 1.3h0.7c-0.2-1.1-1-1.9-2.2-1.9-1.6 0-2.5 1.6-2.5 4 0 2.6 1.2 3.4 2.4 3.4zm0-0.6c-0.9 0-1.5-0.7-1.6-1.7-0.1-1 0.7-1.8 1.6-1.8 1 0 1.7 0.8 1.7 1.8 0 1-0.7 1.7-1.7 1.7z"/>
		</g>
		<g id="ProductIR">
			<g id="3x">
				<path id="Layer 19" class="s2" d="m46.4 241h6.8c6.8 0 12.3 5.5 12.3 12.4 0 6.8-5.5 12.4-12.3 12.4h-6.8c-6.9 0-12.4-5.6-12.4-12.4 0-6.9 5.5-12.4 12.4-12.4z"/>
				<path id="3 X" class="s1" aria-label="3 X"  d="m44.1 257.1c1.5 0 2.6-0.9 2.6-2.2 0-0.9-0.6-1.7-1.5-1.8v-0.1c0.8-0.2 1.2-0.8 1.2-1.7 0-1.1-0.8-2.1-2.2-2.1-1.4 0-2.5 0.9-2.5 2.1h0.9c0-0.8 0.8-1.2 1.6-1.2 0.8 0 1.3 0.5 1.3 1.2 0 0.8-0.6 1.4-1.5 1.4h-0.6v0.8h0.6c1.2 0 1.8 0.6 1.8 1.4 0 0.8-0.7 1.4-1.7 1.4-0.9 0-1.6-0.5-1.6-1.2h-1c0.1 1.2 1.2 2 2.6 2zm7.7-7.7h-1.1l2.5 3.8-2.5 3.8h1.1l2-3.1 2 3.1h1.1l-2.4-3.8 2.4-3.8h-1.1l-2 3.1z"/>
			</g>
			<g id="Potloden">
				<path id="Layer 23" class="s2" d="m81.7 241h80.4c6.8 0 12.3 5.5 12.3 12.4 0 6.8-5.5 12.4-12.3 12.4h-80.4c-6.9 0-12.4-5.6-12.4-12.4 0-6.9 5.5-12.4 12.4-12.4z"/>
				<path id="Potloden - 8 stuks" class="s1" aria-label="Potloden - 8 stuks"  d="m77 257h0.9v-2.8h1.7c1.8 0 2.6-1.1 2.6-2.4 0-1.4-0.8-2.4-2.6-2.4h-2.6zm0.9-3.7v-3.2h1.6c1.3 0 1.8 0.7 1.8 1.6 0 0.9-0.5 1.6-1.7 1.6zm7.9 3.8c1.5 0 2.6-1.2 2.6-3 0-1.8-1.1-3-2.6-3-1.6 0-2.6 1.2-2.6 3 0 1.8 1 3 2.6 3zm0-0.8c-1.2 0-1.8-1-1.8-2.2 0-1.1 0.6-2.2 1.8-2.2 1.1 0 1.7 1.1 1.7 2.2 0 1.2-0.6 2.2-1.7 2.2zm6.4-5.1h-1.2v-1.4h-0.9v1.4h-0.9v0.8h0.9v3.5c0 1 0.8 1.5 1.5 1.5 0.4 0 0.6 0 0.7-0.1l-0.2-0.8c-0.1 0-0.2 0.1-0.4 0.1-0.4 0-0.7-0.1-0.7-0.9v-3.3h1.2zm2.3-1.9h-0.9v7.6h0.9zm4 7.8c1.5 0 2.6-1.2 2.6-3 0-1.8-1.1-3-2.6-3-1.6 0-2.6 1.2-2.6 3 0 1.8 1 3 2.6 3zm0-0.8c-1.2 0-1.8-1-1.8-2.2 0-1.1 0.6-2.2 1.8-2.2 1.1 0 1.7 1.1 1.7 2.2 0 1.2-0.6 2.2-1.7 2.2zm6.1 0.8c1.1 0 1.5-0.7 1.6-1h0.2v0.8h0.8v-7.6h-0.9v2.8h-0.1c-0.1-0.3-0.5-1-1.6-1-1.5 0-2.5 1.2-2.5 3 0 1.8 1 3 2.5 3zm0.1-0.8c-1.1 0-1.7-1-1.7-2.2 0-1.2 0.6-2.2 1.7-2.2 1.1 0 1.6 0.9 1.6 2.2 0 1.3-0.5 2.2-1.6 2.2zm6.6 0.8c1.2 0 2.1-0.6 2.3-1.5l-0.8-0.2c-0.2 0.6-0.8 0.9-1.5 0.9-1 0-1.7-0.7-1.7-1.9h4.1v-0.4c0-2.1-1.3-2.9-2.4-2.9-1.6 0-2.6 1.3-2.6 3 0 1.8 1 3 2.6 3zm-1.7-3.5c0-0.9 0.6-1.7 1.7-1.7 0.9 0 1.5 0.7 1.5 1.7zm6.4-0.1c0-1 0.6-1.6 1.5-1.6 0.8 0 1.3 0.6 1.3 1.5v3.5h0.9v-3.6c0-1.5-0.8-2.2-2-2.2-0.8 0-1.4 0.4-1.6 1h-0.1v-0.9h-0.9v5.7h0.9zm11.5-0.2h-3.3v0.8h3.3zm7 3.8c1.5 0 2.6-0.9 2.6-2.1 0-1-0.7-1.8-1.5-2 0.7-0.2 1.2-0.9 1.2-1.7 0-1.2-1-2-2.3-2-1.4 0-2.4 0.8-2.3 2-0.1 0.8 0.4 1.5 1.1 1.7-0.8 0.2-1.4 1-1.4 2 0 1.2 1 2.1 2.6 2.1zm0-0.8c-1.1 0-1.7-0.5-1.7-1.4 0-0.8 0.7-1.4 1.7-1.4 0.9 0 1.7 0.6 1.7 1.4 0 0.9-0.7 1.4-1.7 1.4zm0-3.6c-0.9 0-1.5-0.6-1.4-1.3-0.1-0.8 0.5-1.3 1.4-1.3 0.8 0 1.4 0.5 1.4 1.3 0 0.7-0.6 1.3-1.4 1.3zm11-0.1c-0.2-0.8-0.9-1.4-2-1.4-1.2 0-2.1 0.7-2.1 1.7 0 0.8 0.5 1.3 1.5 1.5l1 0.3c0.6 0.1 0.8 0.4 0.8 0.8 0 0.5-0.5 0.9-1.3 0.9-0.7 0-1.2-0.3-1.3-1l-0.9 0.2c0.2 1 1 1.5 2.2 1.5 1.3 0 2.2-0.7 2.2-1.7 0-0.8-0.5-1.3-1.5-1.5l-0.8-0.2c-0.7-0.2-1-0.4-1-0.9 0-0.5 0.5-0.8 1.2-0.8 0.8 0 1.1 0.4 1.2 0.8zm4-1.3h-1.3v-1.4h-0.8v1.4h-0.9v0.8h0.9v3.5c0 1 0.8 1.5 1.5 1.5 0.3 0 0.6 0 0.7-0.1l-0.2-0.8c-0.1 0-0.2 0.1-0.4 0.1-0.4 0-0.8-0.2-0.8-0.9v-3.3h1.3zm4.9 3.3c0 1.1-0.8 1.6-1.5 1.6-0.7 0-1.2-0.5-1.2-1.4v-3.5h-0.9v3.6c0 1.5 0.8 2.2 1.9 2.2 0.8 0 1.4-0.5 1.7-1.1v1h0.9v-5.7h-0.9zm2.5 2.3h0.9v-2.1l0.6-0.6 2.2 2.7h1.1l-2.6-3.3 2.4-2.4h-1.1l-2.5 2.5h-0.1v-4.4h-0.9zm9.8-4.5c-0.3-0.8-0.9-1.4-2-1.4-1.2 0-2.1 0.7-2.1 1.7 0 0.8 0.4 1.3 1.5 1.6l0.9 0.2c0.6 0.1 0.9 0.4 0.9 0.8 0 0.5-0.5 0.9-1.4 0.9-0.7 0-1.1-0.3-1.3-0.9l-0.8 0.2c0.2 1 1 1.5 2.2 1.5 1.3 0 2.2-0.8 2.2-1.7 0-0.8-0.5-1.3-1.5-1.6l-0.9-0.2c-0.7-0.2-1-0.4-1-0.8 0-0.5 0.6-0.9 1.3-0.9 0.7 0 1.1 0.4 1.2 0.8z"/>
			</g>
			<path id="Gangpad 3 - A1" class="s3" aria-label="Gangpad 3 - A1"  d="m46.1 272.8l1-0.1c-0.3-1.4-1.5-2.4-3.1-2.4-2 0-3.4 1.5-3.4 3.9 0 2.4 1.4 3.9 3.4 3.9 1.8 0 3.1-1.2 3.1-3.1v-0.8h-2.9v0.8h2c0 1.4-0.9 2.2-2.2 2.2-1.4 0-2.5-1-2.5-3 0-2 1.1-3.1 2.5-3.1 1.1 0 1.8 0.6 2.1 1.6zm4.2 5.4c1 0 1.5-0.5 1.7-0.9v0.8h0.9v-3.8c0-1.8-1.4-2-2.1-2-0.9 0-1.9 0.3-2.3 1.3l0.8 0.3c0.2-0.4 0.7-0.8 1.5-0.8 0.8 0 1.2 0.4 1.2 1.1v0.1c0 0.4-0.4 0.4-1.4 0.5-1.1 0.1-2.3 0.4-2.3 1.7 0 1.1 0.9 1.7 2 1.7zm0.1-0.8c-0.7 0-1.2-0.3-1.2-0.9 0-0.7 0.6-0.9 1.3-1 0.4 0 1.4-0.1 1.5-0.3v0.8c0 0.7-0.5 1.4-1.6 1.4zm5-2.7c0-1 0.6-1.6 1.5-1.6 0.8 0 1.3 0.5 1.3 1.4v3.6h0.9v-3.6c0-1.5-0.8-2.2-2-2.2-0.8 0-1.4 0.4-1.6 1h-0.1v-0.9h-0.9v5.7h0.9zm7.6 5.7c1.4 0 2.5-0.6 2.5-2.1v-5.9h-0.9v0.9h-0.1c-0.2-0.3-0.5-1-1.7-1-1.4 0-2.4 1.2-2.4 3 0 1.7 1 2.8 2.4 2.8 1.2 0 1.5-0.7 1.7-1h0.1v1.1c0 1-0.7 1.4-1.6 1.4-1.1 0-1.4-0.5-1.7-0.8l-0.7 0.5c0.4 0.6 1.1 1.1 2.4 1.1zm0-3.1c-1.1 0-1.7-0.9-1.7-2.1 0-1.1 0.5-2.1 1.7-2.1 1 0 1.6 0.9 1.6 2.1 0 1.3-0.6 2.1-1.6 2.1zm4.1 3h0.9v-3c0.2 0.3 0.6 1 1.7 1 1.4 0 2.4-1.2 2.4-3 0-1.8-1-3-2.4-3-1.1 0-1.5 0.7-1.7 1h-0.1v-0.9h-0.8zm0.8-5c0-1.3 0.6-2.1 1.7-2.1 1.1 0 1.6 0.9 1.6 2.1 0 1.2-0.5 2.2-1.6 2.2-1.1 0-1.7-0.9-1.7-2.2zm7.3 3c1 0 1.5-0.5 1.7-0.9v0.8h0.9v-3.8c0-1.8-1.4-2-2.1-2-0.9 0-1.9 0.3-2.3 1.3l0.8 0.3c0.2-0.4 0.7-0.9 1.5-0.9 0.8 0 1.2 0.5 1.2 1.2 0 0.5-0.4 0.4-1.5 0.6-1 0.1-2.2 0.3-2.2 1.6 0 1.2 0.9 1.8 2 1.8zm0.1-0.8c-0.7 0-1.2-0.3-1.2-0.9 0-0.7 0.6-0.9 1.3-1 0.4 0 1.3-0.1 1.5-0.3v0.8c0 0.7-0.6 1.4-1.6 1.4zm6.3 0.8c1.1 0 1.4-0.7 1.6-1h0.1v0.9h0.9v-7.7h-0.9v2.9h-0.1c-0.2-0.3-0.5-1-1.6-1-1.5 0-2.5 1.1-2.5 2.9 0 1.8 1 3 2.5 3zm0.1-0.8c-1.1 0-1.7-1-1.7-2.2 0-1.2 0.6-2.1 1.7-2.1 1 0 1.6 0.8 1.6 2.1 0 1.3-0.6 2.2-1.6 2.2zm9.7 0.8c1.5 0 2.6-1 2.6-2.2 0-1-0.6-1.7-1.5-1.8v-0.1c0.7-0.2 1.2-0.9 1.2-1.7 0-1.1-0.8-2.1-2.2-2.1-1.4 0-2.5 0.8-2.5 2h0.9c0-0.7 0.7-1.2 1.5-1.2 0.9 0 1.4 0.5 1.4 1.3 0 0.8-0.6 1.3-1.5 1.3h-0.6v0.9h0.6c1.2 0 1.8 0.6 1.8 1.4 0 0.8-0.7 1.4-1.7 1.4-0.9 0-1.6-0.5-1.6-1.2h-1c0.1 1.2 1.1 2 2.6 2zm10.4-3.8h-3.4v0.8h3.4zm4.9 3.7l0.8-2.2h3.1l0.7 2.2h1l-2.8-7.6h-1l-2.8 7.6zm1.1-3l1.2-3.4h0.1l1.2 3.4zm7.9-4.6h-0.9l-1.9 1.2v1l1.9-1.3v6.7h0.9z"/>
		</g>
	</g>
</svg>