<svg version="1.2" xmlns="http://www.w3.org/2000/svg" viewBox="0 0 424 400" width="424" height="400">
	<title>Order image 7 BulkMail</title>
	<defs>
		<filter x="-50%" y="-50%" width="200%" height="200%" id="f1" ><feDropShadow dx="0" dy="0" stdDeviation="10.416666666666668" flood-color="#000000" flood-opacity=".3"/></filter>
		<filter x="-50%" y="-50%" width="200%" height="200%" id="f2" ><feDropShadow dx="0" dy="0" stdDeviation="10.416666666666668" flood-color="#000000" flood-opacity=".3"/></filter>
		<filter x="-50%" y="-50%" width="200%" height="200%" id="f3" ><feDropShadow dx="0" dy="0" stdDeviation="10.416666666666668" flood-color="#000000" flood-opacity=".3"/></filter>
	</defs>
	<style>
		.s0 { filter: url(#f1);fill: #ffffff;stroke: #808080;stroke-miterlimit:100;stroke-width: 3 } 
		.s1 { fill: #c1c9cf } 
		.s2 { fill: #565353 } 
		.s3 { filter: url(#f2);fill: #0b5394 } 
		.s4 { fill: #ffffff } 
		.s5 { filter: url(#f3);fill: #15d798 } 
	</style>
	<rect width="424" height="400" id="Background" style="display: none;fill: #ffffff"/>
	<path id="Frame" class="s0" d="m40 40h344c8.3 0 15 6.7 15 15v296c0 8.3-6.7 15-15 15h-344c-8.3 0-15-6.7-15-15v-296c0-8.3 6.7-15 15-15z"/>
	<g id="BulkMail">
		<g id="Line1">
			<path id="Shape 7" class="s1" d="m68 122v34h-22v-34zm0 0v34h-22v-34z"/>
			<path id="Shape 7 copy" class="s1" d="m205 122v34h-127v-34zm0 0v34h-127v-34z"/>
			<path id="Shape 7 copy 2" class="s1" d="m365 122v34h-150v-34zm0 0v34h-150v-34z"/>
		</g>
		<g id="Line2">
			<path id="Shape 7" class="s1" d="m129 180v34h-83v-34zm0 0v34h-83v-34z"/>
			<path id="Shape 7 copy" class="s1" d="m203 180v34h-64v-34zm0 0v34h-64v-34z"/>
			<path id="Shape 7 copy 2" class="s1" d="m283 180v34h-70v-34zm0 0v34h-70v-34z"/>
		</g>
		<g id="Line3">
			<path id="Shape 7 copy 3" class="s1" d="m116 239v34h-70v-34zm0 0v34h-70v-34z"/>
		</g>
		<g id="Line4">
			<path id="Shape 7" class="s1" d="m81 296v34h-35v-34zm0 0v34h-35v-34z"/>
			<path id="Shape 7 copy" class="s1" d="m135 296v34h-44v-34zm0 0v34h-44v-34z"/>
		</g>
		<g id="Line5">
			<path id="Shape 7 copy 4" class="s2" d="m106 65v34h-60v-34zm0 0v34h-60v-34z"/>
		</g>
		<g id="DownButton">
			<path id="Shape 8" class="s3" d="m76.5 349h141c9.1 0 16.5 7.4 16.5 16.5 0 9.1-7.4 16.5-16.5 16.5h-141c-9.1 0-16.5-7.4-16.5-16.5 0-9.1 7.4-16.5 16.5-16.5z"/>
			<path id="Verzend BulkMail" class="s4" aria-label="Verzend BulkMail"  d="m82.1 359.4h-2.7l4 11.6h3.2l4-11.6h-2.7l-2.9 8.8h-0.1zm12.8 11.8c2.2 0 3.6-1 4-2.6l-2.3-0.2c-0.2 0.7-0.8 1-1.6 1-1.2 0-2-0.8-2-2.1h5.9v-0.6c0-3-1.8-4.5-4.1-4.5-2.5 0-4.2 1.9-4.2 4.6 0 2.7 1.6 4.4 4.3 4.4zm-1.9-5.4c0-1 0.8-1.8 1.9-1.8 1 0 1.7 0.8 1.8 1.8zm7.5 5.3h2.4v-5c0-1 0.8-1.8 1.9-1.8 0.3 0 0.7 0.1 1 0.2v-2.2c-0.2 0-0.5-0.1-0.8-0.1-1 0-1.8 0.6-2.1 1.7h-0.1v-1.5h-2.3zm6.5 0h7.3v-2h-4.2l4.1-5.2v-1.6h-7.1v2h4.1l-4.2 5.3zm12.9 0.2c2.2 0 3.6-1.1 3.9-2.7l-2.2-0.1c-0.2 0.6-0.9 1-1.7 1-1.2 0-1.9-0.8-1.9-2.1h5.9v-0.7c0-3-1.8-4.4-4.1-4.4-2.6 0-4.2 1.8-4.2 4.5 0 2.8 1.6 4.5 4.3 4.5zm-1.9-5.4c0-1 0.8-1.8 1.8-1.8 1.1 0 1.8 0.7 1.8 1.8zm10 0.2c0-1.2 0.6-1.8 1.6-1.8 1 0 1.6 0.6 1.6 1.7v5.1h2.4v-5.5c0-2.1-1.2-3.3-3-3.3-1.3 0-2.3 0.6-2.6 1.6h-0.2v-1.5h-2.3v8.7h2.5zm10.7 5.2c1.4 0 2.1-0.8 2.5-1.5h0.1v1.4h2.4v-11.7h-2.4v4.4h-0.1c-0.3-0.7-1-1.6-2.5-1.6-1.9 0-3.5 1.5-3.5 4.5 0 2.9 1.5 4.5 3.5 4.5zm0.8-1.9c-1.2 0-1.9-1.1-1.9-2.6 0-1.5 0.7-2.6 1.9-2.6 1.2 0 1.8 1 1.8 2.6 0 1.5-0.7 2.6-1.8 2.6zm9.9 1.8h5c2.6 0 4-1.4 4-3.3 0-1.7-1.2-2.7-2.6-2.8v-0.1c1.2-0.3 2.1-1.1 2.1-2.5 0-1.7-1.3-3-3.8-3h-4.7zm2.5-2v-3.1h2c1.2 0 1.9 0.7 1.9 1.7 0 0.8-0.5 1.4-1.9 1.4zm0-4.8v-2.8h1.8c1.1 0 1.8 0.5 1.8 1.4 0 0.9-0.8 1.4-1.8 1.4zm13.7 3.1c0 1.2-0.8 1.8-1.7 1.8-0.9 0-1.5-0.7-1.5-1.7v-5.1h-2.4v5.5c0 2.1 1.2 3.3 2.9 3.3 1.3 0 2.3-0.6 2.7-1.7h0.1v1.6h2.3v-8.7h-2.4zm6.7-7.9h-2.4v11.6h2.4zm2 11.6h2.4v-2.7l0.6-0.8 2.4 3.5h2.9l-3.4-4.9 3.2-3.8h-2.8l-2.8 3.3h-0.1v-6.2h-2.4zm9.3-11.6v11.6h2.4v-7.6h0.1l3 7.5h1.6l3.1-7.5h0.1v7.6h2.3v-11.6h-3l-3.2 7.8h-0.1l-3.2-7.8zm17 11.8c1.3 0 2.2-0.6 2.6-1.4h0.1v1.2h2.3v-5.9c0-2.1-1.8-2.9-3.8-2.9-2 0-3.4 1-3.8 2.6l2.3 0.1c0.1-0.5 0.7-1 1.5-1 0.9 0 1.3 0.4 1.3 1.2 0 0.6-0.6 0.6-2.1 0.8-1.7 0.1-3.3 0.7-3.3 2.7 0 1.7 1.3 2.6 2.9 2.6zm0.7-1.7c-0.7 0-1.2-0.3-1.2-1 0-0.7 0.5-1 1.4-1.1 0.5-0.1 1.4-0.2 1.6-0.4v0.9c0 0.9-0.7 1.6-1.8 1.6zm6.1 1.5h2.5v-8.7h-2.5zm1.2-9.9c0.8 0 1.4-0.5 1.4-1.2 0-0.7-0.6-1.2-1.4-1.2-0.7 0-1.3 0.5-1.3 1.2 0 0.7 0.6 1.2 1.3 1.2zm5.6-1.8h-2.4v11.7h2.4z"/>
		</g>
		<g id="HeadButton">
			<path id="Shape 8" class="s5" d="m76.5 23h223c9.1 0 16.5 7.4 16.5 16.5 0 9.1-7.4 16.5-16.5 16.5h-223c-9.1 0-16.5-7.4-16.5-16.5 0-9.1 7.4-16.5 16.5-16.5z"/>
			<path id="44 ontvangers geselecteerd" class="s4" aria-label="44 ontvangers geselecteerd"  d="m79.8 43h5.6v2h2.3v-2h1.4v-2h-1.4v-7.6h-3.1l-4.8 7.7zm5.6-2h-3.2v-0.1l3.1-4.9h0.1zm5.2 2h5.6v2.1h2.4v-2.1h1.4v-2h-1.4v-7.6h-3.1l-4.9 7.7zm5.6-2h-3.1v-0.1l3.1-4.8zm13.1 4.2c2.7 0 4.3-1.9 4.3-4.5 0-2.7-1.6-4.6-4.3-4.6-2.6 0-4.3 1.9-4.3 4.6 0 2.6 1.7 4.5 4.3 4.5zm0-1.9c-1.2 0-1.8-1.1-1.8-2.7 0-1.5 0.6-2.6 1.8-2.6 1.2 0 1.8 1.1 1.8 2.6 0 1.6-0.6 2.7-1.8 2.7zm8.3-3.4c0-1.1 0.7-1.7 1.7-1.7 0.9 0 1.5 0.6 1.5 1.7v5.1h2.4v-5.6c0-2-1.2-3.3-3-3.3-1.3 0-2.2 0.7-2.6 1.7h-0.1v-1.5h-2.3v8.7h2.4zm12.2-3.7h-1.7v-2.1h-2.4v2.1h-1.2v1.8h1.2v4.6c0 1.7 1.2 2.5 2.9 2.5 0.7-0.1 1.1-0.2 1.3-0.3l-0.3-1.8c-0.2 0-0.4 0.1-0.6 0.1-0.5 0-0.9-0.2-0.9-0.8v-4.3h1.7zm9.7 0h-2.6l-1.8 6.3h-0.1l-1.8-6.3h-2.5l3 8.7h2.7zm3.5 8.9c1.3 0 2.1-0.5 2.6-1.3v1.2h2.3v-5.9c0-2.1-1.7-3-3.7-3-2.1 0-3.4 1-3.8 2.6l2.3 0.2c0.1-0.6 0.7-1 1.5-1 0.8 0 1.3 0.4 1.3 1.1v0.1c0 0.5-0.6 0.6-2.1 0.8-1.7 0.1-3.3 0.7-3.3 2.6 0 1.8 1.3 2.6 2.9 2.6zm0.7-1.6c-0.7 0-1.3-0.4-1.3-1 0-0.7 0.6-1.1 1.5-1.2 0.5-0.1 1.3-0.2 1.6-0.4v1c0 0.9-0.7 1.6-1.8 1.6zm8.5-3.6c0-1.1 0.7-1.8 1.7-1.8 1 0 1.5 0.7 1.5 1.8v5.1h2.5v-5.6c0-2-1.2-3.3-3-3.3-1.3 0-2.3 0.7-2.7 1.7h-0.1v-1.6h-2.3v8.8h2.4zm11.5 8.5c2.5 0 4.3-1.2 4.3-3.4v-8.8h-2.4v1.5h-0.1c-0.4-0.7-1.1-1.6-2.5-1.6-1.9 0-3.6 1.5-3.6 4.4 0 2.9 1.6 4.3 3.6 4.3 1.4 0 2.2-0.7 2.5-1.4h0.1v1.6c0 1.2-0.8 1.6-1.8 1.6-1.1 0-1.7-0.4-1.9-1l-2.2 0.3c0.3 1.4 1.6 2.5 4 2.5zm0-5.4c-1.1 0-1.8-1-1.8-2.5 0-1.5 0.6-2.5 1.8-2.5 1.2 0 1.9 1 1.9 2.5 0 1.6-0.7 2.5-1.9 2.5zm10.2 2.1c2.1 0 3.6-1.1 3.9-2.7l-2.2-0.1c-0.3 0.6-0.9 1-1.7 1-1.2 0-2-0.8-2-2.1h6v-0.7c0-3-1.8-4.4-4.1-4.4-2.6 0-4.3 1.8-4.3 4.5 0 2.8 1.7 4.5 4.4 4.5zm-2-5.4c0.1-1 0.8-1.8 1.9-1.8 1.1 0 1.8 0.7 1.8 1.8zm7.5 5.2h2.4v-4.9c0-1.1 0.8-1.8 1.9-1.8 0.3 0 0.8 0 1 0.1v-2.1c-0.2-0.1-0.5-0.1-0.7-0.1-1 0-1.8 0.5-2.1 1.6h-0.1v-1.5h-2.4zm13.8-6.2c-0.2-1.7-1.5-2.6-3.7-2.6-2.2 0-3.7 1-3.7 2.7 0 1.3 0.8 2.1 2.5 2.5l1.5 0.3c0.8 0.1 1.2 0.4 1.2 0.8 0 0.6-0.6 0.9-1.5 0.9-0.8 0-1.4-0.3-1.5-1.1l-2.4 0.2c0.2 1.6 1.6 2.7 3.9 2.7 2.3 0 3.9-1.2 3.9-2.9 0-1.3-0.8-2-2.5-2.4l-1.6-0.3c-0.8-0.2-1.1-0.4-1.1-0.9 0-0.5 0.6-0.8 1.3-0.8 0.9 0 1.4 0.4 1.5 1zm9.4 9.7c2.5 0 4.2-1.1 4.2-3.4v-8.8h-2.4v1.5c-0.4-0.7-1.1-1.6-2.5-1.6-2 0-3.6 1.5-3.6 4.5 0 2.9 1.6 4.2 3.6 4.2 1.4 0 2.1-0.7 2.5-1.4h0.1v1.6c0 1.2-0.8 1.6-1.9 1.6-1 0-1.6-0.4-1.8-0.9l-2.2 0.3c0.3 1.3 1.6 2.4 4 2.4zm0-5.4c-1.2 0-1.8-1-1.8-2.5 0-1.4 0.6-2.5 1.8-2.5 1.2 0 1.9 1 1.9 2.5 0 1.6-0.7 2.5-1.9 2.5zm10.2 2.1c2.1 0 3.6-1 3.9-2.7l-2.2-0.1c-0.3 0.6-0.9 1-1.7 1-1.2 0-2-0.8-2-2.1h6v-0.7c0-2.9-1.8-4.4-4.1-4.4-2.6 0-4.3 1.8-4.3 4.5 0 2.8 1.7 4.5 4.4 4.5zm-2-5.4c0.1-1 0.8-1.8 1.9-1.8 1 0 1.8 0.7 1.8 1.8zm14.8-1c-0.3-1.6-1.5-2.6-3.8-2.6-2.2 0-3.7 1-3.6 2.7-0.1 1.3 0.8 2.2 2.5 2.5l1.5 0.3c0.7 0.2 1.1 0.4 1.1 0.9 0 0.5-0.6 0.9-1.4 0.9-0.9 0-1.5-0.4-1.6-1.1l-2.4 0.1c0.2 1.7 1.7 2.7 4 2.7 2.2 0 3.9-1.2 3.9-2.9 0-1.2-0.9-2-2.6-2.3l-1.5-0.4c-0.9-0.1-1.2-0.4-1.1-0.8-0.1-0.6 0.5-0.9 1.3-0.9 0.8 0 1.3 0.5 1.4 1zm5.8 6.4c2.1 0 3.6-1 3.9-2.6l-2.2-0.2c-0.3 0.7-0.9 1-1.7 1-1.2 0-2-0.8-2-2.1h6v-0.6c0-3-1.8-4.5-4.1-4.5-2.6 0-4.3 1.9-4.3 4.5 0 2.8 1.7 4.5 4.4 4.5zm-2-5.4c0.1-1 0.8-1.8 1.9-1.8 1 0 1.8 0.8 1.8 1.8zm9.9-6.4h-2.4v11.7h2.4zm5.9 11.8c2.2 0 3.6-1.1 4-2.7l-2.3-0.1c-0.2 0.6-0.8 1-1.6 1-1.2 0-2-0.8-2-2.1h5.9v-0.7c0-3-1.8-4.4-4.1-4.4-2.5 0-4.2 1.8-4.2 4.5 0 2.7 1.6 4.5 4.3 4.5zm-1.9-5.4c0-1 0.8-1.8 1.9-1.8 1 0 1.8 0.7 1.8 1.8zm11.4 5.4c2.3 0 3.8-1.4 3.9-3.4h-2.3c-0.1 0.9-0.7 1.5-1.5 1.5-1.2 0-1.9-1-1.9-2.7 0-1.6 0.7-2.5 1.9-2.5 0.8 0 1.4 0.5 1.5 1.4h2.3c-0.1-2-1.6-3.3-3.9-3.3-2.6 0-4.3 1.8-4.3 4.5 0 2.6 1.6 4.5 4.3 4.5zm10.1-8.9h-1.6v-2.1h-2.4v2.1h-1.2v1.8h1.2v4.5c-0.1 1.8 1.1 2.6 2.9 2.5 0.6 0 1-0.1 1.3-0.2l-0.4-1.8c-0.1 0-0.4 0.1-0.6 0.1-0.5 0-0.8-0.2-0.8-0.9v-4.2h1.6zm5.5 8.9c2.1 0 3.6-1.1 3.9-2.7l-2.2-0.1c-0.2 0.6-0.9 1-1.7 1-1.2 0-2-0.8-2-2.1h6v-0.7c0-3-1.8-4.4-4.1-4.4-2.6 0-4.2 1.8-4.2 4.5 0 2.8 1.6 4.5 4.3 4.5zm-2-5.4c0.1-1 0.9-1.8 1.9-1.8 1.1 0 1.8 0.7 1.8 1.8zm11.5 5.4c2.2 0 3.6-1.1 4-2.7l-2.3-0.1c-0.2 0.6-0.8 1-1.7 1-1.2 0-1.9-0.8-1.9-2.1h5.9v-0.7c0-3-1.8-4.4-4.1-4.4-2.6 0-4.2 1.8-4.2 4.5 0 2.8 1.6 4.5 4.3 4.5zm-1.9-5.4c0-1 0.8-1.8 1.9-1.8 1 0 1.7 0.7 1.7 1.8zm7.6 5.2h2.4v-4.9c0-1.1 0.8-1.8 1.8-1.8 0.4 0 0.8 0 1.1 0.1v-2.1c-0.3-0.1-0.6-0.1-0.8-0.1-1 0-1.8 0.5-2.1 1.6h-0.1v-1.5h-2.3zm9.3 0.1c1.4 0 2.1-0.8 2.5-1.5h0.1v1.4h2.4v-11.6h-2.4v4.3h-0.1c-0.3-0.7-1-1.5-2.5-1.5-1.9 0-3.5 1.4-3.5 4.4 0 3 1.5 4.5 3.5 4.5zm0.8-1.9c-1.2 0-1.9-1-1.9-2.6 0-1.5 0.7-2.5 1.9-2.5 1.1 0 1.8 1 1.8 2.5 0 1.6-0.7 2.6-1.8 2.6z"/>
		</g>
	</g>
</svg>