<svg width="138" height="34" viewBox="0 0 138 34" fill="none" xmlns="http://www.w3.org/2000/svg">
<path d="M36.2436 10.2495H50.193V12.8425H44.7081V27.419H41.692V12.8425H36.2314V10.2495H36.2436ZM49.5971 14.9872H52.1753V17.3863H52.224C52.3091 17.047 52.4672 16.7199 52.6983 16.4048C52.9294 16.0898 53.2091 15.7869 53.5374 15.5324C53.8658 15.2659 54.2307 15.0599 54.632 14.8902C55.0333 14.7327 55.4468 14.6479 55.8603 14.6479C56.1765 14.6479 56.4076 14.66 56.5292 14.6721C56.6508 14.6843 56.7724 14.7085 56.9062 14.7206V17.3621C56.7116 17.3257 56.517 17.3015 56.3103 17.2772C56.1035 17.253 55.909 17.2409 55.7144 17.2409C55.2522 17.2409 54.8144 17.3378 54.4009 17.5196C53.9874 17.7013 53.6347 17.98 53.3307 18.3314C53.0267 18.6949 52.7834 19.1311 52.601 19.6642C52.4186 20.1974 52.3334 20.8032 52.3334 21.4939V27.4069H49.5849V14.9872L49.5971 14.9872ZM69.5421 27.419H66.8423V25.6863H66.7936C66.4531 26.3163 65.9545 26.8131 65.2856 27.1888C64.6167 27.5644 63.9356 27.7582 63.2424 27.7582C61.6006 27.7582 60.4088 27.3584 59.6791 26.5466C58.9494 25.7347 58.5845 24.511 58.5845 22.8752V14.9872H61.333V22.6086C61.333 23.6991 61.5398 24.4746 61.9655 24.9229C62.3789 25.3712 62.9749 25.6015 63.7289 25.6015C64.3126 25.6015 64.787 25.5166 65.1761 25.3349C65.5653 25.1531 65.8815 24.9229 66.1126 24.62C66.3558 24.3292 66.5261 23.9657 66.6355 23.5537C66.745 23.1418 66.7936 22.6934 66.7936 22.2088V14.9993H69.5421V27.419ZM74.2244 23.4326C74.3095 24.2323 74.6135 24.7896 75.1365 25.1168C75.6716 25.4318 76.304 25.6015 77.0459 25.6015C77.3013 25.6015 77.5931 25.5772 77.9215 25.5409C78.2499 25.5045 78.5661 25.4197 78.8458 25.3107C79.1377 25.2016 79.3687 25.032 79.5633 24.8139C79.7458 24.5958 79.8309 24.3171 79.8187 23.9657C79.8066 23.6143 79.6728 23.3235 79.4296 23.1054C79.1863 22.8752 78.8823 22.7056 78.5053 22.5602C78.1283 22.4269 77.7026 22.3057 77.2161 22.2088C76.7297 22.1118 76.2432 22.0028 75.7446 21.8937C75.2338 21.7847 74.7352 21.6393 74.2609 21.4818C73.7866 21.3242 73.3609 21.1061 72.9839 20.8275C72.6069 20.5609 72.3028 20.2095 72.0839 19.7854C71.8529 19.3613 71.7434 18.8403 71.7434 18.2102C71.7434 17.5317 71.9137 16.9743 72.242 16.5139C72.5704 16.0534 72.9961 15.6899 73.4947 15.4113C74.0055 15.1326 74.5649 14.9387 75.1851 14.8175C75.8054 14.7085 76.4013 14.6479 76.9607 14.6479C77.6053 14.6479 78.2255 14.7206 78.8093 14.8539C79.3931 14.9872 79.9282 15.2053 80.4025 15.5203C80.8768 15.8232 81.266 16.2231 81.5822 16.7078C81.8984 17.1924 82.0929 17.7861 82.1781 18.4768H79.3079C79.1742 17.8225 78.8823 17.3742 78.408 17.1561C77.9337 16.9259 77.3864 16.8168 76.7783 16.8168C76.5837 16.8168 76.3527 16.8289 76.0851 16.8653C75.8175 16.9016 75.5743 16.9622 75.3311 17.047C75.1 17.1318 74.9054 17.2651 74.7352 17.4348C74.5771 17.6044 74.4919 17.8225 74.4919 18.1012C74.4919 18.4405 74.6135 18.707 74.8446 18.913C75.0757 19.119 75.3797 19.2886 75.7567 19.434C76.1337 19.5673 76.5594 19.6885 77.0459 19.7854C77.5323 19.8823 78.031 19.9914 78.5417 20.1004C79.0404 20.2095 79.5268 20.3549 80.0133 20.5124C80.4998 20.6699 80.9254 20.888 81.3024 21.1667C81.6795 21.4454 81.9835 21.7847 82.2146 22.1966C82.4456 22.6086 82.5672 23.1296 82.5672 23.7355C82.5672 24.4746 82.397 25.0926 82.0565 25.6136C81.7159 26.1225 81.2781 26.5466 80.743 26.8616C80.2079 27.1766 79.5998 27.419 78.9431 27.5644C78.2864 27.7098 77.6296 27.7825 76.9851 27.7825C76.1946 27.7825 75.4649 27.6977 74.796 27.5159C74.1271 27.3342 73.5433 27.0676 73.0569 26.7162C72.5704 26.3527 72.1812 25.9044 71.9015 25.3712C71.6218 24.8381 71.4758 24.1959 71.4515 23.4568H74.2244V23.4326ZM83.297 14.9872H85.3766V11.2552H88.1251V14.9872H90.6061V17.0349H88.1251V23.6749C88.1251 23.9657 88.1373 24.208 88.1616 24.4261C88.1859 24.6321 88.2467 24.8139 88.3319 24.9593C88.417 25.1047 88.5508 25.2137 88.7332 25.2864C88.9156 25.3591 89.1467 25.3955 89.4629 25.3955C89.6575 25.3955 89.8521 25.3955 90.0467 25.3834C90.2412 25.3712 90.4358 25.347 90.6304 25.2985V27.419C90.3264 27.4553 90.0223 27.4796 89.7426 27.5159C89.4507 27.5523 89.1589 27.5644 88.8548 27.5644C88.1251 27.5644 87.5414 27.4917 87.1035 27.3584C86.6657 27.2251 86.313 27.0191 86.0698 26.7526C85.8144 26.486 85.6563 26.1588 85.559 25.759C85.4739 25.3591 85.4131 24.8987 85.4009 24.3898V17.0591H83.3213V14.9872H83.297ZM92.5519 14.9872H95.1545V16.6714H95.2032C95.5924 15.9444 96.1275 15.4355 96.8207 15.1205C97.5139 14.8054 98.2557 14.6479 99.0706 14.6479C100.056 14.6479 100.907 14.8175 101.637 15.1689C102.366 15.5082 102.974 15.9807 103.461 16.5866C103.947 17.1924 104.3 17.8952 104.543 18.6949C104.787 19.4946 104.908 20.3549 104.908 21.2637C104.908 22.0997 104.799 22.9115 104.58 23.687C104.361 24.4746 104.033 25.1653 103.595 25.7711C103.157 26.3769 102.597 26.8495 101.916 27.213C101.235 27.5765 100.445 27.7582 99.5206 27.7582C99.1192 27.7582 98.7179 27.7219 98.3166 27.6492C97.9152 27.5765 97.5261 27.4553 97.1612 27.2978C96.7964 27.1403 96.4437 26.9343 96.1396 26.6799C95.8234 26.4254 95.568 26.1346 95.3491 25.8074H95.3005V32.0112H92.5519V14.9872ZM102.16 21.2152C102.16 20.6578 102.087 20.1126 101.941 19.5794C101.795 19.0463 101.576 18.5859 101.284 18.1739C100.992 17.7619 100.627 17.4348 100.202 17.1924C99.7638 16.9501 99.2652 16.8168 98.7057 16.8168C97.5504 16.8168 96.6747 17.2167 96.091 18.0164C95.5072 18.8161 95.2153 19.8823 95.2153 21.2152C95.2153 21.8453 95.2883 22.4269 95.4464 22.96C95.6045 23.4931 95.8234 23.9536 96.1396 24.3413C96.4437 24.7291 96.8085 25.032 97.2342 25.2501C97.6598 25.4803 98.1585 25.5893 98.7179 25.5893C99.3503 25.5893 99.8732 25.4561 100.311 25.2016C100.749 24.9472 101.102 24.6079 101.381 24.208C101.661 23.7961 101.868 23.3356 101.989 22.8146C102.099 22.2936 102.16 21.7604 102.16 21.2152ZM107.012 10.2495H109.761V12.8425H107.012V10.2495ZM107.012 14.9872H109.761V27.419H107.012V14.9872ZM112.217 10.2495H114.966V27.419H112.217V10.2495ZM123.394 27.7582C122.397 27.7582 121.509 27.5886 120.73 27.2615C119.952 26.9343 119.295 26.4739 118.748 25.9044C118.213 25.3228 117.799 24.6321 117.52 23.8324C117.24 23.0327 117.094 22.1482 117.094 21.191C117.094 20.2458 117.24 19.3734 117.52 18.5737C117.799 17.774 118.213 17.0834 118.748 16.5018C119.283 15.9202 119.952 15.4718 120.73 15.1447C121.509 14.8175 122.397 14.6479 123.394 14.6479C124.391 14.6479 125.279 14.8175 126.057 15.1447C126.836 15.4718 127.492 15.9323 128.04 16.5018C128.575 17.0834 128.988 17.774 129.268 18.5737C129.548 19.3734 129.694 20.2458 129.694 21.191C129.694 22.1482 129.548 23.0327 129.268 23.8324C128.988 24.6321 128.575 25.3228 128.04 25.9044C127.504 26.486 126.836 26.9343 126.057 27.2615C125.279 27.5886 124.391 27.7582 123.394 27.7582ZM123.394 25.5893C124.002 25.5893 124.537 25.4561 124.987 25.2016C125.437 24.9472 125.802 24.6079 126.094 24.1959C126.386 23.7839 126.592 23.3114 126.738 22.7904C126.872 22.2693 126.945 21.7362 126.945 21.191C126.945 20.6578 126.872 20.1368 126.738 19.6037C126.605 19.0705 126.386 18.6101 126.094 18.1981C125.802 17.7861 125.437 17.459 124.987 17.2045C124.537 16.9501 124.002 16.8168 123.394 16.8168C122.786 16.8168 122.251 16.9501 121.801 17.2045C121.351 17.459 120.986 17.7983 120.694 18.1981C120.402 18.6101 120.195 19.0705 120.049 19.6037C119.916 20.1368 119.843 20.6578 119.843 21.191C119.843 21.7362 119.916 22.2693 120.049 22.7904C120.183 23.3114 120.402 23.7839 120.694 24.1959C120.986 24.6079 121.351 24.9472 121.801 25.2016C122.251 25.4682 122.786 25.5893 123.394 25.5893ZM130.496 14.9872H132.576V11.2552H135.324V14.9872H137.805V17.0349H135.324V23.6749C135.324 23.9657 135.337 24.208 135.361 24.4261C135.385 24.6321 135.446 24.8139 135.531 24.9593C135.616 25.1047 135.75 25.2137 135.932 25.2864C136.115 25.3591 136.346 25.3955 136.662 25.3955C136.857 25.3955 137.051 25.3955 137.246 25.3834C137.441 25.3712 137.635 25.347 137.83 25.2985V27.419C137.526 27.4553 137.222 27.4796 136.942 27.5159C136.65 27.5523 136.358 27.5644 136.054 27.5644C135.324 27.5644 134.741 27.4917 134.303 27.3584C133.865 27.2251 133.512 27.0191 133.269 26.7526C133.014 26.486 132.856 26.1588 132.758 25.759C132.673 25.3591 132.612 24.8987 132.6 24.3898V17.0591H130.521V14.9872L130.496 14.9872Z" fill="#1D1F2C"/>
<path d="M33.0345 13.5541H20.4351L16.5434 1.60693L12.6395 13.5541L0.0400391 13.542L10.2436 20.9332L6.33976 32.8682L16.5434 25.4891L26.7348 32.8682L22.8431 20.9332L33.0345 13.5541Z" fill="#00B67A"/>
<path d="M23.7183 18.1374L22.8427 15.4351L16.543 19.9914L23.7183 18.1374Z" fill="#005128"/>
</svg>
