<svg width="215" height="34" viewBox="0 0 215 34" fill="none" xmlns="http://www.w3.org/2000/svg">
<g clip-path="url(#clip0_2_441)">
<path d="M0 34H33.9474V0H0V34Z" fill="#00B67A"/>
<path d="M28.9382 14.4635L9.6836 28.4725L12.4932 19.8144L5.13849 14.4635H14.2293L17.0383 5.80493L19.8473 14.4635H28.9382ZM17.039 23.1222L22.2975 22.0143L24.3926 28.4725L17.039 23.1222Z" fill="white"/>
<path d="M45.2627 34H79.2101V0H45.2627V34Z" fill="#00B67A"/>
<path d="M74.2009 14.4635L54.9463 28.4725L57.7559 19.8144L50.4012 14.4635H59.492L62.301 5.80493L65.11 14.4635H74.2009ZM62.3017 23.1222L67.5602 22.0143L69.6553 28.4725L62.3017 23.1222Z" fill="white"/>
<path d="M90.5263 34H124.474V0H90.5263V34Z" fill="#00B67A"/>
<path d="M119.465 14.4635L100.21 28.4725L103.02 19.8144L95.6649 14.4635H104.756L107.565 5.80493L110.374 14.4635H119.465ZM107.565 23.1222L112.824 22.0143L114.919 28.4725L107.565 23.1222Z" fill="white"/>
<path d="M135.789 34H169.736V0H135.789V34Z" fill="#00B67A"/>
<path d="M164.727 14.4635L145.473 28.4725L148.282 19.8144L140.928 14.4635H150.018L152.827 5.80493L155.636 14.4635H164.727ZM152.828 23.1222L158.087 22.0143L160.182 28.4725L152.828 23.1222Z" fill="white"/>
<path d="M181.053 34H215V0H181.053V34Z" fill="#00B67A"/>
<path d="M209.991 14.4635L190.736 28.4725L193.546 19.8144L186.191 14.4635H195.282L198.091 5.80493L200.9 14.4635H209.991ZM198.092 23.1222L203.35 22.0143L205.445 28.4725L198.092 23.1222Z" fill="white"/>
</g>
<defs>
<clipPath id="clip0_2_441">
<rect width="215" height="34" fill="white"/>
</clipPath>
</defs>
</svg>
