<svg width="80" height="80" viewBox="0 0 80 80" fill="none" xmlns="http://www.w3.org/2000/svg">
<path d="M75.7334 12.2C76.3334 11.0666 76.6668 9.73339 76.6668 8.33339C76.6666 3.73339 72.9334 0 68.3334 0C63.7334 0 60 3.73339 60 8.33339C60 12.9334 63.7334 16.6668 68.3334 16.6668C69.7334 16.6668 71.0668 16.3334 72.2 15.7334L75.7334 19.2668C76.22 19.7569 76.86 20.0002 77.5 20.0002C78.14 20.0002 78.78 19.7569 79.2666 19.2668C80.2433 18.2901 80.2433 16.7068 79.2666 15.7301L75.7334 12.2ZM65 8.33339C65 6.5 66.5 5 68.3334 5C70.1668 5 71.6668 6.5 71.6668 8.33339C71.6668 10.1668 70.1668 11.6668 68.3334 11.6668C66.5 11.6666 65 10.1666 65 8.33339ZM5.83339 20H47.5C50.7 20 53.3334 17.3666 53.3334 14.1666V5.83339C53.3334 2.63339 50.7 0 47.5 0H5.83339C2.63339 0 0 2.63339 0 5.83339V14.1668C0 17.3666 2.63339 20 5.83339 20ZM74.1666 26.6666H32.5C29.3 26.6666 26.6666 29.3 26.6666 32.5V74.1666C26.6666 77.3666 29.3 80 32.5 80H74.1666C77.3666 80 80 77.3666 80 74.1666V32.5C80 29.3 77.3666 26.6666 74.1666 26.6666ZM53.3334 40C56.1 40 58.3334 42.2334 58.3334 45C58.3334 47.7666 56.1 50 53.3334 50C50.5668 50 48.3334 47.7666 48.3334 45C48.3334 42.2334 50.5666 40 53.3334 40ZM63.3334 60.8334C63.3334 62.2 62.2 63.3334 60.8334 63.3334H45.8334C44.4668 63.3334 43.3334 62.2 43.3334 60.8334V59.6C43.3334 56.1334 46.4668 53.3334 50.3334 53.3334H56.3334C60.2 53.3334 63.3334 56.1334 63.3334 59.6V60.8334Z" fill="#145EE1"/>
<path d="M10 78.333C15.5228 78.333 20 73.8559 20 68.333C20 62.8102 15.5228 58.333 10 58.333C4.47715 58.333 0 62.8102 0 68.333C0 73.8559 4.47715 78.333 10 78.333Z" fill="#145EE1"/>
<path d="M2.5 41.667H17.5C18.88 41.667 20 40.547 20 39.167C20 37.787 18.88 36.667 17.5 36.667H2.5C1.12 36.667 0 37.787 0 39.167C0 40.547 1.12 41.667 2.5 41.667ZM2.5 51.667H17.5C18.88 51.667 20 50.547 20 49.167C20 47.787 18.88 46.667 17.5 46.667H2.5C1.12 46.667 0 47.787 0 49.167C0 50.547 1.12 51.667 2.5 51.667ZM2.5 31.667H17.5C18.88 31.667 20 30.547 20 29.167C20 27.787 18.88 26.667 17.5 26.667H2.5C1.12 26.667 0 27.787 0 29.167C0 30.547 1.12 31.667 2.5 31.667Z" fill="#145EE1"/>
</svg>
