<svg width="78" height="90" viewBox="0 0 78 90" fill="none" xmlns="http://www.w3.org/2000/svg">
<g clip-path="url(#clip0_2_953)">
<path d="M39.0704 27.8534C29.6146 27.8534 21.922 35.5459 21.922 45.0009C21.922 54.4568 29.6146 62.1492 39.0704 62.1492C48.5256 62.1492 56.2178 54.4568 56.2178 45.001C56.2178 35.5458 48.5256 27.8534 39.0704 27.8534ZM49.2513 41.7718L36.9664 54.0564C36.7214 54.3021 36.4303 54.4969 36.1098 54.6297C35.7893 54.7625 35.4457 54.8307 35.0988 54.8304C34.7519 54.8308 34.4084 54.7627 34.088 54.6299C33.7677 54.497 33.4767 54.3021 33.232 54.0564L28.5372 49.3618C27.5059 48.3312 27.5059 46.6592 28.5372 45.6279C29.5678 44.5966 31.2398 44.5966 32.2711 45.6279L35.0988 48.4555L45.5173 38.0378C46.5479 37.0063 48.2199 37.0063 49.2513 38.0378C50.2826 39.0684 50.2826 40.7404 49.2513 41.7718Z" fill="#145EE1"/>
<path d="M77.3006 24.4191L77.2979 24.3492C77.257 23.4174 77.23 22.4851 77.2169 21.5525C77.1434 16.59 73.1986 12.4852 68.2356 12.208C57.8879 11.6304 49.883 8.25626 43.0433 1.5896L42.985 1.53405C40.754 -0.511513 37.3888 -0.511513 35.1571 1.53405L35.0987 1.5896C28.2591 8.25626 20.2542 11.6304 9.90653 12.2085C4.94423 12.4852 0.998656 16.5902 0.92518 21.553C0.912283 22.4854 0.885327 23.4176 0.84432 24.3492L0.840102 24.5118C0.638833 35.0636 0.388872 48.1956 4.78199 60.115C7.19775 66.6698 10.8561 72.3674 15.6551 77.0511C21.1208 82.385 28.2797 86.6196 36.9328 89.6367C37.2177 89.7357 37.509 89.8151 37.8047 89.8741C38.225 89.958 38.6481 89.9998 39.071 89.9998C39.494 89.9998 39.9176 89.958 40.3372 89.8741C40.6341 89.8147 40.9266 89.7348 41.2126 89.6351C49.8554 86.6125 57.0068 82.376 62.4677 77.0428C67.2647 72.3579 70.9231 66.6588 73.3408 60.1027C77.7504 48.1475 77.5011 34.9906 77.3006 24.4191ZM39.0696 67.4304C26.7017 67.4304 16.6403 57.3691 16.6403 45.0013C16.6403 32.6334 26.7019 22.572 39.0696 22.572C51.4369 22.572 61.4989 32.6334 61.4989 45.0013C61.4989 57.3693 51.4369 67.4304 39.0696 67.4304Z" fill="#145EE1"/>
</g>
<defs>
<clipPath id="clip0_2_953">
<rect width="76.5" height="90" fill="white" transform="translate(0.75)"/>
</clipPath>
</defs>
</svg>
