<svg width="100" height="100" viewBox="0 0 100 100" fill="none" xmlns="http://www.w3.org/2000/svg">
<path d="M85.4484 39.9383C84.6787 37.1965 83.5843 34.5566 82.1885 32.0744C81.8002 31.384 81.9098 30.5215 82.4699 29.9613L88.6973 23.734C90.1781 22.2531 90.1781 19.8521 88.6973 18.3713L81.6287 11.3027C80.1479 9.82187 77.7469 9.82187 76.266 11.3027L70.0387 17.5301C69.4785 18.0902 68.616 18.1998 67.9254 17.8115C65.4433 16.4157 62.8034 15.3213 60.0617 14.5516C59.3008 14.3383 58.7719 13.65 58.7719 12.8598V3.79199C58.7719 1.69766 57.0742 0 54.9799 0H45.0199C42.9256 0 41.2279 1.69766 41.2279 3.79199V12.8598C41.2279 13.6518 40.6957 14.3391 39.933 14.5531C37.1886 15.324 34.5462 16.4202 32.0621 17.8186C31.7284 18.0063 31.3425 18.0797 30.9631 18.0277C30.5838 17.9756 30.2319 17.8009 29.9611 17.5303L23.734 11.3027C22.2531 9.82187 19.8521 9.82187 18.3713 11.3027L11.3027 18.3713C9.82187 19.8521 9.82187 22.2529 11.3027 23.7338L17.5301 29.9611C17.8008 30.2319 17.9755 30.5837 18.0275 30.963C18.0796 31.3423 18.0061 31.7283 17.8184 32.0619C16.4201 34.5462 15.3238 37.1887 14.5527 39.9332C14.3389 40.6957 13.6516 41.2279 12.8596 41.2279H3.79199C1.69766 41.2281 0 42.9258 0 45.0201V54.9801C0 57.0744 1.69766 58.7721 3.79199 58.7721H12.8596C13.6516 58.7721 14.3387 59.3043 14.5527 60.0668C15.3238 62.8113 16.4201 65.4538 17.8184 67.9381C18.0061 68.2718 18.0795 68.6577 18.0274 69.0369C17.9754 69.4162 17.8007 69.7681 17.5301 70.0389L11.3027 76.266C9.82187 77.7469 9.82187 80.1478 11.3027 81.6285L18.3713 88.6971C19.8521 90.1779 22.2531 90.1779 23.734 88.6971L29.9613 82.4697C30.2321 82.1989 30.5839 82.0242 30.9633 81.9721C31.3426 81.92 31.7286 81.9935 32.0623 82.1813C34.5465 83.5795 37.189 84.6758 39.9334 85.4469C40.6959 85.6607 41.2281 86.348 41.2281 87.14V96.2076C41.2281 98.302 42.9258 99.9996 45.0201 99.9996H54.9801C57.0744 99.9996 58.7721 98.302 58.7721 96.2076V87.14C58.7721 86.3498 59.3008 85.6617 60.0617 85.4484C62.8052 84.6781 65.4469 83.5827 67.9305 82.1855C68.6193 81.7982 69.4801 81.9109 70.0389 82.4697L76.2662 88.6971C77.7471 90.1779 80.148 90.1779 81.6287 88.6971L88.6973 81.6285C90.1781 80.1477 90.1781 77.7467 88.6973 76.2658L82.4699 70.0387C81.9098 69.4785 81.8002 68.616 82.1885 67.9254C83.5843 65.4433 84.6787 62.8034 85.4484 60.0617C85.6617 59.3008 86.35 58.7719 87.1402 58.7719H96.208C98.3023 58.7719 100 57.0742 100 54.9799V45.0199C100 42.9256 98.3023 41.2279 96.208 41.2279H87.1402C86.35 41.2281 85.6617 40.6992 85.4484 39.9383ZM71.0525 35.0877H66.0762C69.7986 39.1041 71.9297 44.4164 71.9297 50C71.9297 62.0922 62.092 71.9299 49.9998 71.9299C37.9076 71.9299 28.0701 62.0922 28.0701 50C28.0701 37.9078 37.9078 28.0703 50 28.0703C50.4621 28.0752 50.9036 28.2622 51.2286 28.5907C51.5537 28.9191 51.736 29.3626 51.736 29.8247C51.736 30.2868 51.5537 30.7303 51.2286 31.0588C50.9036 31.3872 50.4621 31.5742 50 31.5791C39.8424 31.5791 31.5789 39.8428 31.5789 50.0002C31.5789 60.1576 39.8426 68.4213 50 68.4213C60.1572 68.4213 68.4209 60.1576 68.4209 50.0002C68.4209 45.1402 66.4982 40.525 63.1578 37.1113V42.873C63.1578 43.3383 62.973 43.7846 62.644 44.1136C62.315 44.4426 61.8687 44.6274 61.4034 44.6274C60.9381 44.6274 60.4919 44.4426 60.1629 44.1136C59.8339 43.7846 59.649 43.3383 59.649 42.873V33.3336C59.649 32.8683 59.8339 32.422 60.1629 32.093C60.4919 31.7639 60.9382 31.5791 61.4035 31.5791H71.0525C71.5133 31.586 71.9528 31.7738 72.2762 32.1021C72.5996 32.4303 72.7809 32.8726 72.7809 33.3334C72.7809 33.7942 72.5996 34.2365 72.2762 34.5647C71.9528 34.893 71.5133 35.0808 71.0525 35.0877Z" fill="#145EE1"/>
</svg>
