<svg version="1.2" xmlns="http://www.w3.org/2000/svg" viewBox="0 0 500 300" width="500" height="300">
	<title>FAP  7 IMAGE 2</title>
	<defs>
		<filter x="-50%" y="-50%" width="200%" height="200%" id="f1" ><feDropShadow dx="0" dy="0" stdDeviation="5.416666666666667" flood-color="#000000" flood-opacity=".4"/></filter>
		<filter x="-50%" y="-50%" width="200%" height="200%" id="f2" ><feDropShadow dx="0" dy="0" stdDeviation="5.416666666666667" flood-color="#000000" flood-opacity=".4"/></filter>
	</defs>
	<style>
		.s0 { filter: url(#f1);fill: #f2f2f2;stroke: #808080;stroke-miterlimit:100 } 
		.s1 { fill: #000000 } 
		.s2 { filter: url(#f2);fill: #0664bc } 
		.s3 { fill: #ffffff } 
	</style>
	<rect width="500" height="300" id="Background" style="fill: #ffffff"/>
	<g id="Facnr1 copy 3">
		<g id="Retourapportage copy 3">
			<path id="Shape 4" class="s0" d="m144.5 120h184.5c5.5 0 10 4.5 10 10v16.1c0 5.5-4.5 10-10 10h-184.5c-5.5 0-10-4.5-10-10v-16.1c0-5.5 4.5-10 10-10z"/>
			<path id="Maandelijkse facturen" class="s1" aria-label="Maandelijkse facturen"  d="m146.7 131.7v12.3h2.7v-7.6h0.1l2.7 7.5h1.8l2.7-7.4h0.1v7.5h2.7v-12.3h-3.4l-2.9 7.6h-0.2l-2.9-7.6zm17 12.5c1.2 0 2-0.5 2.4-1.5h0.1v1.3h2.6v-6.2c0-2-1.6-3.1-3.8-3.1-2.3 0-3.6 1.2-3.8 2.9l2.5 0.1c0.1-0.6 0.5-0.9 1.3-0.9 0.6 0 1.1 0.3 1.1 0.9v0.1c0 0.5-0.6 0.6-2.1 0.8-1.7 0.1-3.2 0.8-3.2 2.8 0 1.9 1.2 2.8 2.9 2.8zm0.8-2c-0.6 0-1.1-0.3-1.1-0.9 0-0.6 0.5-0.9 1.2-1.1 0.5 0 1.2-0.2 1.5-0.3v0.8c0 0.9-0.7 1.5-1.6 1.5zm8.4 2c1.2 0 2-0.5 2.4-1.5h0.1v1.3h2.6v-6.2c0-2-1.6-3.1-3.8-3.1-2.3 0-3.6 1.2-3.8 2.9l2.5 0.1c0.1-0.6 0.5-0.9 1.3-0.9 0.6 0 1.1 0.3 1.1 0.9v0.1c0 0.5-0.6 0.6-2.1 0.8-1.7 0.1-3.2 0.8-3.2 2.8 0 1.9 1.2 2.8 2.9 2.8zm0.8-2c-0.6 0-1.1-0.3-1.1-0.9 0-0.6 0.5-0.9 1.2-1.1 0.5 0 1.2-0.2 1.5-0.3v0.8c0 0.9-0.7 1.5-1.6 1.5zm8.7-3.4c0-1.1 0.5-1.7 1.4-1.7 0.9 0 1.4 0.6 1.4 1.6v5.3h2.7v-5.9c0-2-1.2-3.4-3-3.4-1.2 0-2.2 0.7-2.6 1.8h-0.1v-1.7h-2.6v9.2h2.8zm10.3 5.4c1.3 0 2.1-0.8 2.5-1.6v1.4h2.7v-12.2h-2.7v4.6c-0.4-0.8-1.1-1.7-2.5-1.7-1.8 0-3.4 1.5-3.4 4.8 0 3.1 1.6 4.7 3.4 4.7zm1-2.3c-1 0-1.6-1-1.6-2.5 0-1.4 0.6-2.4 1.6-2.4 1 0 1.6 0.9 1.6 2.4 0 1.5-0.6 2.5-1.6 2.5zm10 2.3c2.2 0 3.7-1.1 4-3h-2.5c-0.2 0.6-0.8 0.9-1.5 0.9-1 0-1.7-0.7-1.7-1.9h5.7v-0.8c0-3-1.7-4.7-4.1-4.7-2.6 0-4.3 1.9-4.3 4.8 0 2.9 1.7 4.7 4.4 4.7zm-1.7-5.7c0.1-1 0.7-1.7 1.6-1.7 0.9 0 1.6 0.7 1.6 1.7zm9.8-6.7h-2.7v12.2h2.7zm1.8 12.3h2.7v-9.2h-2.7zm1.3-10.3c0.8 0 1.4-0.6 1.4-1.4 0-0.7-0.6-1.4-1.4-1.4-0.7 0-1.4 0.7-1.4 1.4 0 0.8 0.7 1.4 1.4 1.4zm3.1 1.1v9.5c0 0.6-0.2 0.9-1 0.9-0.1 0-0.2 0-0.3 0v2.2c0.2 0.1 0.4 0.1 0.6 0.1 2.1 0 3.5-0.8 3.5-3.1v-9.6zm1.3-1.1c0.8 0 1.4-0.6 1.4-1.4 0-0.7-0.6-1.4-1.4-1.4-0.7 0-1.4 0.7-1.4 1.4 0 0.8 0.7 1.4 1.4 1.4zm3.1 10.3h2.7v-2.8l0.6-0.7 2 3.5h3.2l-3.2-5.2 3.1-4h-3.1l-2.4 3.3h-0.2v-6.4h-2.7zm16.8-6.3c-0.1-1.9-1.5-3-3.8-3-2.3 0-3.8 1.1-3.8 3 0 1.4 0.8 2.3 2.5 2.6l1.5 0.3c0.7 0.2 1.1 0.4 1.1 0.8 0 0.5-0.5 0.8-1.2 0.8-0.8 0-1.3-0.4-1.4-1h-2.7c0.2 1.9 1.6 3 4.1 3 2.3 0 3.9-1.2 3.9-3.1 0-1.3-0.8-2.1-2.5-2.5l-1.6-0.3c-0.8-0.2-1-0.5-1-0.8 0-0.5 0.5-0.8 1.1-0.8 0.8 0 1.3 0.5 1.3 1zm5.6 6.6c2.2 0 3.7-1.2 4-3l-2.5-0.1c-0.2 0.7-0.7 1-1.5 1-1 0-1.7-0.8-1.7-1.9v-0.1h5.8v-0.7c0-3-1.8-4.7-4.2-4.7-2.6 0-4.2 1.9-4.2 4.8 0 2.9 1.6 4.7 4.3 4.7zm-1.7-5.8c0.1-0.9 0.8-1.6 1.7-1.6 0.9 0 1.5 0.7 1.5 1.6zm15.4-3.6h-1.6v-0.5c0-0.5 0.2-0.8 0.8-0.8 0.2 0 0.6 0 0.8 0.1l0.4-2.2c-0.3-0.1-1.1-0.2-1.8-0.2-1.8 0-3 1-3 3.2v0.4h-1.1v2.2h1.1v7h2.8v-7h1.6zm3.4 9.3c1.2 0 2-0.5 2.5-1.4v1.3h2.6v-6.3c0-1.9-1.6-3-3.8-3-2.3 0-3.6 1.2-3.8 2.9l2.5 0.1c0.1-0.6 0.6-1 1.3-1 0.7 0 1.1 0.4 1.1 1 0 0.6-0.6 0.7-2 0.8-1.8 0.2-3.2 0.9-3.2 2.9 0 1.8 1.1 2.7 2.8 2.7zm0.8-1.9c-0.6 0-1.1-0.3-1.1-0.9 0-0.6 0.5-1 1.3-1.1 0.5-0.1 1.1-0.2 1.4-0.4v0.9c0 0.9-0.7 1.5-1.6 1.5zm10 1.9c2.4 0 3.9-1.5 3.9-3.7h-2.5c-0.1 0.9-0.6 1.5-1.4 1.5-1 0-1.6-0.9-1.6-2.5 0-1.6 0.6-2.5 1.6-2.5 0.8 0 1.3 0.6 1.4 1.5h2.5c0-2.3-1.6-3.7-3.9-3.7-2.7 0-4.4 1.9-4.4 4.7 0 2.8 1.7 4.7 4.4 4.7zm10.2-9.3h-1.6v-2.2h-2.7v2.2h-1.1v2.1h1.1v4.5c0 1.9 1.1 2.8 3 2.7 0.7 0 1.2-0.2 1.4-0.3l-0.4-2.1c-0.1 0.1-0.4 0.1-0.6 0.1-0.4 0-0.7-0.2-0.7-0.7v-4.2h1.6zm6.9 5.3c0 1-0.6 1.6-1.4 1.6-0.9 0-1.4-0.6-1.4-1.6v-5.3h-2.7v5.9c0 2.1 1.2 3.5 2.9 3.5 1.3 0 2.3-0.8 2.6-1.9h0.1v1.7h2.6v-9.2h-2.7zm4.5 4h2.7v-5c0-1.1 0.7-1.8 1.7-1.8 0.3 0 0.8 0 1.1 0.1v-2.5c-0.3-0.1-0.5-0.1-0.8-0.1-0.9 0-1.7 0.6-2 1.8h-0.1v-1.7h-2.6zm10.1 0.2c2.3 0 3.8-1.2 4.1-3l-2.5-0.1c-0.2 0.6-0.8 1-1.5 1-1.1 0-1.7-0.8-1.7-1.9v-0.1h5.7v-0.7c0-3-1.7-4.7-4.1-4.7-2.6 0-4.3 1.9-4.3 4.7 0 3 1.7 4.8 4.3 4.8zm-1.6-5.8c0-0.9 0.7-1.6 1.6-1.6 0.9 0 1.6 0.7 1.6 1.6zm9.8 0.4c0-1.1 0.6-1.7 1.5-1.7 0.8 0 1.3 0.6 1.3 1.6v5.3h2.8v-5.9c0-2-1.2-3.4-3-3.4-1.3 0-2.2 0.7-2.6 1.8h-0.1v-1.7h-2.6v9.2h2.7z"/>
		</g>
	</g>
	<g id="Download copy 2">
		<path id="Shape 6" class="s2" d="m311.4 152h41.4c7.9 0 14.4 6.5 14.4 14.4 0 8-6.5 14.5-14.4 14.5h-41.4c-7.9 0-14.4-6.5-14.4-14.5 0-7.9 6.5-14.4 14.4-14.4z"/>
		<path id="Download" class="s3" aria-label="Download"  d="m309.6 169.4c2.3 0 3.7-1.4 3.7-3.8 0-2.4-1.4-3.8-3.7-3.8h-2.7v7.6zm-1.1-1.4v-4.8h1c1.4 0 2.2 0.7 2.2 2.4 0 1.7-0.8 2.4-2.2 2.4zm8.6 1.5c1.7 0 2.8-1.2 2.8-2.9 0-1.8-1.1-3-2.8-3-1.8 0-2.9 1.2-2.9 3 0 1.7 1.1 2.9 2.9 2.9zm0-1.2c-0.8 0-1.2-0.7-1.2-1.7 0-1 0.4-1.8 1.2-1.8 0.8 0 1.2 0.8 1.2 1.8 0 1-0.4 1.7-1.2 1.7zm4.8 1.1h1.7l1-3.6 1 3.6h1.7l1.6-5.7h-1.6l-0.9 3.8h-0.1l-0.9-3.8h-1.6l-0.9 3.8h-0.1l-0.8-3.8h-1.7zm9.4-3.3c0-0.8 0.5-1.2 1.1-1.2 0.7 0 1 0.4 1 1.1v3.4h1.6v-3.7c0-1.3-0.8-2.1-2-2.1-0.8 0-1.4 0.4-1.7 1.1v-1h-1.6v5.7h1.6zm6.6-4.3h-1.6v7.6h1.6zm3.8 7.7c1.8 0 2.8-1.1 2.8-2.9 0-1.8-1-3-2.8-3-1.7 0-2.8 1.2-2.8 3 0 1.8 1.1 2.9 2.8 2.9zm0-1.2c-0.8 0-1.2-0.7-1.2-1.7 0-1 0.4-1.8 1.2-1.8 0.8 0 1.2 0.8 1.2 1.8 0 1-0.4 1.7-1.2 1.7zm5.5 1.2c0.8 0 1.4-0.3 1.7-0.9v0.8h1.5v-3.8c0-1.4-1.1-2-2.4-2-1.4 0-2.3 0.7-2.5 1.7l1.5 0.2c0.1-0.4 0.4-0.7 1-0.7 0.5 0 0.8 0.3 0.8 0.7v0.1c0 0.3-0.4 0.4-1.3 0.5-1.2 0.1-2.2 0.5-2.2 1.7 0 1.2 0.8 1.7 1.9 1.7zm0.5-1.1c-0.5 0-0.9-0.2-0.9-0.6 0-0.5 0.4-0.7 0.9-0.8 0.4 0 1-0.1 1.1-0.2v0.6c0 0.6-0.4 1-1.1 1zm6.1 1.1c0.9 0 1.4-0.5 1.6-1h0.1v0.9h1.5v-7.6h-1.6v2.9c-0.2-0.5-0.7-1.1-1.6-1.1-1.3 0-2.4 1-2.4 3 0 1.9 1.1 2.9 2.4 2.9zm0.5-1.2c-0.8 0-1.2-0.7-1.2-1.7 0-1 0.4-1.7 1.2-1.7 0.7 0 1.2 0.6 1.2 1.7 0 1-0.5 1.7-1.2 1.7z"/>
	</g>
</svg>