<svg version="1.2" xmlns="http://www.w3.org/2000/svg" viewBox="0 0 450 270" width="450" height="270">
	<title>Gezondere presatienormen icon 3</title>
	<style>
		.s0 { fill: #0664bc } 
	</style>
	<path id="Shape 6" fill-rule="evenodd" class="s0" d="m123.5 161.2c-3.5 1.4-7.6 2.8-11.9 4-8.6 2.5-18.9 4.5-29.1 4.5-3.2 0-6.1-1.6-7.1-4-1.1-2.3 0.1-4.8 2.7-6.3v-0.1q0.2 0 0.6-0.3c0.4-0.3 1.1-0.7 2-1.3 1.7-1.2 4-2.9 6.2-5.1 2.6-2.5 5-5.5 6.7-8.8-11.7-10.4-18.6-23.2-18.6-36.9 0-34.8 43.7-62.9 97.5-62.9 53.9 0 97.6 28.1 97.6 62.9 0 34.7-43.7 62.8-97.6 62.8-17.9 0-34.6-3.1-49-8.5zm161.2-59.9c50.5 2.3 90.4 29.5 90.4 62.7 0 13.8-6.9 26.5-18.6 36.9 1.6 3.3 4.1 6.3 6.6 8.8 2.3 2.2 4.6 3.9 6.3 5.1 0.8 0.6 1.5 1.1 2 1.3 0.2 0.2 0.4 0.3 0.5 0.3l0.1 0.1c2.6 1.5 3.7 4 2.7 6.4-1 2.3-3.9 4-7.1 4-10.2 0-20.5-2-29.1-4.5-4.3-1.3-8.3-2.7-11.8-4.1-14.5 5.4-31.2 8.6-49.1 8.6-44.9 0-82.6-19.5-94-46.1 55-3.6 101.5-33.8 101.5-73.9q-0.1-2.9-0.4-5.6z"/>
</svg>