<svg version="1.2" xmlns="http://www.w3.org/2000/svg" viewBox="0 0 450 270" width="450" height="270">
	<title>Notitiebord</title>
	<style>
		.s0 { fill: #ffffff;stroke: #636363;stroke-miterlimit:100;stroke-width: 1.5 } 
		.s1 { fill: #636363 } 
		.s2 { fill: #1976d2 } 
		.s3 { fill: #ffc90d } 
		.s4 { fill: #e5e5e5 } 
	</style>
	<g id="Folder 2">
		<path id="Shape 1" class="s0" d="m87 52h286c8.3 0 15 6.7 15 15v143c0 8.3-6.7 15-15 15h-286c-8.3 0-15-6.7-15-15v-143c0-8.3 6.7-15 15-15z"/>
		<path id="Shape 2" class="s0" d="m187.5 40h81c6.4 0 11.5 5.1 11.5 11.5 0 6.4-5.1 11.5-11.5 11.5h-81c-6.4 0-11.5-5.1-11.5-11.5 0-6.4 5.1-11.5 11.5-11.5z"/>
		<path id="Notitiebord" class="s1" aria-label="Notitiebord"  d="m196.1 46.1h-2.3v6.9h-0.1l-4.7-6.9h-2.1v10.9h2.4v-6.9l4.8 6.9h2zm5.5 11.1c2.5 0 4.1-1.7 4.1-4.2 0-2.6-1.6-4.3-4.1-4.3-2.5 0-4 1.7-4 4.3 0 2.5 1.5 4.2 4 4.2zm0-1.8c-1.1 0-1.7-1-1.7-2.5 0-1.4 0.6-2.4 1.7-2.4 1.2 0 1.7 1 1.7 2.4 0 1.5-0.5 2.5-1.7 2.5zm9.9-6.6h-1.6v-1.9h-2.2v1.9h-1.1v1.7h1.1v4.3c0 1.6 1.1 2.4 2.7 2.3 0.6 0 1-0.1 1.2-0.2l-0.3-1.7c-0.1 0-0.4 0.1-0.6 0.1-0.4 0-0.8-0.2-0.8-0.8v-4h1.6zm1.5 8.2h2.2v-8.2h-2.2zm1.1-9.2c0.7 0 1.2-0.5 1.2-1.2 0-0.6-0.5-1.1-1.2-1.1-0.7 0-1.2 0.5-1.2 1.1 0 0.7 0.5 1.2 1.2 1.2zm7.3 1h-1.5v-1.9h-2.3v1.9h-1.1v1.8h1.1v4.2c0 1.6 1.1 2.4 2.7 2.3 0.6 0 1-0.1 1.2-0.2l-0.3-1.7c-0.1 0.1-0.4 0.1-0.6 0.1-0.4 0-0.7-0.2-0.7-0.8v-3.9h1.5zm1.5 8.1h2.2v-8.1h-2.2zm1.1-9.3c0.7 0 1.2-0.5 1.2-1.1 0-0.7-0.5-1.2-1.2-1.2-0.7 0-1.2 0.5-1.2 1.2 0 0.6 0.5 1.1 1.2 1.1zm6.7 9.4c2 0 3.4-1 3.7-2.5l-2.1-0.1c-0.2 0.6-0.8 0.9-1.6 0.9-1.1 0-1.8-0.7-1.8-2h5.5v-0.6c0-2.8-1.6-4.1-3.8-4.1-2.4 0-4 1.7-4 4.2 0 2.6 1.6 4.2 4.1 4.2zm-1.8-5.1c0-0.9 0.7-1.6 1.7-1.6 1 0 1.7 0.7 1.7 1.6zm7.1 5h2.2v-1.4h0.1c0.3 0.7 1 1.5 2.4 1.5 1.8 0 3.3-1.5 3.3-4.2 0-2.8-1.5-4.2-3.3-4.2-1.4 0-2.1 0.8-2.4 1.4v-4.1h-2.3zm2.2-4c0-1.5 0.6-2.4 1.7-2.4 1.2 0 1.8 0.9 1.8 2.4 0 1.4-0.7 2.4-1.8 2.4-1.1 0-1.7-1-1.7-2.4zm11 4.2c2.5 0 4-1.7 4-4.2 0-2.5-1.5-4.2-4-4.2-2.5 0-4 1.7-4 4.2 0 2.5 1.5 4.2 4 4.2zm0-1.8c-1.2 0-1.7-1-1.7-2.4 0-1.5 0.5-2.5 1.7-2.5 1.1 0 1.7 1 1.7 2.5 0 1.4-0.6 2.4-1.7 2.4zm5.5 1.6h2.3v-4.6c0-1 0.7-1.7 1.7-1.7 0.3 0 0.7 0.1 1 0.1v-2c-0.3 0-0.5-0.1-0.8-0.1-0.9 0-1.6 0.6-1.9 1.6h-0.1v-1.4h-2.2zm8.7 0.1c1.4 0 2.1-0.8 2.4-1.4h0.1v1.3h2.2v-10.9h-2.3v4.1c-0.3-0.7-1-1.5-2.4-1.5-1.8 0-3.3 1.4-3.3 4.2 0 2.7 1.5 4.2 3.3 4.2zm0.8-1.8c-1.1 0-1.8-1-1.8-2.4 0-1.4 0.6-2.4 1.8-2.4 1.1 0 1.7 0.9 1.7 2.4 0 1.4-0.6 2.4-1.7 2.4z"/>
		<path id="Prik" fill-rule="evenodd" class="s2" d="m35.1 29.3c0-2.4 2.2-4.3 4.9-4.3h39c2.7 0 4.9 1.9 4.9 4.3 0 2.4-2.2 4.3-4.9 4.3h-4.5l1.7 20c5.6 2.7 10 7.2 12.1 12.8l0.2 0.4c0.5 1.3 0.2 2.7-0.7 3.8-0.9 1.2-2.4 1.8-3.9 1.8h-48.8c-1.5 0-3-0.6-3.9-1.8-1-1.1-1.2-2.5-0.7-3.8l0.2-0.4c2.1-5.6 6.5-10.1 12.1-12.8l1.7-20h-4.5c-2.7 0-4.9-1.9-4.9-4.3zm19.5 47.5l9.8-0.1v13c0 2.4-2.2 4.3-4.9 4.3-2.7 0-4.9-1.9-4.9-4.3z"/>
		<g id="Folder 1">
			<path id="W2" class="s3" d="m239 183.7h60.5c5.8 0 10.5 4.7 10.5 10.5 0 5.9-4.7 10.6-10.5 10.6h-60.5c-5.8 0-10.5-4.7-10.5-10.6 0-5.8 4.7-10.5 10.5-10.5z"/>
			<path id="W3" class="s4" d="m363 183.7h5.5c5.8 0 10.5 4.7 10.5 10.5 0 5.9-4.7 10.6-10.5 10.6h-5.5c-5.8 0-10.5-4.7-10.5-10.6 0-5.8 4.7-10.5 10.5-10.5z"/>
			<path id="W1" class="s4" d="m100.7 183.5h16.8c5.8 0 10.5 4.7 10.5 10.5 0 5.8-4.7 10.6-10.5 10.6h-16.8c-5.8 0-10.5-4.8-10.5-10.6 0-5.8 4.7-10.5 10.5-10.5z"/>
			<path id="E3" class="s4" d="m293 150.8h16.5c5.8 0 10.5 4.7 10.5 10.5 0 5.9-4.7 10.6-10.5 10.6h-16.5c-5.8 0-10.5-4.7-10.5-10.6 0-5.8 4.7-10.5 10.5-10.5z"/>
			<path id="E2" class="s4" d="m239 150.8h30.5c5.8 0 10.5 4.7 10.5 10.5 0 5.9-4.7 10.6-10.5 10.6h-30.5c-5.8 0-10.5-4.7-10.5-10.6 0-5.8 4.7-10.5 10.5-10.5z"/>
			<path id="E1" class="s3" d="m101 150.5h74.5c5.8 0 10.5 4.7 10.5 10.5 0 5.8-4.7 10.6-10.5 10.6h-74.5c-5.8 0-10.5-4.8-10.5-10.6 0-5.8 4.7-10.5 10.5-10.5z"/>
			<path id="R3" class="s3" d="m363 115.7h5.5c5.8 0 10.5 4.7 10.5 10.5 0 5.9-4.7 10.6-10.5 10.6h-5.5c-5.8 0-10.5-4.7-10.5-10.6 0-5.8 4.7-10.5 10.5-10.5z"/>
			<path id="R2" class="s3" d="m239 115.7h82.5c5.8 0 10.5 4.7 10.5 10.5 0 5.9-4.7 10.6-10.5 10.6h-82.5c-5.8 0-10.5-4.7-10.5-10.6 0-5.8 4.7-10.5 10.5-10.5z"/>
			<path id="R1" class="s4" d="m100 115.8h79.5c5.8 0 10.5 4.7 10.5 10.5 0 5.9-4.7 10.6-10.5 10.6h-79.5c-5.8 0-10.5-4.7-10.5-10.6 0-5.8 4.7-10.5 10.5-10.5z"/>
			<path id="T3" class="s3" d="m363 81.7h5.5c5.8 0 10.5 4.7 10.5 10.5 0 5.9-4.7 10.6-10.5 10.6h-5.5c-5.8 0-10.5-4.7-10.5-10.6 0-5.8 4.7-10.5 10.5-10.5z"/>
			<path id="t2" class="s4" d="m239 81.8h39.5c5.8 0 10.5 4.7 10.5 10.5 0 5.9-4.7 10.6-10.5 10.6h-39.5c-5.8 0-10.5-4.7-10.5-10.6 0-5.8 4.7-10.5 10.5-10.5z"/>
			<path id="t1" class="s3" d="m99 81.7h82.5c5.8 0 10.5 4.7 10.5 10.5 0 5.9-4.7 10.6-10.5 10.6h-82.5c-5.8 0-10.5-4.7-10.5-10.6 0-5.8 4.7-10.5 10.5-10.5z"/>
		</g>
	</g>
</svg>