<svg version="1.2" xmlns="http://www.w3.org/2000/svg" viewBox="0 0 450 270" width="450" height="270">
	<title>EmailView</title>
	<style>
		.s0 { fill: #ffffff;stroke: #0664bc;stroke-miterlimit:100;stroke-width: 2 } 
		.s1 { fill: #0664bc } 
		.s2 { fill: #ffffff } 
		.s3 { fill: none;stroke: #0664bc;stroke-miterlimit:100 } 
		.s4 { fill: #1976d2 } 
	</style>
	<g id="Rechts">
		<path id="R/Frame" class="s0" d="m102 4h260c11 0 20 9 20 20v226c0 11-9 20-20 20h-260c-11.1 0-20-9-20-20v-226c0-11 8.9-20 20-20z"/>
		<g id="Rechterbuttons">
			<g id="MC">
			</g>
			<g id="EV">
				<path id="Shape 3" class="s1" d="m205 14h73c5.5 0 10 4.5 10 10v9c0 5.5-4.5 10-10 10h-73c-5.5 0-10-4.5-10-10v-9c0-5.5 4.5-10 10-10z"/>
				<path id="EmailView" class="s2" aria-label="EmailView"  d="m205.1 33.4h7.1v-1.6h-5.1v-3h4.7v-1.7h-4.7v-2.9h5.1v-1.7h-7.1zm9 0h1.9v-5c0-1 0.7-1.7 1.5-1.7 0.9 0 1.4 0.6 1.4 1.4v5.3h1.9v-5.1c0-0.9 0.5-1.6 1.5-1.6 0.8 0 1.4 0.5 1.4 1.5v5.2h1.9v-5.5c0-1.8-1-2.8-2.5-2.8-1.2 0-2.1 0.6-2.5 1.5h-0.1c-0.3-0.9-1.1-1.5-2.2-1.5-1.1 0-1.9 0.6-2.3 1.5h-0.1v-1.4h-1.8zm15.8 0.2c1.3 0 2.1-0.6 2.4-1.3h0.1v1.1h1.8v-5.5c0-2.1-1.7-2.8-3.3-2.8-1.7 0-3 0.8-3.4 2.3l1.8 0.2c0.1-0.5 0.7-1 1.6-1 0.9 0 1.4 0.5 1.4 1.3 0 0.6-0.6 0.6-2 0.7-1.6 0.2-3.1 0.7-3.1 2.5 0 1.6 1.2 2.5 2.7 2.5zm0.5-1.4c-0.8 0-1.4-0.4-1.4-1.1 0-0.7 0.7-1.1 1.6-1.2 0.5-0.1 1.5-0.2 1.7-0.4v1c0 0.9-0.7 1.7-1.9 1.7zm5.8 1.2h1.9v-8.2h-1.9zm1-9.3c0.6 0 1.1-0.5 1.1-1.1 0-0.5-0.5-1-1.1-1-0.7 0-1.2 0.5-1.2 1 0 0.6 0.5 1.1 1.2 1.1zm4.8-1.6h-1.9v10.9h1.9zm3.6 0h-2.2l3.8 10.9h2.5l3.8-10.9h-2.2l-2.8 8.6h-0.1zm9.3 10.9h1.9v-8.1h-1.9zm1-9.4c0.6 0 1.1-0.5 1.1-1 0-0.6-0.5-1.1-1.1-1.1-0.6 0-1.1 0.5-1.1 1.1 0 0.5 0.5 1 1.1 1zm6.5 9.5c1.9 0 3.3-0.9 3.6-2.3l-1.8-0.2c-0.3 0.6-0.9 1-1.7 1-1.3 0-2.1-0.8-2.1-2.2h5.7v-0.6c0-2.9-1.8-4.1-3.8-4.1-2.3 0-3.8 1.7-3.8 4.2 0 2.6 1.5 4.2 3.9 4.2zm-2-5c0-1.1 0.8-1.9 2-1.9 1.1 0 1.8 0.8 1.8 1.9zm9 4.9h2l1.5-5.6h0.2l1.5 5.6h2l2.3-8.2h-2l-1.4 5.7h-0.1l-1.4-5.7h-2l-1.4 5.7h-0.1l-1.5-5.7h-1.9z"/>
			</g>
			<g id="Email copy">
				<path id="Shape 3" class="s3" d="m108 14h73c5.5 0 10 4.5 10 10v9c0 5.5-4.5 10-10 10h-73c-5.5 0-10-4.5-10-10v-9c0-5.5 4.5-10 10-10z"/>
				<path id="OrderView" class="s1" aria-label="OrderView"  d="m117.8 28c0-3.6-2.1-5.6-5-5.6-2.9 0-5 2-5 5.6 0 3.5 2.1 5.6 5 5.6 2.9 0 5-2.1 5-5.6zm-2 0c0 2.4-1.2 3.8-3 3.8-1.8 0-3-1.4-3-3.8 0-2.5 1.2-3.9 3-3.9 1.8 0 3 1.4 3 3.9zm3.8 5.4h1.9v-4.8c0-1 0.8-1.8 1.9-1.8 0.3 0 0.7 0.1 0.9 0.1v-1.7c-0.2-0.1-0.5-0.1-0.7-0.1-1 0-1.7 0.5-2 1.5h-0.1v-1.4h-1.9zm8.7 0.2c1.4 0 2-0.9 2.3-1.5h0.1v1.3h1.9v-10.9h-1.9v4.1h-0.1c-0.3-0.6-0.9-1.5-2.3-1.5-1.9 0-3.4 1.5-3.4 4.2 0 2.7 1.4 4.3 3.4 4.3zm0.5-1.6c-1.3 0-1.9-1.1-1.9-2.7 0-1.5 0.6-2.6 1.9-2.6 1.2 0 1.9 1 1.9 2.6 0 1.6-0.7 2.7-1.9 2.7zm9.5 1.6c1.9 0 3.2-0.9 3.6-2.4l-1.8-0.2c-0.3 0.7-0.9 1.1-1.8 1.1-1.2 0-2-0.8-2.1-2.2h5.7v-0.6c0-2.9-1.7-4.2-3.7-4.2-2.3 0-3.9 1.8-3.9 4.3 0 2.6 1.5 4.2 4 4.2zm-2.1-5c0.1-1.1 0.9-2 2-2 1.1 0 1.9 0.9 1.9 2zm7.3 4.8h1.9v-4.8c0-1 0.8-1.8 1.9-1.8 0.3 0 0.7 0.1 0.9 0.2v-1.8c-0.2-0.1-0.5-0.1-0.7-0.1-1 0-1.7 0.6-2 1.5h-0.1v-1.4h-1.9zm7.5-10.9h-2.2l3.9 10.9h2.4l3.9-10.9h-2.2l-2.8 8.6h-0.2zm9.4 10.9h1.9v-8.1h-1.9zm0.9-9.4c0.6 0 1.1-0.5 1.1-1 0-0.6-0.5-1.1-1.1-1.1-0.6 0-1.1 0.5-1.1 1.1 0 0.5 0.5 1 1.1 1zm6.6 9.5c1.9 0 3.2-0.9 3.5-2.3l-1.8-0.2c-0.2 0.6-0.9 1-1.7 1-1.2 0-2.1-0.8-2.1-2.2h5.7v-0.6c0-2.9-1.7-4.1-3.7-4.1-2.4 0-3.9 1.7-3.9 4.2 0 2.6 1.5 4.2 4 4.2zm-2.1-5c0.1-1.1 0.9-1.9 2-1.9 1.1 0 1.9 0.8 1.9 1.9zm9 4.9h2l1.5-5.6h0.1l1.5 5.6h2.1l2.3-8.2h-2l-1.4 5.7h-0.1l-1.5-5.7h-1.9l-1.5 5.7h-0.1l-1.4-5.7h-2z"/>
			</g>
		</g>
		<g id="Tijdlijn">
			<g id="Events">
				<g id="Folder 3">
					<g id="MC">
						<path id="Shape 4" class="s3" d="m220 63h58c3.9 0 7 3.1 7 7 0 3.9-3.1 7-7 7h-58c-3.9 0-7-3.1-7-7 0-3.9 3.1-7 7-7z"/>
					</g>
					<path id="Bestelling ontvangen" class="s1" aria-label="Bestelling ontvangen"  d="m216.9 86.3h2.6c1.7 0 2.4-0.9 2.4-2 0-1.1-0.8-1.7-1.4-1.8 0.6-0.2 1.2-0.6 1.2-1.6 0-1-0.8-1.9-2.3-1.9h-2.5zm0.9-0.8v-2.5h1.8c0.9 0 1.5 0.6 1.5 1.4 0 0.6-0.4 1.1-1.6 1.1zm0-3.3v-2.4h1.7c0.9 0 1.4 0.5 1.4 1.2 0 0.7-0.7 1.2-1.5 1.2zm7.8 4.2c1.1 0 2-0.5 2.2-1.4l-0.8-0.2c-0.2 0.6-0.7 0.9-1.4 0.9-0.9 0-1.6-0.7-1.7-1.8h4v-0.4c0-2-1.2-2.7-2.3-2.7-1.5 0-2.5 1.1-2.5 2.8 0 1.7 1 2.8 2.5 2.8zm-1.7-3.3c0.1-0.8 0.7-1.6 1.7-1.6 0.9 0 1.4 0.7 1.4 1.6zm9.1-1c-0.2-0.8-0.8-1.3-1.9-1.3-1.1 0-2 0.6-2 1.6 0 0.7 0.5 1.2 1.5 1.4l0.9 0.3c0.5 0.1 0.8 0.3 0.8 0.7 0 0.5-0.5 0.9-1.3 0.9-0.7 0-1.1-0.3-1.3-0.9l-0.8 0.2c0.2 0.9 1 1.4 2.1 1.4 1.3 0 2.1-0.7 2.1-1.6 0-0.8-0.4-1.3-1.4-1.5l-0.8-0.2c-0.7-0.2-0.9-0.4-0.9-0.8 0-0.5 0.4-0.8 1.1-0.8 0.7 0 1 0.4 1.2 0.8zm3.7-1.2h-1.1v-1.3h-0.9v1.3h-0.8v0.7h0.8v3.4c0 0.9 0.8 1.4 1.5 1.4 0.3 0 0.5-0.1 0.6-0.1l-0.1-0.8c-0.1 0-0.2 0.1-0.4 0.1-0.4 0-0.7-0.1-0.7-0.8v-3.2h1.1zm3.5 5.5c1.1 0 1.9-0.5 2.2-1.3l-0.8-0.3c-0.2 0.6-0.7 0.9-1.4 0.9-1 0-1.6-0.7-1.7-1.8h4v-0.4c0-2-1.2-2.7-2.4-2.7-1.4 0-2.4 1.2-2.4 2.8 0 1.7 0.9 2.8 2.5 2.8zm-1.7-3.2c0.1-0.9 0.7-1.6 1.6-1.6 0.9 0 1.5 0.6 1.5 1.6zm6.1-4.1h-0.8v7.2h0.8zm2.4 0h-0.9v7.3h0.9zm1.5 7.3h0.9v-5.5h-0.9zm0.4-6.3c0.4 0 0.6-0.3 0.6-0.6 0-0.3-0.2-0.6-0.6-0.6-0.3 0-0.6 0.3-0.6 0.6 0 0.3 0.3 0.6 0.6 0.6zm2.8 3c0-0.9 0.6-1.5 1.4-1.5 0.8 0 1.3 0.5 1.3 1.4v3.4h0.8v-3.5c0-1.3-0.7-2-1.8-2-0.9 0-1.4 0.4-1.6 0.9h-0.1v-0.8h-0.8v5.4h0.8zm7.2 5.5c1.3 0 2.4-0.6 2.4-2v-5.7h-0.8v0.9h-0.1c-0.2-0.3-0.5-0.9-1.6-0.9-1.4 0-2.3 1.1-2.3 2.7 0 1.7 1 2.7 2.3 2.7 1.1 0 1.4-0.6 1.6-0.9h0.1v1.1c0 0.9-0.7 1.3-1.6 1.3-1 0-1.3-0.5-1.5-0.8l-0.7 0.5c0.4 0.5 1 1.1 2.2 1.1zm0-3c-1 0-1.6-0.8-1.6-2 0-1.1 0.5-2 1.6-2 1 0 1.6 0.8 1.6 2 0 1.2-0.6 2-1.6 2zm9 0.9c1.4 0 2.4-1.1 2.4-2.8 0-1.7-1-2.8-2.4-2.8-1.5 0-2.5 1.1-2.5 2.8 0 1.7 1 2.8 2.5 2.8zm0-0.7c-1.2 0-1.7-1-1.7-2.1 0-1.1 0.5-2.1 1.7-2.1 1.1 0 1.6 1 1.6 2.1 0 1.1-0.5 2.1-1.6 2.1zm4.5-2.7c0-0.9 0.6-1.5 1.4-1.5 0.8 0 1.3 0.5 1.3 1.4v3.4h0.8v-3.5c0-1.4-0.7-2-1.8-2-0.8 0-1.4 0.3-1.6 0.9h-0.1v-0.9h-0.8v5.5h0.8zm7.4-2.2h-1.1v-1.3h-0.9v1.3h-0.8v0.7h0.8v3.4c0 1 0.8 1.4 1.5 1.4 0.3 0 0.5 0 0.6-0.1l-0.1-0.7c-0.1 0-0.2 0-0.4 0-0.4 0-0.7-0.1-0.7-0.8v-3.2h1.1zm5.8 0h-0.9l-1.6 4.4-1.5-4.4h-0.9l2 5.5h0.8zm2.6 5.6c0.9 0 1.4-0.5 1.6-0.9v0.7h0.9v-3.6c0-1.7-1.3-1.9-2-1.9-0.9 0-1.8 0.3-2.2 1.3l0.8 0.3c0.2-0.4 0.6-0.8 1.4-0.8 0.8 0 1.1 0.4 1.1 1.1 0 0.4-0.4 0.4-1.4 0.5-1 0.1-2.1 0.3-2.1 1.6 0 1.1 0.8 1.7 1.9 1.7zm0.1-0.8c-0.7 0-1.1-0.3-1.1-0.9 0-0.6 0.5-0.8 1.2-0.9 0.4 0 1.3-0.1 1.4-0.3v0.8c0 0.6-0.5 1.3-1.5 1.3zm4.8-2.6c0-1 0.5-1.5 1.3-1.5 0.8 0 1.3 0.5 1.3 1.3v3.4h0.8v-3.4c0-1.4-0.7-2.1-1.8-2.1-0.8 0-1.3 0.4-1.6 0.9h-0.1v-0.8h-0.8v5.4h0.9zm7.2 5.5c1.3 0 2.3-0.6 2.3-2v-5.6h-0.8v0.8h-0.1c-0.1-0.2-0.5-0.9-1.6-0.9-1.3 0-2.3 1.1-2.3 2.8 0 1.7 1 2.6 2.3 2.6 1.1 0 1.4-0.6 1.6-0.9h0.1v1.1c0 0.9-0.6 1.3-1.5 1.3-1 0-1.4-0.5-1.6-0.8l-0.7 0.5c0.4 0.6 1.1 1.1 2.3 1.1zm-0.1-3c-1 0-1.5-0.8-1.5-1.9 0-1.2 0.5-2 1.5-2 1.1 0 1.6 0.8 1.6 2 0 1.2-0.5 1.9-1.6 1.9zm6.3 0.9c1.1 0 1.9-0.5 2.1-1.3l-0.8-0.3c-0.2 0.6-0.7 0.9-1.3 0.9-1 0-1.7-0.7-1.7-1.8h3.9v-0.4c0-2-1.2-2.7-2.3-2.7-1.5 0-2.5 1.2-2.5 2.8 0 1.7 1 2.8 2.6 2.8zm-1.7-3.2c0-0.9 0.6-1.6 1.6-1.6 0.9 0 1.5 0.6 1.5 1.6zm6-0.2c0-0.9 0.6-1.4 1.4-1.4 0.8 0 1.3 0.5 1.3 1.3v3.4h0.8v-3.4c0-1.4-0.7-2.1-1.8-2.1-0.9 0-1.4 0.4-1.6 0.9h-0.1v-0.8h-0.8v5.4h0.8z"/>
				</g>
				<g id="Folder 4">
					<g id="MC copy 4">
						<path id="Bol.com klantvraag" class="s1" aria-label="Bol.com klantvraag"  d="m220.6 242h2.3c1.4 0 2-0.7 2-1.6 0-0.8-0.6-1.4-1.2-1.4v-0.1c0.5-0.1 1-0.5 1-1.2 0-0.9-0.6-1.5-1.9-1.5h-2.2zm1-0.9v-1.7h1.2c0.6 0 1 0.4 1 0.9 0 0.5-0.3 0.8-1 0.8zm0-2.4v-1.6h1c0.6 0 1 0.3 1 0.7 0 0.5-0.4 0.9-1 0.9zm6.1 3.4c1.2 0 2.1-0.9 2.1-2.3 0-1.3-0.9-2.2-2.1-2.2-1.3 0-2.1 0.9-2.1 2.2 0 1.4 0.8 2.3 2.1 2.3zm0-0.8c-0.7 0-1.1-0.7-1.1-1.5 0-0.8 0.4-1.4 1.1-1.4 0.7 0 1 0.6 1 1.4 0 0.8-0.3 1.5-1 1.5zm4-5.1h-1.1v5.8h1.1zm1.6 5.9c0.4 0 0.7-0.3 0.7-0.6 0-0.4-0.3-0.7-0.7-0.7-0.3 0-0.6 0.3-0.6 0.7 0 0.3 0.3 0.6 0.6 0.6zm3.6 0c1.1 0 1.8-0.6 1.9-1.6h-1c-0.1 0.5-0.4 0.8-0.9 0.8-0.6 0-1-0.6-1-1.5 0-0.8 0.4-1.4 1-1.4 0.5 0 0.8 0.3 0.9 0.8h1c-0.1-1-0.8-1.6-1.9-1.6-1.2 0-2.1 0.9-2.1 2.3 0 1.3 0.8 2.2 2.1 2.2zm4.7 0c1.2 0 2-0.9 2-2.2 0-1.4-0.8-2.3-2-2.3-1.3 0-2.1 0.9-2.1 2.3 0 1.3 0.8 2.2 2.1 2.2zm0-0.8c-0.7 0-1.1-0.7-1.1-1.4 0-0.8 0.4-1.5 1.1-1.5 0.7 0 1 0.7 1 1.5 0 0.7-0.3 1.4-1 1.4zm2.9 0.7h1v-2.6c0-0.6 0.4-0.9 0.8-0.9 0.5 0 0.8 0.3 0.8 0.7v2.8h1v-2.7c0-0.5 0.3-0.8 0.8-0.8 0.4 0 0.7 0.2 0.7 0.7v2.8h1.1v-2.9c0-1-0.6-1.5-1.4-1.5-0.6 0-1.1 0.3-1.3 0.8h-0.1c-0.1-0.5-0.6-0.8-1.1-0.8-0.6 0-1.1 0.3-1.2 0.8h-0.1v-0.7h-1zm9.2 0h1v-1.5l0.4-0.4 1.3 1.9h1.3l-1.8-2.5 1.7-1.9h-1.2l-1.6 1.7h-0.1v-3.2h-1zm5.6-5.8h-1.1v5.8h1.1zm2.3 5.9c0.7 0 1.1-0.3 1.3-0.6v0.6h1v-3c0-1.1-1-1.5-1.8-1.5-0.9 0-1.6 0.4-1.8 1.2l0.9 0.2c0.1-0.3 0.4-0.6 0.9-0.6 0.5 0 0.8 0.3 0.8 0.7 0 0.3-0.4 0.3-1.1 0.4-0.9 0.1-1.7 0.3-1.7 1.3 0 0.9 0.6 1.3 1.5 1.3zm0.2-0.7c-0.4 0-0.7-0.2-0.7-0.6 0-0.4 0.4-0.5 0.8-0.6 0.3 0 0.8-0.1 1-0.2v0.5c0 0.5-0.4 0.9-1.1 0.9zm4.1-1.9c0-0.6 0.4-1 1-1 0.5 0 0.8 0.4 0.8 0.9v2.7h1v-2.8c0.1-1.1-0.5-1.7-1.4-1.7-0.7 0-1.1 0.3-1.3 0.8h-0.1v-0.7h-1v4.4h1zm6.1-1.9h-0.9v-1h-1v1h-0.6v0.8h0.6v2.5c0 0.8 0.6 1.2 1.4 1.2 0.2 0 0.4-0.1 0.6-0.1l-0.2-0.8c-0.1 0-0.2 0-0.3 0-0.3 0-0.5-0.1-0.5-0.5v-2.3h0.9zm4.7 0h-1.1l-1 3.3-1-3.3h-1.1l1.5 4.4h1.2zm0.7 4.4h1v-2.6c0-0.5 0.4-0.9 1-0.9 0.2 0 0.4 0 0.5 0v-0.9c-0.1 0-0.3-0.1-0.4-0.1-0.5 0-0.9 0.3-1.1 0.8v-0.7h-1zm4.3 0.1c0.7 0 1.1-0.3 1.3-0.7h0.1v0.6h0.9v-2.9c0-1.2-0.9-1.5-1.7-1.5-0.9 0-1.7 0.4-1.9 1.2l1 0.1c0.1-0.3 0.4-0.5 0.9-0.5 0.5 0 0.7 0.2 0.7 0.6v0.1c0 0.3-0.3 0.3-1.1 0.4-0.8 0-1.6 0.3-1.6 1.3 0 0.8 0.6 1.3 1.4 1.3zm0.3-0.8c-0.4 0-0.7-0.2-0.7-0.5 0-0.4 0.3-0.6 0.8-0.7 0.2 0 0.8-0.1 0.9-0.2v0.5c0 0.5-0.4 0.9-1 0.9zm4.3 0.8c0.7 0 1.1-0.3 1.3-0.7v0.6h1v-2.9c0-1.2-0.9-1.5-1.7-1.5-1 0-1.7 0.4-1.9 1.2l1 0.1c0.1-0.3 0.4-0.5 0.9-0.5 0.4 0 0.7 0.2 0.7 0.6v0.1c0 0.3-0.3 0.3-1.1 0.4-0.8 0-1.6 0.3-1.6 1.3 0 0.8 0.6 1.3 1.4 1.3zm0.3-0.8c-0.4 0-0.7-0.2-0.7-0.5 0-0.4 0.3-0.6 0.8-0.7 0.2 0 0.8-0.1 0.9-0.2v0.5c0 0.5-0.4 0.9-1 0.9zm5 2.4c1.2 0 2-0.5 2-1.6v-4.5h-1v0.8h-0.1c-0.1-0.4-0.4-0.8-1.2-0.8-1 0-1.8 0.8-1.8 2.2 0 1.4 0.8 2.1 1.8 2.1 0.7 0 1.1-0.4 1.2-0.7h0.1v0.8c0 0.7-0.4 1-1 1-0.6 0-0.9-0.3-1-0.6l-1 0.2c0.2 0.6 0.9 1.1 2 1.1zm0-2.6c-0.7 0-1.1-0.5-1.1-1.3 0-0.8 0.4-1.4 1.1-1.4 0.6 0 1 0.6 1 1.4 0 0.8-0.4 1.3-1 1.3z"/>
						<path id="Shape 4" class="s3" d="m220 232h74c3.9 0 7 3.1 7 7 0 3.9-3.1 7-7 7h-74c-3.9 0-7-3.1-7-7 0-3.9 3.1-7 7-7z"/>
					</g>
					<path id="Retour nog niet verwerkt" class="s1" aria-label="Retour nog niet verwerkt"  d="m216.9 257.3h0.9v-2.9h1.6c0 0 0.1 0 0.1 0l1.6 2.9h1l-1.7-3c1-0.3 1.4-1.1 1.4-2.1 0-1.3-0.8-2.2-2.5-2.2h-2.4zm0.9-3.6v-2.9h1.5c1.2 0 1.6 0.6 1.6 1.5 0 0.8-0.4 1.4-1.6 1.4zm7.7 3.7c1.1 0 1.9-0.5 2.1-1.4l-0.8-0.2c-0.2 0.6-0.7 0.9-1.3 0.9-1 0-1.7-0.7-1.7-1.8h3.9v-0.4c0-2-1.2-2.7-2.3-2.7-1.5 0-2.5 1.1-2.5 2.8 0 1.7 1 2.8 2.6 2.8zm-1.7-3.3c0-0.8 0.6-1.6 1.6-1.6 0.9 0 1.5 0.7 1.5 1.6zm7.6-2.3h-1.2v-1.3h-0.8v1.3h-0.9v0.8h0.9v3.4c0 0.9 0.7 1.4 1.4 1.4 0.4 0 0.6-0.1 0.7-0.1l-0.2-0.8c-0.1 0-0.2 0.1-0.4 0.1-0.3 0-0.7-0.2-0.7-0.9v-3.1h1.2zm3.4 5.5c1.5 0 2.5-1.1 2.5-2.8 0-1.7-1-2.8-2.5-2.8-1.5 0-2.5 1.1-2.5 2.8 0 1.7 1 2.8 2.5 2.8zm0-0.7c-1.1 0-1.6-1-1.6-2.1 0-1.1 0.5-2.1 1.6-2.1 1.1 0 1.6 1 1.6 2.1 0 1.1-0.5 2.1-1.6 2.1zm7.2-1.6c0 1-0.8 1.5-1.4 1.5-0.7 0-1.2-0.5-1.2-1.3v-3.4h-0.9v3.4c0 1.4 0.8 2.1 1.8 2.1 0.8 0 1.4-0.5 1.6-1h0.1v0.9h0.8v-5.4h-0.8zm2.4 2.2h0.8v-3.5c0-0.7 0.6-1.2 1.4-1.2 0.2 0 0.4 0 0.5 0v-0.8c-0.1 0-0.3-0.1-0.5-0.1-0.6 0-1.2 0.4-1.4 1v-0.9h-0.8zm7.3-3.2c0-1 0.6-1.5 1.4-1.5 0.8 0 1.3 0.5 1.3 1.3v3.4h0.8v-3.4c0-1.4-0.7-2.1-1.8-2.1-0.9 0-1.4 0.4-1.6 0.9h-0.1v-0.8h-0.8v5.4h0.8zm7.3 3.4c1.4 0 2.4-1.1 2.4-2.8 0-1.7-1-2.8-2.4-2.8-1.5 0-2.5 1.1-2.5 2.8 0 1.7 1 2.8 2.5 2.8zm0-0.7c-1.2 0-1.7-1-1.7-2.1 0-1.1 0.5-2.1 1.7-2.1 1.1 0 1.6 1 1.6 2.1 0 1.1-0.5 2.1-1.6 2.1zm5.9 2.8c1.3 0 2.4-0.6 2.4-2v-5.6h-0.8v0.8h-0.1c-0.2-0.3-0.6-0.9-1.6-0.9-1.4 0-2.4 1.1-2.4 2.8 0 1.7 1 2.6 2.4 2.6 1 0 1.4-0.6 1.6-0.9v1.1c0 0.9-0.6 1.3-1.5 1.3-1 0-1.3-0.5-1.6-0.8l-0.6 0.5c0.3 0.5 1 1.1 2.2 1.1zm0-3c-1.1 0-1.6-0.8-1.6-2 0-1.1 0.5-2 1.6-2 1 0 1.5 0.9 1.5 2 0 1.3-0.5 2-1.5 2zm7.5-2.5c0-0.9 0.6-1.5 1.4-1.5 0.8 0 1.3 0.5 1.3 1.4v3.4h0.8v-3.5c0-1.3-0.7-2-1.8-2-0.8 0-1.4 0.4-1.6 0.9h-0.1v-0.8h-0.8v5.4h0.8zm5.1 3.3h0.8v-5.5h-0.8zm0.4-6.3c0.3 0 0.6-0.3 0.6-0.6 0-0.3-0.3-0.6-0.6-0.6-0.3 0-0.6 0.3-0.6 0.6 0 0.3 0.3 0.6 0.6 0.6zm4.2 6.5c1.1 0 1.9-0.6 2.2-1.4l-0.8-0.3c-0.2 0.6-0.7 0.9-1.4 0.9-1 0-1.6-0.6-1.7-1.8h4v-0.4c0-2-1.2-2.7-2.4-2.7-1.4 0-2.4 1.2-2.4 2.9 0 1.6 0.9 2.8 2.5 2.8zm-1.7-3.3c0.1-0.9 0.7-1.6 1.6-1.6 0.9 0 1.5 0.6 1.5 1.6zm7.6-2.3h-1.1v-1.3h-0.9v1.3h-0.8v0.7h0.8v3.4c0 1 0.8 1.4 1.5 1.4 0.3 0 0.5 0 0.6-0.1l-0.1-0.7c-0.1 0-0.2 0-0.4 0-0.4 0-0.7-0.1-0.7-0.8v-3.2h1.1zm8.6 0h-0.9l-1.5 4.3h-0.1l-1.5-4.3h-0.9l2 5.4h0.9zm3.2 5.6c1.1 0 1.9-0.5 2.1-1.4l-0.8-0.2c-0.2 0.6-0.7 0.9-1.3 0.9-1 0-1.7-0.7-1.7-1.8h3.9v-0.4c0-2-1.2-2.7-2.3-2.7-1.5 0-2.5 1.1-2.5 2.8 0 1.7 1 2.8 2.6 2.8zm-1.7-3.3c0-0.8 0.6-1.6 1.6-1.6 0.9 0 1.5 0.7 1.5 1.6zm5.2 3.2h0.8v-3.4c0-0.8 0.6-1.3 1.4-1.3 0.2 0 0.5 0 0.5 0v-0.8c-0.1 0-0.3 0-0.4 0-0.7 0-1.2 0.3-1.4 0.9h-0.1v-0.9h-0.8zm5 0h0.9l1.2-4.1 1.2 4.1h0.9l1.6-5.4h-0.9l-1.1 4.2h-0.1l-1.1-4.2h-0.9l-1.2 4.2h-0.1l-1.1-4.2h-0.9zm9 0.1c1.1 0 1.9-0.5 2.1-1.4l-0.8-0.2c-0.2 0.6-0.7 0.9-1.3 0.9-1 0-1.7-0.7-1.7-1.8h3.9v-0.4c0-2-1.2-2.7-2.3-2.7-1.5 0-2.5 1.1-2.5 2.8 0 1.7 1 2.8 2.6 2.8zm-1.7-3.3c0-0.8 0.6-1.6 1.6-1.6 0.9 0 1.5 0.7 1.5 1.6zm5.2 3.2h0.9v-3.5c0-0.7 0.5-1.2 1.3-1.2 0.3 0 0.5 0 0.5 0v-0.8c-0.1 0-0.3 0-0.4 0-0.7 0-1.2 0.3-1.4 0.9h-0.1v-0.9h-0.8zm3.7 0h0.9v-2l0.6-0.5 2 2.5h1.1l-2.5-3.1 2.3-2.3h-1l-2.4 2.4h-0.1v-4.2h-0.9zm7.8-5.5h-1.1v-1.3h-0.9v1.3h-0.8v0.7h0.8v3.4c0 1 0.8 1.4 1.5 1.4 0.3 0 0.5 0 0.6-0.1l-0.1-0.7c-0.1 0-0.2 0-0.4 0-0.4 0-0.7-0.1-0.7-0.8v-3.2h1.1z"/>
				</g>
				<g id="Folder 6">
					<g id="MC copy">
						<path id="MailCampagne" class="s1" aria-label="MailCampagne"  d="m220.6 109.2v5.8h1v-4l1.6 4h0.8l1.6-4h0.1v4h1v-5.8h-1.3l-1.7 4.2h-0.1l-1.7-4.2zm8.4 5.9c0.7 0 1.1-0.3 1.3-0.7v0.6h1v-2.9c0-1.2-0.9-1.5-1.7-1.5-1 0-1.7 0.4-1.9 1.2l1 0.1c0.1-0.3 0.4-0.5 0.9-0.5 0.4 0 0.7 0.2 0.7 0.7 0 0.3-0.3 0.3-1.1 0.4-0.8 0.1-1.6 0.3-1.6 1.3 0 0.9 0.6 1.3 1.4 1.3zm0.3-0.7c-0.4 0-0.7-0.2-0.7-0.6 0-0.4 0.3-0.6 0.8-0.6 0.2-0.1 0.8-0.2 0.9-0.3v0.6c0 0.4-0.4 0.9-1 0.9zm3.1 0.6h1v-4.3h-1zm0.5-5c0.3 0 0.6-0.3 0.6-0.6 0-0.3-0.3-0.5-0.6-0.5-0.3 0-0.6 0.2-0.6 0.5 0 0.3 0.3 0.6 0.6 0.6zm2.6-0.9h-1v5.9h1zm6.1 1.9c-0.2-1.3-1.2-2-2.5-2-1.5 0-2.7 1.1-2.7 3 0 1.8 1.2 3 2.7 3 1.4 0 2.3-0.9 2.5-2.1h-1.1c-0.1 0.7-0.7 1.1-1.4 1.1-0.9 0-1.6-0.7-1.6-2 0-1.3 0.7-2.1 1.6-2.1 0.7 0 1.3 0.4 1.4 1.1zm2.2 4c0.7 0 1.1-0.4 1.3-0.7v0.6h1v-2.9c0-1.2-1-1.5-1.8-1.5-0.9 0-1.6 0.4-1.8 1.2l0.9 0.1c0.1-0.3 0.4-0.6 0.9-0.6 0.5 0 0.8 0.3 0.8 0.7 0 0.3-0.4 0.3-1.1 0.4-0.9 0.1-1.7 0.4-1.7 1.3 0 0.9 0.6 1.4 1.5 1.4zm0.2-0.8c-0.4 0-0.7-0.2-0.7-0.6 0-0.4 0.4-0.5 0.8-0.6 0.3 0 0.8-0.1 1-0.2v0.5c0 0.5-0.4 0.9-1.1 0.9zm3.1 0.7h1v-2.7c0-0.5 0.4-0.9 0.8-0.9 0.5 0 0.8 0.3 0.8 0.8v2.8h1v-2.7c0-0.5 0.3-0.9 0.8-0.9 0.4 0 0.7 0.3 0.7 0.8v2.8h1.1v-3c0-0.9-0.6-1.4-1.4-1.4-0.6 0-1.1 0.3-1.3 0.8h-0.1c-0.1-0.5-0.6-0.8-1.1-0.8-0.6 0-1.1 0.3-1.2 0.8h-0.1v-0.8h-1zm7.2 1.6h1v-2.3h0.1c0.1 0.3 0.5 0.8 1.2 0.8 1 0 1.8-0.8 1.8-2.3 0-1.4-0.8-2.2-1.8-2.2-0.8 0-1.1 0.5-1.2 0.8h-0.1v-0.8h-1zm1-3.8c0-0.8 0.4-1.4 1-1.4 0.7 0 1.1 0.6 1.1 1.4 0 0.8-0.4 1.4-1.1 1.4-0.6 0-1-0.5-1-1.4zm5.3 2.3c0.6 0 1-0.3 1.2-0.7h0.1v0.6h1v-2.9c0-1.2-1-1.5-1.8-1.5-0.9 0-1.6 0.4-1.9 1.2l1 0.1c0.1-0.3 0.4-0.5 0.9-0.5 0.5 0 0.7 0.2 0.7 0.6v0.1c0 0.3-0.3 0.3-1.1 0.4-0.8 0-1.6 0.3-1.6 1.3 0 0.8 0.6 1.3 1.5 1.3zm0.2-0.8c-0.4 0-0.7-0.2-0.7-0.5 0-0.4 0.3-0.6 0.8-0.7 0.3 0 0.8-0.1 0.9-0.2v0.5c0 0.5-0.4 0.9-1 0.9zm5 2.4c1.2 0 2-0.5 2-1.6v-4.5h-1v0.8c-0.2-0.3-0.5-0.8-1.3-0.8-1 0-1.8 0.8-1.8 2.2 0 1.4 0.8 2.1 1.8 2.1 0.8 0 1.1-0.4 1.3-0.7v0.9c0 0.6-0.4 0.9-1 0.9-0.6 0-0.9-0.3-1-0.6l-0.9 0.2c0.2 0.6 0.8 1.1 1.9 1.1zm0-2.6c-0.7 0-1-0.5-1-1.3 0-0.8 0.3-1.4 1-1.4 0.7 0 1 0.6 1 1.4 0 0.8-0.3 1.3-1 1.3zm4.1-1.6c0-0.7 0.4-1 0.9-1 0.6 0 0.9 0.3 0.9 0.9v2.6h1v-2.8c0-1-0.6-1.6-1.5-1.6-0.6 0-1.1 0.3-1.3 0.8v-0.8h-1v4.4h1zm5.8 2.7c1 0 1.7-0.5 1.9-1.3l-1-0.1c-0.1 0.4-0.4 0.5-0.9 0.5-0.6 0-1.1-0.4-1.1-1.1h3v-0.4c0-1.5-0.9-2.2-1.9-2.2-1.3 0-2.1 1-2.1 2.3 0 1.4 0.8 2.3 2.1 2.3zm-1.1-2.7c0-0.6 0.5-1.1 1.1-1.1 0.6 0 1 0.5 1 1.1z"/>
						<path id="Shape 4" class="s3" d="m220 105h58c3.9 0 7 3.1 7 7 0 3.9-3.1 7-7 7h-58c-3.9 0-7-3.1-7-7 0-3.9 3.1-7 7-7z"/>
					</g>
					<path id="Je bestelling is verstuurd!" class="s1" aria-label="Je bestelling is verstuurd!"  d="m219.7 121v5.2c0 0.9-0.5 1.4-1.2 1.4-0.7 0-1.2-0.4-1.2-1h-0.9c0 1.1 0.9 1.8 2.1 1.8 1.2 0 2-0.8 2-2.2v-5.2zm4.9 7.4c1.1 0 1.9-0.6 2.1-1.4l-0.8-0.2c-0.2 0.5-0.7 0.8-1.3 0.8-1 0-1.7-0.6-1.7-1.8h3.9v-0.3c0-2.1-1.2-2.8-2.3-2.8-1.5 0-2.5 1.2-2.5 2.9 0 1.7 1 2.8 2.6 2.8zm-1.7-3.3c0-0.8 0.6-1.6 1.6-1.6 0.9 0 1.5 0.7 1.5 1.6zm8.1 3.2h0.8v-0.9h0.1c0.2 0.3 0.6 1 1.6 1 1.4 0 2.3-1.1 2.3-2.8 0-1.8-0.9-2.9-2.3-2.9-1 0-1.4 0.7-1.6 1v-2.7h-0.9zm0.9-2.7c0-1.2 0.5-2.1 1.5-2.1 1.1 0 1.6 0.9 1.6 2.1 0 1.1-0.5 2.1-1.6 2.1-1 0-1.5-0.9-1.5-2.1zm7.5 2.8c1.1 0 1.9-0.5 2.2-1.4l-0.8-0.2c-0.2 0.6-0.7 0.9-1.4 0.9-1 0-1.7-0.7-1.7-1.8h4v-0.4c0-2-1.2-2.7-2.4-2.7-1.5 0-2.4 1.1-2.4 2.8 0 1.7 0.9 2.8 2.5 2.8zm-1.7-3.3c0.1-0.8 0.7-1.6 1.6-1.6 0.9 0 1.5 0.7 1.5 1.6zm9.1-1c-0.2-0.8-0.8-1.3-1.9-1.3-1.2 0-2 0.6-2 1.6 0 0.7 0.4 1.2 1.4 1.4l0.9 0.3c0.6 0.1 0.9 0.3 0.9 0.7 0 0.5-0.5 0.9-1.3 0.9-0.7 0-1.1-0.3-1.3-0.9l-0.8 0.2c0.2 0.9 1 1.4 2.1 1.4 1.3 0 2.1-0.7 2.1-1.6 0-0.8-0.5-1.3-1.4-1.5l-0.8-0.2c-0.7-0.2-1-0.4-1-0.8 0-0.5 0.5-0.8 1.2-0.8 0.7 0 1 0.4 1.2 0.8zm3.7-1.2h-1.2v-1.3h-0.8v1.3h-0.8v0.7h0.8v3.4c0 0.9 0.8 1.4 1.5 1.4 0.3 0 0.5-0.1 0.6-0.1l-0.2-0.8c0 0-0.2 0.1-0.3 0.1-0.4 0-0.8-0.1-0.8-0.8v-3.2h1.2zm3.5 5.5c1.1 0 1.9-0.5 2.2-1.3l-0.8-0.3c-0.3 0.6-0.7 0.9-1.4 0.9-1 0-1.7-0.7-1.7-1.8h4v-0.4c0-2-1.3-2.7-2.4-2.7-1.5 0-2.4 1.2-2.4 2.8 0 1.7 0.9 2.8 2.5 2.8zm-1.7-3.2c0.1-0.9 0.7-1.6 1.6-1.6 0.9 0 1.5 0.6 1.5 1.6zm6.1-4.1h-0.9v7.2h0.9zm2.4 0h-0.9v7.3h0.9zm1.5 7.3h0.8v-5.5h-0.8zm0.4-6.3c0.3 0 0.6-0.3 0.6-0.6 0-0.3-0.3-0.6-0.6-0.6-0.3 0-0.6 0.3-0.6 0.6 0 0.3 0.3 0.6 0.6 0.6zm2.8 3c0-0.9 0.6-1.5 1.4-1.5 0.8 0 1.2 0.5 1.2 1.4v3.4h0.9v-3.5c0-1.3-0.8-2-1.9-2-0.8 0-1.3 0.4-1.6 0.9v-0.8h-0.8v5.4h0.8zm7.2 5.5c1.3 0 2.4-0.6 2.4-2v-5.7h-0.8v0.9h-0.1c-0.2-0.3-0.6-0.9-1.6-0.9-1.4 0-2.3 1.1-2.3 2.7 0 1.7 0.9 2.7 2.3 2.7 1 0 1.4-0.6 1.6-0.9v1.1c0 0.9-0.6 1.3-1.5 1.3-1 0-1.3-0.5-1.6-0.8l-0.6 0.5c0.3 0.5 1 1.1 2.2 1.1zm0-3c-1.1 0-1.6-0.8-1.6-2 0-1.1 0.5-2 1.6-2 1 0 1.5 0.8 1.5 2 0 1.2-0.5 2-1.5 2zm6.7 0.8h0.9v-5.5h-0.9zm0.4-6.3c0.4 0 0.6-0.3 0.6-0.6 0-0.3-0.2-0.6-0.6-0.6-0.3 0-0.6 0.3-0.6 0.6 0 0.3 0.3 0.6 0.6 0.6zm5.9 2.1c-0.3-0.8-0.9-1.3-2-1.3-1.1 0-2 0.7-2 1.6 0 0.7 0.5 1.2 1.5 1.5l0.9 0.2c0.5 0.1 0.8 0.4 0.8 0.8 0 0.4-0.5 0.8-1.3 0.8-0.7 0-1.1-0.3-1.3-0.9l-0.8 0.2c0.2 1 1 1.5 2.1 1.5 1.3 0 2.2-0.7 2.2-1.7 0-0.7-0.5-1.2-1.5-1.5l-0.8-0.2c-0.7-0.1-0.9-0.3-0.9-0.8 0-0.4 0.5-0.8 1.1-0.8 0.8 0 1.1 0.4 1.2 0.8zm8.6-1.2h-0.9l-1.5 4.3-1.5-4.3h-1l2.1 5.5h0.8zm3.2 5.5c1.1 0 1.9-0.5 2.2-1.4l-0.8-0.2c-0.2 0.6-0.7 0.9-1.4 0.9-1 0-1.6-0.7-1.7-1.8h4v-0.4c0-2-1.2-2.7-2.4-2.7-1.4 0-2.4 1.1-2.4 2.8 0 1.7 0.9 2.8 2.5 2.8zm-1.7-3.3c0.1-0.8 0.7-1.6 1.6-1.6 0.9 0 1.5 0.7 1.5 1.6zm5.3 3.2h0.8v-3.4c0-0.8 0.6-1.3 1.4-1.3 0.2 0 0.4 0 0.5 0v-0.8c-0.1 0-0.3 0-0.5 0-0.6 0-1.2 0.3-1.4 0.9v-0.8h-0.8zm7.5-4.3c-0.2-0.8-0.8-1.3-1.9-1.3-1.1 0-2 0.7-2 1.6 0 0.8 0.5 1.3 1.5 1.5l0.9 0.2c0.5 0.1 0.8 0.4 0.8 0.8 0 0.4-0.5 0.8-1.3 0.8-0.7 0-1.1-0.3-1.3-0.9l-0.8 0.2c0.2 1 1 1.5 2.1 1.5 1.3 0 2.1-0.7 2.1-1.7 0-0.7-0.4-1.2-1.4-1.4l-0.8-0.2c-0.7-0.2-1-0.4-1-0.8 0-0.5 0.5-0.8 1.2-0.8 0.7 0 1 0.4 1.2 0.7zm3.7-1.2h-1.1v-1.3h-0.9v1.3h-0.8v0.7h0.8v3.4c0 1 0.8 1.4 1.5 1.4 0.3 0 0.5 0 0.6-0.1l-0.1-0.7c-0.1 0-0.2 0-0.4 0-0.4 0-0.7-0.1-0.7-0.8v-3.2h1.1zm4.7 3.2c0 1.1-0.8 1.5-1.4 1.5-0.7 0-1.2-0.5-1.2-1.3v-3.4h-0.8v3.5c0 1.4 0.7 2 1.8 2 0.8 0 1.3-0.4 1.6-0.9v0.9h0.9v-5.5h-0.9zm5.8 0c0 1-0.7 1.5-1.4 1.5-0.7 0-1.2-0.5-1.2-1.3v-3.4h-0.8v3.5c0 1.4 0.7 2 1.8 2 0.8 0 1.3-0.4 1.6-1v1h0.9v-5.5h-0.9zm2.4 2.2h0.8v-3.4c0-0.8 0.6-1.3 1.4-1.3 0.2 0 0.5 0 0.5 0.1v-0.9c-0.1 0-0.3 0-0.4 0-0.7 0-1.2 0.4-1.4 0.9h-0.1v-0.8h-0.8zm5.6 0.1c1.1 0 1.4-0.7 1.6-1h0.1v0.9h0.8v-7.3h-0.8v2.7h-0.1c-0.2-0.3-0.5-1-1.6-1-1.3 0-2.3 1.1-2.3 2.9 0 1.7 1 2.8 2.3 2.8zm0.1-0.8c-1 0-1.6-0.9-1.6-2.1 0-1.1 0.6-2 1.6-2 1.1 0 1.6 0.8 1.6 2 0 1.3-0.6 2.1-1.6 2.1zm5.2-6.6h-1l0.1 5.2h0.8zm-0.5 7.4c0.4 0 0.7-0.3 0.7-0.7 0-0.3-0.3-0.6-0.7-0.6-0.3 0-0.6 0.3-0.6 0.6 0 0.4 0.3 0.7 0.6 0.7z"/>
				</g>
				<g id="Folder 2">
					<g id="MC copy 2">
						<path id="MailCampagne" class="s1" aria-label="MailCampagne"  d="m220.6 151.2v5.8h1v-4l1.6 4h0.8l1.6-4h0.1v4h1v-5.8h-1.3l-1.7 4.2h-0.1l-1.7-4.2zm8.4 5.9c0.7 0 1.1-0.3 1.3-0.7v0.6h1v-2.9c0-1.2-0.9-1.5-1.7-1.5-1 0-1.7 0.4-1.9 1.2l1 0.1c0.1-0.3 0.4-0.5 0.9-0.5 0.4 0 0.7 0.2 0.7 0.7 0 0.3-0.3 0.3-1.1 0.4-0.8 0.1-1.6 0.3-1.6 1.3 0 0.9 0.6 1.3 1.4 1.3zm0.3-0.7c-0.4 0-0.7-0.2-0.7-0.6 0-0.4 0.3-0.6 0.8-0.6 0.2-0.1 0.8-0.2 0.9-0.3v0.6c0 0.4-0.4 0.9-1 0.9zm3.1 0.6h1v-4.3h-1zm0.5-5c0.3 0 0.6-0.3 0.6-0.6 0-0.3-0.3-0.5-0.6-0.5-0.3 0-0.6 0.2-0.6 0.5 0 0.3 0.3 0.6 0.6 0.6zm2.6-0.9h-1v5.9h1zm6.1 1.9c-0.2-1.3-1.2-2-2.5-2-1.5 0-2.7 1.1-2.7 3 0 1.8 1.2 3 2.7 3 1.4 0 2.3-0.9 2.5-2.1h-1.1c-0.1 0.7-0.7 1.1-1.4 1.1-0.9 0-1.6-0.7-1.6-2 0-1.3 0.7-2.1 1.6-2.1 0.7 0 1.3 0.4 1.4 1.1zm2.2 4c0.7 0 1.1-0.4 1.3-0.7v0.6h1v-2.9c0-1.2-1-1.5-1.8-1.5-0.9 0-1.6 0.4-1.8 1.2l0.9 0.1c0.1-0.3 0.4-0.6 0.9-0.6 0.5 0 0.8 0.3 0.8 0.7 0 0.3-0.4 0.3-1.1 0.4-0.9 0.1-1.7 0.4-1.7 1.3 0 0.9 0.6 1.4 1.5 1.4zm0.2-0.8c-0.4 0-0.7-0.2-0.7-0.6 0-0.4 0.4-0.5 0.8-0.6 0.3 0 0.8-0.1 1-0.2v0.5c0 0.5-0.4 0.9-1.1 0.9zm3.1 0.7h1v-2.7c0-0.5 0.4-0.9 0.8-0.9 0.5 0 0.8 0.3 0.8 0.8v2.8h1v-2.7c0-0.5 0.3-0.9 0.8-0.9 0.4 0 0.7 0.3 0.7 0.8v2.8h1.1v-3c0-0.9-0.6-1.4-1.4-1.4-0.6 0-1.1 0.3-1.3 0.8h-0.1c-0.1-0.5-0.6-0.8-1.1-0.8-0.6 0-1.1 0.3-1.2 0.8h-0.1v-0.8h-1zm7.2 1.6h1v-2.3h0.1c0.1 0.3 0.5 0.8 1.2 0.8 1 0 1.8-0.8 1.8-2.3 0-1.4-0.8-2.2-1.8-2.2-0.8 0-1.1 0.5-1.2 0.8h-0.1v-0.8h-1zm1-3.8c0-0.8 0.4-1.4 1-1.4 0.7 0 1.1 0.6 1.1 1.4 0 0.8-0.4 1.4-1.1 1.4-0.6 0-1-0.5-1-1.4zm5.3 2.3c0.6 0 1-0.3 1.2-0.7h0.1v0.6h1v-2.9c0-1.2-1-1.5-1.8-1.5-0.9 0-1.6 0.4-1.9 1.2l1 0.1c0.1-0.3 0.4-0.5 0.9-0.5 0.5 0 0.7 0.2 0.7 0.6v0.1c0 0.3-0.3 0.3-1.1 0.4-0.8 0-1.6 0.3-1.6 1.3 0 0.8 0.6 1.3 1.5 1.3zm0.2-0.8c-0.4 0-0.7-0.2-0.7-0.5 0-0.4 0.3-0.6 0.8-0.7 0.3 0 0.8-0.1 0.9-0.2v0.5c0 0.5-0.4 0.9-1 0.9zm5 2.4c1.2 0 2-0.5 2-1.6v-4.5h-1v0.8c-0.2-0.3-0.5-0.8-1.3-0.8-1 0-1.8 0.8-1.8 2.2 0 1.4 0.8 2.1 1.8 2.1 0.8 0 1.1-0.4 1.3-0.7v0.9c0 0.6-0.4 0.9-1 0.9-0.6 0-0.9-0.3-1-0.6l-0.9 0.2c0.2 0.6 0.8 1.1 1.9 1.1zm0-2.6c-0.7 0-1-0.5-1-1.3 0-0.8 0.3-1.4 1-1.4 0.7 0 1 0.6 1 1.4 0 0.8-0.3 1.3-1 1.3zm4.1-1.6c0-0.7 0.4-1 0.9-1 0.6 0 0.9 0.3 0.9 0.9v2.6h1v-2.8c0-1-0.6-1.6-1.5-1.6-0.6 0-1.1 0.3-1.3 0.8v-0.8h-1v4.4h1zm5.8 2.7c1 0 1.7-0.5 1.9-1.3l-1-0.1c-0.1 0.4-0.4 0.6-0.9 0.6-0.6 0-1.1-0.5-1.1-1.2h3v-0.3c0-1.6-0.9-2.3-1.9-2.3-1.3 0-2.1 1-2.1 2.3 0 1.4 0.8 2.3 2.1 2.3zm-1.1-2.7c0-0.6 0.5-1.1 1.1-1.1 0.6 0 1 0.5 1 1.1z"/>
						<path id="Shape 4" class="s3" d="m220 147h58c3.9 0 7 3.1 7 7 0 3.9-3.1 7-7 7h-58c-3.9 0-7-3.1-7-7 0-3.9 3.1-7 7-7z"/>
					</g>
					<path id="Bestelling afgeleverd?" class="s1" aria-label="Bestelling afgeleverd?"  d="m216.9 170.3h2.6c1.7 0 2.4-0.9 2.4-2 0-1.1-0.8-1.7-1.4-1.8 0.6-0.2 1.2-0.6 1.2-1.6 0-1-0.8-1.9-2.3-1.9h-2.5zm0.9-0.8v-2.5h1.8c0.9 0 1.5 0.6 1.5 1.4 0 0.6-0.4 1.1-1.6 1.1zm0-3.3v-2.4h1.7c0.9 0 1.4 0.5 1.4 1.2 0 0.7-0.7 1.2-1.5 1.2zm7.8 4.2c1.1 0 2-0.5 2.2-1.4l-0.8-0.2c-0.2 0.6-0.7 0.9-1.4 0.9-0.9 0-1.6-0.7-1.7-1.8h4v-0.4c0-2-1.2-2.7-2.3-2.7-1.5 0-2.5 1.1-2.5 2.8 0 1.7 1 2.8 2.5 2.8zm-1.7-3.3c0.1-0.8 0.7-1.6 1.7-1.6 0.9 0 1.4 0.7 1.4 1.6zm9.1-1c-0.2-0.8-0.8-1.3-1.9-1.3-1.1 0-2 0.6-2 1.6 0 0.7 0.5 1.2 1.5 1.4l0.9 0.3c0.5 0.1 0.8 0.3 0.8 0.7 0 0.5-0.5 0.9-1.3 0.9-0.7 0-1.1-0.3-1.3-0.9l-0.8 0.2c0.2 0.9 1 1.4 2.1 1.4 1.3 0 2.1-0.7 2.1-1.6 0-0.8-0.4-1.3-1.4-1.5l-0.8-0.2c-0.7-0.2-0.9-0.4-0.9-0.8 0-0.5 0.4-0.8 1.1-0.8 0.7 0 1 0.4 1.2 0.8zm3.7-1.2h-1.1v-1.3h-0.9v1.3h-0.8v0.7h0.8v3.4c0 0.9 0.8 1.4 1.5 1.4 0.3 0 0.5-0.1 0.6-0.1l-0.1-0.8c-0.1 0-0.2 0.1-0.4 0.1-0.4 0-0.7-0.1-0.7-0.8v-3.2h1.1zm3.5 5.5c1.1 0 1.9-0.5 2.2-1.3l-0.8-0.3c-0.2 0.6-0.7 0.9-1.4 0.9-1 0-1.6-0.7-1.7-1.8h4v-0.4c0-2-1.2-2.7-2.4-2.7-1.4 0-2.4 1.2-2.4 2.8 0 1.7 0.9 2.8 2.5 2.8zm-1.7-3.2c0.1-0.9 0.7-1.6 1.6-1.6 0.9 0 1.5 0.6 1.5 1.6zm6.1-4.1h-0.8v7.2h0.8zm2.4 0h-0.9v7.3h0.9zm1.5 7.3h0.9v-5.5h-0.9zm0.4-6.3c0.4 0 0.6-0.3 0.6-0.6 0-0.3-0.2-0.6-0.6-0.6-0.3 0-0.6 0.3-0.6 0.6 0 0.3 0.3 0.6 0.6 0.6zm2.8 3c0-0.9 0.6-1.5 1.4-1.5 0.8 0 1.3 0.5 1.3 1.4v3.4h0.8v-3.5c0-1.3-0.7-2-1.8-2-0.9 0-1.4 0.4-1.6 0.9h-0.1v-0.8h-0.8v5.4h0.8zm7.2 5.5c1.3 0 2.4-0.6 2.4-2v-5.7h-0.8v0.9h-0.1c-0.2-0.3-0.5-0.9-1.6-0.9-1.4 0-2.3 1.1-2.3 2.7 0 1.7 1 2.7 2.3 2.7 1.1 0 1.4-0.6 1.6-0.9h0.1v1.1c0 0.9-0.7 1.3-1.6 1.3-1 0-1.3-0.5-1.5-0.8l-0.7 0.5c0.4 0.5 1 1.1 2.2 1.1zm0-3c-1 0-1.6-0.8-1.6-2 0-1.1 0.5-2 1.6-2 1 0 1.6 0.8 1.6 2 0 1.2-0.6 2-1.6 2zm8.3 0.9c1 0 1.5-0.5 1.7-0.8v0.7h0.8v-3.6c0-1.7-1.3-1.9-2-1.9-0.8 0-1.7 0.3-2.2 1.2l0.8 0.3c0.2-0.4 0.7-0.8 1.5-0.8 0.7 0 1.1 0.4 1.1 1.1 0 0.4-0.4 0.4-1.4 0.5-1 0.2-2.1 0.4-2.1 1.6 0 1.1 0.8 1.7 1.8 1.7zm0.2-0.7c-0.7 0-1.2-0.3-1.2-0.9 0-0.6 0.6-0.8 1.3-0.9 0.3-0.1 1.3-0.2 1.4-0.3v0.7c0 0.7-0.5 1.4-1.5 1.4zm6.3-4.9h-1.2v-0.5c0-0.6 0.2-0.8 0.8-0.8 0.2 0 0.4 0 0.4 0l0.3-0.7c-0.1 0-0.4-0.1-0.8-0.1-0.8 0-1.5 0.5-1.5 1.4v0.7h-0.9v0.8h0.9v4.7h0.8v-4.7h1.2zm3.2 7.6c1.3 0 2.3-0.6 2.3-2v-5.6h-0.8v0.8h-0.1c-0.2-0.3-0.5-0.9-1.6-0.9-1.3 0-2.3 1.1-2.3 2.8 0 1.7 1 2.6 2.3 2.6 1.1 0 1.4-0.6 1.6-0.9h0.1v1.1c0 0.9-0.7 1.3-1.5 1.3-1 0-1.4-0.5-1.6-0.8l-0.7 0.5c0.4 0.5 1 1.1 2.3 1.1zm-0.1-3c-1 0-1.6-0.8-1.6-2 0-1.1 0.6-2 1.6-2 1.1 0 1.6 0.9 1.6 2 0 1.2-0.6 2-1.6 2zm6.2 0.9c1.2 0 2-0.5 2.2-1.4l-0.8-0.2c-0.2 0.6-0.7 0.9-1.4 0.9-0.9 0-1.6-0.7-1.7-1.8h4v-0.4c0-2-1.2-2.7-2.3-2.7-1.5 0-2.5 1.1-2.5 2.8 0 1.7 1 2.8 2.5 2.8zm-1.7-3.3c0.1-0.8 0.7-1.6 1.7-1.6 0.9 0 1.5 0.7 1.5 1.6zm6-4.1h-0.8v7.3h0.8zm3.8 7.4c1.2 0 2-0.6 2.2-1.4l-0.8-0.2c-0.2 0.6-0.7 0.8-1.4 0.8-0.9 0-1.6-0.6-1.7-1.8h4v-0.3c0-2.1-1.2-2.7-2.3-2.7-1.5 0-2.5 1.1-2.5 2.8 0 1.7 1 2.8 2.5 2.8zm-1.7-3.3c0.1-0.8 0.7-1.6 1.7-1.6 0.9 0 1.5 0.7 1.5 1.6zm9.5-2.3h-0.9l-1.5 4.4h-0.1l-1.5-4.4h-0.9l2 5.5h0.9zm3.2 5.5c1.1 0 1.9-0.5 2.1-1.3l-0.8-0.3c-0.2 0.6-0.7 0.9-1.3 0.9-1 0-1.7-0.6-1.7-1.8h3.9v-0.4c0-2-1.2-2.7-2.3-2.7-1.5 0-2.5 1.2-2.5 2.8 0 1.7 1 2.8 2.6 2.8zm-1.7-3.2c0-0.9 0.6-1.6 1.6-1.6 0.9 0 1.5 0.6 1.5 1.6zm5.2 3.1h0.8v-3.4c0-0.8 0.6-1.3 1.4-1.3 0.2 0 0.5 0 0.5 0.1v-0.9c-0.1 0-0.3 0-0.4 0-0.7 0-1.2 0.4-1.4 0.9h-0.1v-0.8h-0.8zm5.6 0.1c1.1 0 1.4-0.7 1.6-1h0.1v0.9h0.8v-7.3h-0.8v2.7h-0.1c-0.2-0.3-0.5-0.9-1.6-0.9-1.3 0-2.3 1-2.3 2.8 0 1.7 1 2.8 2.3 2.8zm0.1-0.8c-1 0-1.6-0.9-1.6-2 0-1.2 0.6-2.1 1.6-2.1 1.1 0 1.6 0.8 1.6 2.1 0 1.2-0.6 2-1.6 2zm5.2-1.4h0.8c0-0.9 0.3-1.3 0.9-1.7 0.6-0.3 1-0.9 1-1.7 0-1.1-0.8-1.9-2.1-1.9-1.1 0-2.1 0.7-2.1 1.9h0.9c0-0.8 0.6-1.2 1.2-1.2 0.7 0 1.2 0.5 1.2 1.2 0 0.5-0.3 1-0.7 1.2-0.7 0.4-1.1 0.8-1.1 2.2zm0.4 2.1c0.4 0 0.7-0.3 0.7-0.6 0-0.4-0.3-0.7-0.7-0.7-0.3 0-0.6 0.3-0.6 0.7 0 0.3 0.3 0.6 0.6 0.6z"/>
				</g>
				<g id="Folder 5">
					<g id="MC copy 3">
						<path id="MailCampagne" class="s1" aria-label="MailCampagne"  d="m220.6 193.2v5.8h1v-4l1.6 4h0.8l1.6-4h0.1v4h1v-5.8h-1.3l-1.7 4.2h-0.1l-1.7-4.2zm8.4 5.9c0.7 0 1.1-0.3 1.3-0.7v0.6h1v-2.9c0-1.2-0.9-1.5-1.7-1.5-1 0-1.7 0.4-1.9 1.2l1 0.1c0.1-0.3 0.4-0.5 0.9-0.5 0.4 0 0.7 0.2 0.7 0.7 0 0.3-0.3 0.3-1.1 0.4-0.8 0.1-1.6 0.3-1.6 1.3 0 0.9 0.6 1.3 1.4 1.3zm0.3-0.7c-0.4 0-0.7-0.2-0.7-0.6 0-0.4 0.3-0.6 0.8-0.6 0.2-0.1 0.8-0.2 0.9-0.3v0.6c0 0.4-0.4 0.9-1 0.9zm3.1 0.6h1v-4.3h-1zm0.5-5c0.3 0 0.6-0.3 0.6-0.6 0-0.3-0.3-0.5-0.6-0.5-0.3 0-0.6 0.2-0.6 0.5 0 0.3 0.3 0.6 0.6 0.6zm2.6-0.9h-1v5.9h1zm6.1 1.9c-0.2-1.3-1.2-2-2.5-2-1.5 0-2.7 1.1-2.7 3 0 1.8 1.2 3 2.7 3 1.4 0 2.3-0.9 2.5-2.1h-1.1c-0.1 0.7-0.7 1.1-1.4 1.1-0.9 0-1.6-0.7-1.6-2 0-1.3 0.7-2.1 1.6-2.1 0.7 0 1.3 0.4 1.4 1.1zm2.2 4c0.7 0 1.1-0.4 1.3-0.7v0.6h1v-2.9c0-1.2-1-1.5-1.8-1.5-0.9 0-1.6 0.4-1.8 1.2l0.9 0.1c0.1-0.3 0.4-0.6 0.9-0.6 0.5 0 0.8 0.3 0.8 0.7 0 0.3-0.4 0.3-1.1 0.4-0.9 0.1-1.7 0.4-1.7 1.3 0 0.9 0.6 1.4 1.5 1.4zm0.2-0.8c-0.4 0-0.7-0.2-0.7-0.6 0-0.4 0.4-0.5 0.8-0.6 0.3 0 0.8-0.1 1-0.2v0.5c0 0.5-0.4 0.9-1.1 0.9zm3.1 0.7h1v-2.7c0-0.5 0.4-0.9 0.8-0.9 0.5 0 0.8 0.3 0.8 0.8v2.8h1v-2.7c0-0.5 0.3-0.9 0.8-0.9 0.4 0 0.7 0.3 0.7 0.8v2.8h1.1v-3c0-0.9-0.6-1.4-1.4-1.4-0.6 0-1.1 0.3-1.3 0.8h-0.1c-0.1-0.5-0.6-0.8-1.1-0.8-0.6 0-1.1 0.3-1.2 0.8h-0.1v-0.8h-1zm7.2 1.6h1v-2.3h0.1c0.1 0.3 0.5 0.8 1.2 0.8 1 0 1.8-0.8 1.8-2.3 0-1.4-0.8-2.2-1.8-2.2-0.8 0-1.1 0.5-1.2 0.8h-0.1v-0.8h-1zm1-3.8c0-0.8 0.4-1.4 1-1.4 0.7 0 1.1 0.6 1.1 1.4 0 0.8-0.4 1.4-1.1 1.4-0.6 0-1-0.5-1-1.4zm5.3 2.3c0.6 0 1-0.3 1.2-0.7h0.1v0.6h1v-2.9c0-1.2-1-1.5-1.8-1.5-0.9 0-1.6 0.4-1.9 1.2l1 0.1c0.1-0.3 0.4-0.5 0.9-0.5 0.5 0 0.7 0.2 0.7 0.6v0.1c0 0.3-0.3 0.3-1.1 0.4-0.8 0-1.6 0.3-1.6 1.3 0 0.8 0.6 1.3 1.5 1.3zm0.2-0.8c-0.4 0-0.7-0.2-0.7-0.5 0-0.4 0.3-0.6 0.8-0.7 0.3 0 0.8-0.1 0.9-0.2v0.5c0 0.5-0.4 0.9-1 0.9zm5 2.4c1.2 0 2-0.5 2-1.6v-4.5h-1v0.8c-0.2-0.3-0.5-0.8-1.3-0.8-1 0-1.8 0.8-1.8 2.2 0 1.4 0.8 2.1 1.8 2.1 0.8 0 1.1-0.4 1.3-0.7v0.9c0 0.6-0.4 0.9-1 0.9-0.6 0-0.9-0.3-1-0.6l-0.9 0.2c0.2 0.6 0.8 1.1 1.9 1.1zm0-2.6c-0.7 0-1-0.5-1-1.3 0-0.8 0.3-1.4 1-1.4 0.7 0 1 0.6 1 1.4 0 0.8-0.3 1.3-1 1.3zm4.1-1.6c0-0.7 0.4-1 0.9-1 0.6 0 0.9 0.3 0.9 0.9v2.6h1v-2.8c0-1-0.6-1.6-1.5-1.6-0.6 0-1.1 0.3-1.3 0.8v-0.8h-1v4.4h1zm5.8 2.7c1 0 1.7-0.5 1.9-1.3l-1-0.1c-0.1 0.4-0.4 0.6-0.9 0.6-0.6 0-1.1-0.5-1.1-1.2h3v-0.3c0-1.6-0.9-2.3-1.9-2.3-1.3 0-2.1 1-2.1 2.3 0 1.4 0.8 2.3 2.1 2.3zm-1.1-2.7c0-0.6 0.5-1.1 1.1-1.1 0.6 0 1 0.5 1 1.1z"/>
						<path id="Shape 4" class="s3" d="m220 189h58c3.9 0 7 3.1 7 7 0 3.9-3.1 7-7 7h-58c-3.9 0-7-3.1-7-7 0-3.9 3.1-7 7-7z"/>
					</g>
					<path id="Retourmelding ontvangen" class="s1" aria-label="Retourmelding ontvangen"  d="m216.9 213.3h0.9v-2.9h1.6c0 0 0.1 0 0.1 0l1.6 2.9h1l-1.7-3c1-0.3 1.4-1.1 1.4-2.1 0-1.3-0.8-2.2-2.5-2.2h-2.4zm0.9-3.6v-2.9h1.5c1.2 0 1.6 0.6 1.6 1.5 0 0.8-0.4 1.4-1.6 1.4zm7.7 3.7c1.1 0 1.9-0.5 2.1-1.4l-0.8-0.2c-0.2 0.6-0.7 0.9-1.3 0.9-1 0-1.7-0.7-1.7-1.8h3.9v-0.4c0-2-1.2-2.7-2.3-2.7-1.5 0-2.5 1.1-2.5 2.8 0 1.7 1 2.8 2.6 2.8zm-1.7-3.3c0-0.8 0.6-1.6 1.6-1.6 0.9 0 1.5 0.7 1.5 1.6zm7.6-2.3h-1.2v-1.3h-0.8v1.3h-0.9v0.8h0.9v3.4c0 0.9 0.7 1.4 1.4 1.4 0.4 0 0.6-0.1 0.7-0.1l-0.2-0.8c-0.1 0-0.2 0.1-0.4 0.1-0.3 0-0.7-0.2-0.7-0.9v-3.1h1.2zm3.4 5.5c1.5 0 2.5-1.1 2.5-2.8 0-1.7-1-2.8-2.5-2.8-1.5 0-2.5 1.1-2.5 2.8 0 1.7 1 2.8 2.5 2.8zm0-0.7c-1.1 0-1.6-1-1.6-2.1 0-1.1 0.5-2.1 1.6-2.1 1.1 0 1.6 1 1.6 2.1 0 1.1-0.5 2.1-1.6 2.1zm7.2-1.6c0 1-0.8 1.5-1.4 1.5-0.7 0-1.2-0.5-1.2-1.3v-3.4h-0.9v3.4c0 1.4 0.8 2.1 1.8 2.1 0.8 0 1.4-0.5 1.6-1h0.1v0.9h0.8v-5.4h-0.8zm2.4 2.2h0.8v-3.5c0-0.7 0.6-1.2 1.4-1.2 0.2 0 0.4 0 0.5 0v-0.8c-0.1 0-0.3-0.1-0.5-0.1-0.6 0-1.2 0.4-1.4 1v-0.9h-0.8zm3.7 0h0.8v-3.4c0-0.8 0.6-1.3 1.2-1.3 0.7 0 1.1 0.4 1.1 1v3.7h0.9v-3.5c0-0.7 0.4-1.2 1.2-1.2 0.6 0 1.1 0.3 1.1 1.1v3.6h0.8v-3.6c0-1.3-0.7-1.9-1.6-1.9-0.8 0-1.4 0.4-1.7 0.9-0.3-0.6-0.8-0.9-1.5-0.9-0.7 0-1.2 0.3-1.4 0.9h-0.1v-0.8h-0.8zm11 0.1c1.1 0 1.9-0.6 2.1-1.4l-0.8-0.2c-0.2 0.6-0.7 0.8-1.3 0.8-1 0-1.7-0.6-1.7-1.8h3.9v-0.3c0-2.1-1.2-2.7-2.3-2.7-1.5 0-2.5 1.1-2.5 2.8 0 1.7 1 2.8 2.6 2.8zm-1.7-3.3c0-0.8 0.6-1.6 1.6-1.6 0.9 0 1.5 0.7 1.5 1.6zm6-4.1h-0.8v7.3h0.8zm3.6 7.4c1.1 0 1.4-0.7 1.6-1h0.1v0.8h0.8v-7.2h-0.8v2.7h-0.1c-0.2-0.3-0.5-1-1.6-1-1.3 0-2.3 1.1-2.3 2.8 0 1.8 1 2.9 2.3 2.9zm0.1-0.8c-1 0-1.5-0.9-1.5-2.1 0-1.1 0.5-2 1.5-2 1.1 0 1.6 0.8 1.6 2 0 1.3-0.5 2.1-1.6 2.1zm4.1 0.6h0.8v-5.4h-0.8zm0.4-6.4c0.3 0 0.6-0.2 0.6-0.5 0-0.3-0.3-0.6-0.6-0.6-0.3 0-0.6 0.3-0.6 0.6 0 0.3 0.3 0.5 0.6 0.5zm2.8 3.1c0-0.9 0.6-1.5 1.4-1.5 0.8 0 1.2 0.5 1.2 1.4v3.4h0.9v-3.5c0-1.4-0.8-2-1.9-2-0.8 0-1.3 0.3-1.6 0.9v-0.9h-0.9v5.5h0.9zm7.2 5.4c1.3 0 2.4-0.6 2.4-2v-5.6h-0.8v0.9h-0.1c-0.2-0.3-0.6-0.9-1.6-0.9-1.4 0-2.4 1-2.4 2.7 0 1.7 1 2.7 2.4 2.7 1 0 1.4-0.6 1.6-0.9v1.1c0 0.9-0.6 1.3-1.5 1.3-1 0-1.3-0.5-1.6-0.8l-0.6 0.4c0.3 0.6 1 1.1 2.2 1.1zm0-3c-1.1 0-1.6-0.8-1.6-1.9 0-1.1 0.5-2 1.6-2 1 0 1.5 0.8 1.5 2 0 1.2-0.5 1.9-1.5 1.9zm8.9 1c1.5 0 2.5-1.1 2.5-2.8 0-1.7-1-2.8-2.5-2.8-1.5 0-2.4 1.1-2.4 2.8 0 1.7 0.9 2.8 2.4 2.8zm0-0.8c-1.1 0-1.6-0.9-1.6-2 0-1.1 0.5-2.1 1.6-2.1 1.1 0 1.7 1 1.7 2.1 0 1.1-0.6 2-1.7 2zm4.6-2.6c0-1 0.6-1.5 1.4-1.5 0.8 0 1.3 0.5 1.3 1.4v3.4h0.8v-3.5c0-1.4-0.8-2-1.9-2-0.8 0-1.3 0.3-1.5 0.9h-0.1v-0.9h-0.8v5.5h0.8zm7.4-2.2h-1.2v-1.3h-0.8v1.3h-0.8v0.7h0.8v3.4c0 1 0.8 1.4 1.5 1.4 0.3 0 0.5 0 0.6-0.1l-0.2-0.7c0 0-0.2 0-0.3 0-0.4 0-0.8-0.1-0.8-0.8v-3.2h1.2zm5.7 0h-0.9l-1.5 4.4-1.6-4.4h-0.9l2.1 5.5h0.8zm2.5 5.5c1 0 1.5-0.5 1.7-0.8v0.7h0.8v-3.6c0-1.7-1.3-1.9-2-1.9-0.8 0-1.7 0.3-2.2 1.3l0.8 0.3c0.2-0.4 0.7-0.9 1.5-0.9 0.7 0 1.1 0.4 1.1 1.1v0.1c0 0.4-0.4 0.3-1.4 0.5-1 0.1-2.1 0.3-2.1 1.6 0 1 0.8 1.6 1.8 1.6zm0.2-0.7c-0.7 0-1.2-0.3-1.2-0.9 0-0.6 0.6-0.8 1.3-0.9 0.3 0 1.3-0.1 1.4-0.3v0.7c0 0.7-0.5 1.4-1.5 1.4zm4.7-2.7c0-0.9 0.6-1.5 1.4-1.5 0.8 0 1.3 0.6 1.3 1.4v3.4h0.8v-3.4c0-1.4-0.7-2.1-1.8-2.1-0.9 0-1.4 0.4-1.6 0.9h-0.1v-0.8h-0.8v5.4h0.8zm7.2 5.5c1.3 0 2.4-0.6 2.4-2v-5.7h-0.8v0.9h-0.1c-0.2-0.3-0.5-0.9-1.6-0.9-1.4 0-2.3 1.1-2.3 2.7 0 1.8 1 2.7 2.3 2.7 1.1 0 1.4-0.6 1.6-0.9h0.1v1.1c0 0.9-0.7 1.3-1.6 1.3-1 0-1.3-0.5-1.5-0.8l-0.7 0.5c0.3 0.5 1 1.1 2.2 1.1zm0-3c-1 0-1.6-0.8-1.6-2 0-1.1 0.5-2 1.6-2 1 0 1.6 0.9 1.6 2 0 1.2-0.6 2-1.6 2zm6.2 0.9c1.1 0 1.9-0.5 2.2-1.4l-0.8-0.2c-0.2 0.6-0.7 0.9-1.4 0.9-1 0-1.6-0.7-1.7-1.8h4v-0.4c0-2-1.2-2.7-2.4-2.7-1.4 0-2.4 1.1-2.4 2.8 0 1.7 0.9 2.8 2.5 2.8zm-1.7-3.3c0.1-0.8 0.7-1.6 1.6-1.6 0.9 0 1.5 0.7 1.5 1.6zm6.1-0.1c0-0.9 0.6-1.5 1.4-1.5 0.8 0 1.2 0.5 1.2 1.4v3.4h0.9v-3.5c0-1.4-0.8-2-1.9-2-0.8 0-1.3 0.3-1.6 0.9v-0.9h-0.8v5.5h0.8z"/>
				</g>
			</g>
			<g id="Lijn naar beneden">
				<g id="2x lijn">
					<path id="First" class="s4" d="m189 72c-1.1 0-2-0.9-2-2 0-1.1 0.9-2 2-2 1.1 0 2 0.9 2 2 0 1.1-0.9 2-2 2z"/>
					<path id="Mid" class="s4" d="m188.7 76.9h0.8l0.1 28.4h-0.8z"/>
					<path id="First" class="s4" d="m189 114c-1.1 0-2-0.9-2-2 0-1.1 0.9-2 2-2 1.1 0 2 0.9 2 2 0 1.1-0.9 2-2 2z"/>
				</g>
			</g>
			<g id="Lijn naar beneden copy">
				<g id="2x lijn">
					<path id="First" class="s4" d="m189 114c-1.1 0-2-0.9-2-2 0-1.1 0.9-2 2-2 1.1 0 2 0.9 2 2 0 1.1-0.9 2-2 2z"/>
					<path id="Mid" class="s4" d="m188.7 118.9h0.8l0.1 28.4h-0.8z"/>
					<path id="First" class="s4" d="m189 156c-1.1 0-2-0.9-2-2 0-1.1 0.9-2 2-2 1.1 0 2 0.9 2 2 0 1.1-0.9 2-2 2z"/>
				</g>
			</g>
			<g id="Lijn naar beneden copy 2">
				<g id="2x lijn">
					<path id="First" class="s4" d="m189 156c-1.1 0-2-0.9-2-2 0-1.1 0.9-2 2-2 1.1 0 2 0.9 2 2 0 1.1-0.9 2-2 2z"/>
					<path id="Mid" class="s4" d="m188.7 160.9h0.8l0.1 28.4h-0.8z"/>
					<path id="First" class="s4" d="m189 198c-1.1 0-2-0.9-2-2 0-1.1 0.9-2 2-2 1.1 0 2 0.9 2 2 0 1.1-0.9 2-2 2z"/>
				</g>
			</g>
			<g id="Lijn naar beneden copy 3">
				<g id="2x lijn">
					<path id="First" class="s4" d="m189 199c-1.1 0-2-0.9-2-2 0-1.1 0.9-2 2-2 1.1 0 2 0.9 2 2 0 1.1-0.9 2-2 2z"/>
					<path id="Mid" class="s4" d="m188.7 203.9h0.8l0.1 28.4h-0.8z"/>
					<path id="First" class="s4" d="m189 241c-1.1 0-2-0.9-2-2 0-1.1 0.9-2 2-2 1.1 0 2 0.9 2 2 0 1.1-0.9 2-2 2z"/>
				</g>
			</g>
			<g id="Folder 1">
				<path id="15 juli   15:33" class="s1" aria-label="15 juli   15:33"  d="m106.3 66h-0.9l-1.8 1.2v0.9l1.8-1.2v6.4h0.9zm4.4 7.3c1.4 0 2.4-1 2.4-2.4 0-1.4-1-2.4-2.3-2.4-0.5 0-1 0.2-1.3 0.4h-0.1l0.3-2.1h3v-0.8h-3.7l-0.5 3.6 0.8 0.1c0.4-0.3 0.9-0.4 1.3-0.4 0.9 0 1.6 0.7 1.6 1.6 0 1-0.6 1.7-1.5 1.7-0.8 0-1.4-0.5-1.4-1.2h-0.9c0.1 1.1 1 1.9 2.3 1.9zm6.6-5.5v5.8c0 0.6-0.2 0.9-0.7 0.9h-0.2v0.8h0.2c1 0 1.5-0.6 1.5-1.7v-5.8zm0.5-0.9c0.3 0 0.6-0.3 0.6-0.6 0-0.3-0.3-0.6-0.6-0.6-0.4 0-0.6 0.3-0.6 0.6 0 0.3 0.2 0.6 0.6 0.6zm5.4 4.1c0 1-0.8 1.5-1.5 1.5-0.7 0-1.1-0.5-1.1-1.3v-3.4h-0.9v3.5c0 1.3 0.8 2 1.8 2 0.8 0 1.3-0.4 1.6-1h0.1v0.9h0.8v-5.4h-0.8zm3.2-5.1h-0.9v7.3h0.9zm1.5 7.3h0.8v-5.5h-0.8zm0.4-6.3c0.3 0 0.6-0.3 0.6-0.6 0-0.3-0.3-0.6-0.6-0.6-0.3 0-0.6 0.3-0.6 0.6 0 0.3 0.3 0.6 0.6 0.6zm12.9-0.9h-0.8l-1.9 1.2v0.9l1.8-1.2h0.1v6.3h0.8zm4.4 7.4c1.4 0 2.4-1 2.4-2.4 0-1.4-1-2.4-2.3-2.4-0.5 0-1 0.1-1.3 0.4l0.2-2.2h3.1v-0.8h-3.8l-0.4 3.6 0.8 0.1c0.3-0.2 0.8-0.4 1.3-0.4 0.9 0.1 1.6 0.8 1.6 1.7 0 0.9-0.7 1.6-1.6 1.6-0.7 0-1.3-0.4-1.4-1.1h-0.8c0 1.1 1 1.9 2.2 1.9zm4.4 0c0.4 0 0.7-0.3 0.7-0.7 0-0.3-0.3-0.6-0.7-0.6-0.3 0-0.6 0.3-0.6 0.6 0 0.4 0.3 0.7 0.6 0.7zm0-4.1c0.4 0 0.7-0.3 0.7-0.6 0-0.4-0.3-0.7-0.7-0.7-0.3 0-0.6 0.3-0.6 0.7 0 0.3 0.3 0.6 0.6 0.6zm4.6 4.1c1.4 0 2.5-0.9 2.5-2.1 0-0.9-0.6-1.6-1.5-1.7v-0.1c0.8-0.2 1.2-0.8 1.2-1.6 0-1-0.8-2-2.1-2-1.3 0-2.3 0.8-2.4 2h0.9c0-0.8 0.7-1.2 1.4-1.2 0.8 0 1.4 0.5 1.4 1.2 0 0.8-0.6 1.3-1.5 1.3h-0.6v0.8h0.6c1.1 0 1.7 0.5 1.7 1.3 0 0.8-0.7 1.3-1.6 1.3-0.8 0-1.5-0.4-1.5-1.1h-0.9c0 1.1 1 1.9 2.4 1.9zm6.4 0c1.4 0 2.4-0.9 2.4-2.1 0-0.9-0.5-1.6-1.4-1.7v-0.1c0.7-0.2 1.2-0.8 1.2-1.6 0-1-0.8-2-2.2-2-1.2 0-2.3 0.8-2.3 2h0.8c0.1-0.8 0.8-1.2 1.5-1.2 0.8 0 1.3 0.5 1.3 1.2 0 0.8-0.6 1.3-1.4 1.3h-0.6v0.8h0.6c1.1 0 1.7 0.5 1.7 1.3 0 0.8-0.7 1.3-1.6 1.3-0.9 0-1.5-0.4-1.6-1.1h-0.9c0.1 1.1 1.1 1.9 2.5 1.9z"/>
				<path id="15 juli   16:49" class="s1" aria-label="15 juli   16:49"  d="m106.3 109h-0.9l-1.8 1.2v0.9l1.8-1.2v6.4h0.9zm4.4 7.3c1.4 0 2.4-1 2.4-2.4 0-1.4-1-2.4-2.3-2.4-0.5 0-1 0.2-1.3 0.4h-0.1l0.3-2.1h3v-0.8h-3.7l-0.5 3.6 0.8 0.1c0.4-0.3 0.9-0.4 1.3-0.4 0.9 0 1.6 0.7 1.6 1.6 0 1-0.6 1.7-1.5 1.7-0.8 0-1.4-0.5-1.4-1.2h-0.9c0.1 1.1 1 1.9 2.3 1.9zm6.6-5.5v5.8c0 0.6-0.2 0.9-0.7 0.9h-0.2v0.8h0.2c1 0 1.5-0.6 1.5-1.7v-5.8zm0.5-0.9c0.3 0 0.6-0.3 0.6-0.6 0-0.3-0.3-0.6-0.6-0.6-0.4 0-0.6 0.3-0.6 0.6 0 0.3 0.2 0.6 0.6 0.6zm5.4 4.1c0 1-0.8 1.5-1.5 1.5-0.7 0-1.1-0.5-1.1-1.3v-3.4h-0.9v3.5c0 1.3 0.8 2 1.8 2 0.8 0 1.3-0.4 1.6-1h0.1v0.9h0.8v-5.4h-0.8zm3.2-5.1h-0.9v7.3h0.9zm1.5 7.3h0.8v-5.5h-0.8zm0.4-6.3c0.3 0 0.6-0.3 0.6-0.6 0-0.3-0.3-0.6-0.6-0.6-0.3 0-0.6 0.3-0.6 0.6 0 0.3 0.3 0.6 0.6 0.6zm12.9-0.9h-0.8l-1.9 1.2v0.9l1.8-1.2h0.1v6.3h0.8zm4.6 7.4c1.4 0 2.4-1.1 2.4-2.4 0-1.4-1.1-2.4-2.3-2.4-0.8 0-1.4 0.3-1.8 0.9h-0.1c0.1-1.8 0.7-2.8 1.9-2.8 0.7 0 1.2 0.5 1.4 1.2h0.8c-0.2-1.2-1-2-2.2-2-1.7 0-2.7 1.5-2.7 4.1 0 2.6 1.4 3.4 2.6 3.4zm0-0.8c-1 0-1.6-0.7-1.6-1.6 0-0.9 0.7-1.7 1.6-1.7 0.9 0 1.5 0.8 1.5 1.7 0 0.9-0.7 1.6-1.5 1.6zm4.4 0.8c0.3 0 0.6-0.3 0.6-0.7 0-0.3-0.3-0.6-0.6-0.6-0.4 0-0.6 0.3-0.6 0.6 0 0.4 0.2 0.7 0.6 0.7zm0-4.1c0.3 0 0.6-0.3 0.6-0.6 0-0.4-0.3-0.7-0.6-0.7-0.4 0-0.6 0.3-0.6 0.7 0 0.3 0.2 0.6 0.6 0.6zm2 2.5h3.4v1.5h0.8v-1.5h1v-0.8h-1v-5h-1l-3.2 5.1zm3.4-0.8h-2.5l2.4-3.9h0.1zm5.5-5.1c-1.5 0-2.5 1.1-2.5 2.5 0 1.4 1.1 2.4 2.3 2.4 0.8 0 1.4-0.4 1.8-1h0.1c0 1.8-0.7 2.8-1.9 2.8-0.7 0-1.2-0.5-1.3-1.1h-0.9c0.2 1.1 1 1.9 2.2 1.9 1.7 0 2.7-1.4 2.7-4 0-2.7-1.3-3.4-2.5-3.5zm0 0.8c0.9 0 1.5 0.8 1.5 1.7 0 0.8-0.7 1.6-1.6 1.6-0.9 0-1.5-0.7-1.5-1.6 0-0.9 0.7-1.7 1.6-1.7z"/>
				<path id="16 juli   15:59" class="s1" aria-label="16 juli   15:59"  d="m106.3 150h-0.9l-1.8 1.2v0.9l1.8-1.2v6.4h0.9zm4.5 7.3c1.5 0.1 2.4-1 2.4-2.4 0-1.4-1-2.4-2.2-2.4-0.8 0-1.4 0.4-1.8 1h-0.1c0-1.8 0.7-2.8 1.8-2.8 0.8 0 1.3 0.4 1.4 1.1h0.9c-0.2-1.1-1.1-1.9-2.3-1.9-1.6 0-2.6 1.4-2.6 4 0 2.7 1.3 3.4 2.5 3.4zm0-0.7c-0.9 0-1.6-0.8-1.6-1.7 0-0.9 0.7-1.6 1.6-1.6 0.9 0 1.6 0.7 1.6 1.6 0 0.9-0.7 1.7-1.6 1.7zm6.7-4.8v5.8c0 0.6-0.3 0.9-0.8 0.9h-0.1v0.8h0.1c1.1 0 1.6-0.6 1.6-1.7v-5.8zm0.4-0.9c0.3 0 0.6-0.3 0.6-0.6 0-0.3-0.3-0.6-0.6-0.6-0.3 0-0.6 0.3-0.6 0.6 0 0.3 0.3 0.6 0.6 0.6zm5.4 4.1c0 1-0.8 1.5-1.4 1.5-0.7 0-1.2-0.5-1.2-1.3v-3.4h-0.8v3.5c0 1.3 0.7 2 1.7 2 0.9 0 1.4-0.4 1.7-1v0.9h0.8v-5.4h-0.8zm3.2-5.1h-0.8v7.3h0.8zm1.6 7.3h0.8v-5.5h-0.8zm0.4-6.3c0.3 0 0.6-0.3 0.6-0.6 0-0.3-0.3-0.6-0.6-0.6-0.3 0-0.6 0.3-0.6 0.6 0 0.3 0.3 0.6 0.6 0.6zm12.9-0.9h-0.9l-1.8 1.2v0.9l1.8-1.2v6.3h0.9zm4.4 7.4c1.4 0 2.4-1 2.4-2.4 0-1.4-1-2.4-2.3-2.4-0.5 0-1 0.1-1.3 0.4h-0.1l0.3-2.2h3v-0.8h-3.7l-0.5 3.6 0.8 0.1c0.3-0.2 0.9-0.4 1.3-0.4 0.9 0.1 1.6 0.8 1.6 1.7 0 0.9-0.6 1.6-1.5 1.6-0.8 0-1.4-0.4-1.4-1.1h-0.9c0.1 1.1 1 1.9 2.3 1.9zm4.4 0c0.3 0 0.6-0.3 0.6-0.7 0-0.3-0.3-0.6-0.6-0.6-0.4 0-0.6 0.3-0.6 0.6 0 0.4 0.2 0.7 0.6 0.7zm0-4.1c0.3 0 0.6-0.3 0.6-0.6 0-0.4-0.3-0.7-0.6-0.7-0.4 0-0.6 0.3-0.6 0.7 0 0.3 0.2 0.6 0.6 0.6zm4.4 4.1c1.4 0 2.4-1 2.4-2.4 0-1.4-1-2.4-2.3-2.4-0.5 0-1 0.1-1.3 0.4l0.2-2.2h3.1v-0.8h-3.8l-0.4 3.6 0.8 0.1c0.3-0.2 0.8-0.4 1.2-0.4 1 0.1 1.6 0.8 1.6 1.7 0 0.9-0.6 1.6-1.5 1.6-0.7 0-1.3-0.4-1.4-1.1h-0.9c0.1 1.1 1.1 1.9 2.3 1.9zm6.1-7.5c-1.5 0-2.4 1.1-2.4 2.5 0 1.4 1 2.4 2.3 2.4 0.7 0 1.4-0.4 1.8-1 0 1.8-0.7 2.8-1.8 2.8-0.8 0-1.2-0.5-1.4-1.1h-0.8c0.1 1.1 1 1.9 2.2 1.9 1.6 0 2.7-1.4 2.7-4 0-2.7-1.4-3.4-2.6-3.5zm0 0.8c0.9 0 1.6 0.8 1.6 1.7 0 0.8-0.7 1.6-1.6 1.6-0.9 0-1.6-0.7-1.6-1.6 0-0.9 0.7-1.7 1.6-1.7z"/>
				<path id="20 juli   13:24" class="s1" aria-label="20 juli   13:24"  d="m103.8 200.3h4.5v-0.8h-3.3v-0.1l1.6-1.7c1.2-1.4 1.6-2 1.6-2.8 0-1.1-0.9-2-2.2-2-1.2 0-2.2 0.9-2.2 2.1h0.8c0-0.8 0.6-1.3 1.4-1.3 0.8 0 1.4 0.5 1.4 1.2 0 0.7-0.4 1.2-1.2 2.1l-2.4 2.6zm8.4 0.1c1.6 0 2.5-1.3 2.5-3.7 0-2.4-0.9-3.7-2.5-3.7-1.6 0-2.6 1.3-2.6 3.7 0 2.4 1 3.7 2.6 3.7zm0-0.7c-1.1 0-1.7-1.1-1.7-3 0-1.9 0.6-3 1.7-3 1 0 1.7 1.1 1.7 3 0 1.9-0.7 3-1.7 3zm6.7-4.8v5.8c0 0.6-0.2 0.9-0.8 0.9h-0.1v0.8h0.2c1 0 1.5-0.7 1.5-1.7v-5.8zm0.4-0.9c0.4 0 0.6-0.3 0.6-0.6 0-0.3-0.2-0.6-0.6-0.6-0.3 0-0.6 0.3-0.6 0.6 0 0.3 0.3 0.6 0.6 0.6zm5.4 4.1c0 1-0.8 1.5-1.4 1.5-0.7 0-1.2-0.5-1.2-1.3v-3.4h-0.8v3.4c0 1.4 0.7 2.1 1.8 2.1 0.8 0 1.3-0.4 1.6-1v0.9h0.9v-5.4h-0.9zm3.2-5.1h-0.8v7.3h0.8zm1.6 7.3h0.8v-5.5h-0.8zm0.4-6.3c0.3 0 0.6-0.3 0.6-0.6 0-0.3-0.3-0.6-0.6-0.6-0.3 0-0.6 0.3-0.6 0.6 0 0.3 0.3 0.6 0.6 0.6zm12.9-0.9h-0.9l-1.8 1.2v0.9l1.8-1.2v6.3h0.9zm4.6 7.4c1.4 0 2.4-0.9 2.4-2.1 0-0.9-0.5-1.6-1.4-1.7v-0.1c0.7-0.2 1.2-0.8 1.2-1.6 0-1.1-0.9-2-2.2-2-1.3 0-2.3 0.8-2.3 1.9h0.8c0-0.7 0.7-1.1 1.5-1.1 0.8 0 1.3 0.5 1.3 1.2 0 0.8-0.6 1.3-1.5 1.3h-0.5v0.8h0.5c1.1 0 1.8 0.5 1.8 1.3 0 0.8-0.7 1.3-1.6 1.3-0.9 0-1.6-0.4-1.6-1.1h-0.9c0.1 1.1 1.1 1.9 2.5 1.9zm4.5 0c0.4 0 0.6-0.3 0.6-0.7 0-0.3-0.2-0.6-0.6-0.6-0.3 0-0.6 0.3-0.6 0.6 0 0.4 0.3 0.7 0.6 0.7zm0-4.1c0.4 0 0.6-0.3 0.6-0.6 0-0.4-0.2-0.7-0.6-0.7-0.3 0-0.6 0.3-0.6 0.7 0 0.3 0.3 0.6 0.6 0.6zm2.1 4h4.6v-0.8h-3.4l1.7-1.8c1.2-1.3 1.6-1.9 1.6-2.8 0-1.1-0.9-2-2.2-2-1.3 0-2.2 0.9-2.2 2.2h0.8c0-0.9 0.5-1.4 1.4-1.4 0.8 0 1.4 0.5 1.4 1.2 0 0.7-0.4 1.2-1.3 2.1l-2.4 2.7zm5.8-1.5h3.4v1.5h0.8v-1.5h1v-0.8h-1v-5h-1l-3.2 5zm3.4-0.7h-2.5v-0.1l2.4-3.8h0.1z"/>
				<path id="24 juli   14:59" class="s1" aria-label="24 juli   14:59"  d="m103.8 243.3h4.5v-0.8h-3.3v-0.1l1.6-1.7c1.2-1.4 1.6-2 1.6-2.8 0-1.1-0.9-2-2.2-2-1.2 0-2.2 0.9-2.2 2.1h0.8c0-0.8 0.6-1.3 1.4-1.3 0.8 0 1.4 0.5 1.4 1.2 0 0.7-0.4 1.2-1.2 2.1l-2.4 2.6zm5.7-1.5h3.4v1.5h0.8v-1.5h1v-0.7h-1v-5h-1l-3.2 5zm3.4-0.8h-2.5l2.4-3.8h0.1zm6-3.2v5.8c0 0.6-0.2 0.9-0.7 0.9h-0.2v0.8h0.2c1 0 1.5-0.7 1.5-1.7v-5.8zm0.4-0.9c0.4 0 0.6-0.3 0.6-0.6 0-0.3-0.2-0.6-0.6-0.6-0.3 0-0.6 0.3-0.6 0.6 0 0.3 0.3 0.6 0.6 0.6zm5.4 4.1c0 1-0.7 1.5-1.4 1.5-0.7 0-1.2-0.5-1.2-1.3v-3.4h-0.8v3.4c0 1.4 0.7 2.1 1.8 2.1 0.8 0 1.3-0.4 1.6-1v0.9h0.9v-5.4h-0.9zm3.3-5.1h-0.9v7.3h0.9zm1.5 7.3h0.8v-5.5h-0.8zm0.4-6.3c0.3 0 0.6-0.3 0.6-0.6 0-0.3-0.3-0.6-0.6-0.6-0.3 0-0.6 0.3-0.6 0.6 0 0.3 0.3 0.6 0.6 0.6zm12.9-0.9h-0.8l-1.9 1.2v0.9l1.8-1.2h0.1v6.3h0.8zm2 5.8h3.4v1.5h0.8v-1.5h1v-0.8h-1v-5h-1l-3.2 5.1zm3.4-0.8h-2.5v-0.1l2.4-3.8h0.1zm3.8 2.4c0.3 0 0.6-0.3 0.6-0.7 0-0.3-0.3-0.6-0.6-0.6-0.4 0-0.7 0.3-0.7 0.6 0 0.4 0.3 0.7 0.7 0.7zm0-4.1c0.3 0 0.6-0.3 0.6-0.6 0-0.4-0.3-0.7-0.6-0.7-0.4 0-0.7 0.3-0.7 0.7 0 0.3 0.3 0.6 0.7 0.6zm4.4 4.1c1.4 0 2.4-1 2.4-2.4 0-1.4-1-2.5-2.3-2.5-0.5 0-1 0.2-1.3 0.4l0.2-2.1h3.1v-0.8h-3.8l-0.5 3.6 0.9 0.1c0.3-0.2 0.8-0.4 1.2-0.4 0.9 0 1.6 0.7 1.6 1.7 0 0.9-0.6 1.6-1.5 1.6-0.8 0-1.4-0.5-1.4-1.1h-0.9c0.1 1.1 1 1.9 2.3 1.9zm6.1-7.5c-1.5 0-2.4 1.1-2.4 2.5 0 1.4 1 2.4 2.3 2.4 0.7 0 1.3-0.4 1.7-1h0.1c0 1.8-0.7 2.8-1.8 2.8-0.8 0-1.3-0.5-1.4-1.1h-0.9c0.2 1.1 1.1 1.9 2.3 1.9 1.6 0 2.6-1.5 2.6-4 0-2.7-1.3-3.5-2.5-3.5zm0 0.8c0.9 0 1.6 0.8 1.6 1.6 0 0.9-0.7 1.7-1.6 1.7-0.9 0-1.6-0.7-1.6-1.6 0-1 0.7-1.7 1.6-1.7z"/>
			</g>
		</g>
		<path id="MailCampagne" class="s1" aria-label="MailCampagne"  d="m220.6 67.2v5.8h1v-4l1.6 4h0.8l1.6-4h0.1v4h1v-5.8h-1.3l-1.7 4.2h-0.1l-1.7-4.2zm8.4 5.9c0.7 0 1.1-0.3 1.3-0.7v0.6h1v-2.9c0-1.2-0.9-1.5-1.7-1.5-1 0-1.7 0.4-1.9 1.2l1 0.1c0.1-0.3 0.4-0.5 0.9-0.5 0.4 0 0.7 0.2 0.7 0.7 0 0.3-0.3 0.3-1.1 0.4-0.8 0.1-1.6 0.3-1.6 1.3 0 0.9 0.6 1.3 1.4 1.3zm0.3-0.7c-0.4 0-0.7-0.2-0.7-0.6 0-0.4 0.3-0.6 0.8-0.6 0.2-0.1 0.8-0.2 0.9-0.3v0.6c0 0.4-0.4 0.9-1 0.9zm3.1 0.6h1v-4.3h-1zm0.5-5c0.3 0 0.6-0.3 0.6-0.6 0-0.3-0.3-0.5-0.6-0.5-0.3 0-0.6 0.2-0.6 0.5 0 0.3 0.3 0.6 0.6 0.6zm2.6-0.9h-1v5.9h1zm6.1 1.9c-0.2-1.3-1.2-2-2.5-2-1.5 0-2.7 1.1-2.7 3 0 1.8 1.2 3 2.7 3 1.4 0 2.3-0.9 2.5-2.1h-1.1c-0.1 0.7-0.7 1.1-1.4 1.1-0.9 0-1.6-0.7-1.6-2 0-1.3 0.7-2.1 1.6-2.1 0.7 0 1.3 0.4 1.4 1.1zm2.2 4c0.7 0 1.1-0.4 1.3-0.7v0.6h1v-2.9c0-1.2-1-1.5-1.8-1.5-0.9 0-1.6 0.4-1.8 1.2l0.9 0.1c0.1-0.3 0.4-0.6 0.9-0.6 0.5 0 0.8 0.3 0.8 0.7 0 0.3-0.4 0.3-1.1 0.4-0.9 0.1-1.7 0.4-1.7 1.3 0 0.9 0.6 1.4 1.5 1.4zm0.2-0.8c-0.4 0-0.7-0.2-0.7-0.6 0-0.4 0.4-0.5 0.8-0.6 0.3 0 0.8-0.1 1-0.2v0.5c0 0.5-0.4 0.9-1.1 0.9zm3.1 0.7h1v-2.7c0-0.5 0.4-0.9 0.8-0.9 0.5 0 0.8 0.3 0.8 0.8v2.8h1v-2.7c0-0.5 0.3-0.9 0.8-0.9 0.4 0 0.7 0.3 0.7 0.8v2.8h1.1v-3c0-0.9-0.6-1.4-1.4-1.4-0.6 0-1.1 0.3-1.3 0.8h-0.1c-0.1-0.5-0.6-0.8-1.1-0.8-0.6 0-1.1 0.3-1.2 0.8h-0.1v-0.8h-1zm7.2 1.6h1v-2.3h0.1c0.1 0.3 0.5 0.8 1.2 0.8 1 0 1.8-0.8 1.8-2.3 0-1.4-0.8-2.2-1.8-2.2-0.8 0-1.1 0.5-1.2 0.8h-0.1v-0.8h-1zm1-3.8c0-0.8 0.4-1.4 1-1.4 0.7 0 1.1 0.6 1.1 1.4 0 0.8-0.4 1.4-1.1 1.4-0.6 0-1-0.5-1-1.4zm5.3 2.3c0.6 0 1-0.3 1.2-0.7h0.1v0.6h1v-2.9c0-1.2-1-1.5-1.8-1.5-0.9 0-1.6 0.4-1.9 1.2l1 0.1c0.1-0.3 0.4-0.5 0.9-0.5 0.5 0 0.7 0.2 0.7 0.6v0.1c0 0.3-0.3 0.3-1.1 0.4-0.8 0-1.6 0.3-1.6 1.3 0 0.8 0.6 1.3 1.5 1.3zm0.2-0.8c-0.4 0-0.7-0.2-0.7-0.5 0-0.4 0.3-0.6 0.8-0.7 0.3 0 0.8-0.1 0.9-0.2v0.5c0 0.5-0.4 0.9-1 0.9zm5 2.4c1.2 0 2-0.5 2-1.6v-4.5h-1v0.8c-0.2-0.3-0.5-0.8-1.3-0.8-1 0-1.8 0.8-1.8 2.2 0 1.4 0.8 2.1 1.8 2.1 0.8 0 1.1-0.4 1.3-0.7v0.9c0 0.6-0.4 0.9-1 0.9-0.6 0-0.9-0.3-1-0.6l-0.9 0.2c0.2 0.6 0.8 1.1 1.9 1.1zm0-2.6c-0.7 0-1-0.5-1-1.3 0-0.8 0.3-1.4 1-1.4 0.7 0 1 0.6 1 1.4 0 0.8-0.3 1.3-1 1.3zm4.1-1.6c0-0.7 0.4-1 0.9-1 0.6 0 0.9 0.3 0.9 0.9v2.6h1v-2.8c0-1-0.6-1.6-1.5-1.6-0.6 0-1.1 0.3-1.3 0.8v-0.8h-1v4.4h1zm5.8 2.7c1 0 1.7-0.5 1.9-1.3l-1-0.1c-0.1 0.4-0.4 0.5-0.9 0.5-0.6 0-1.1-0.4-1.1-1.1h3v-0.4c0-1.5-0.9-2.2-1.9-2.2-1.3 0-2.1 1-2.1 2.3 0 1.4 0.8 2.3 2.1 2.3zm-1.1-2.7c0-0.6 0.5-1.1 1.1-1.1 0.6 0 1 0.5 1 1.1z"/>
		<path id="Shape 3" fill-rule="evenodd" class="s4" d="m357.2 75.4l5.2 3.7c0.4 0.3 0.6 0.7 0.6 1.2v6.5c0 0.7-0.6 1.4-1.4 1.4h-10.2c-0.8 0-1.4-0.7-1.4-1.4v-6.5c0-0.5 0.2-0.9 0.6-1.2l5.2-3.7q0.3-0.2 0.7-0.2 0.4 0 0.7 0.2zm-6 11.4c0 0.1 0.1 0.2 0.2 0.2h10.2c0.1 0 0.2-0.1 0.2-0.2v-4.6l-3.6 3c-1 0.8-2.4 0.8-3.4 0l-3.6-3zm0.1-6.7q-0.1 0.1-0.1 0.2v0.4l4.4 3.5c0.5 0.5 1.3 0.5 1.8 0l4.4-3.5v-0.4q0-0.1-0.1-0.2l-5.2-3.7q0 0 0 0 0 0 0 0z"/>
		<path id="Shape 3 copy" fill-rule="evenodd" class="s4" d="m357.2 117.4l5.2 3.7c0.4 0.3 0.6 0.7 0.6 1.2v6.5c0 0.7-0.6 1.4-1.4 1.4h-10.2c-0.8 0-1.4-0.7-1.4-1.4v-6.5c0-0.5 0.2-0.9 0.6-1.2l5.2-3.7q0.3-0.2 0.7-0.2 0.4 0 0.7 0.2zm-6 11.4c0 0.1 0.1 0.2 0.2 0.2h10.2c0.1 0 0.2-0.1 0.2-0.2v-4.6l-3.6 3c-1 0.8-2.4 0.8-3.4 0l-3.6-3zm0.1-6.7q-0.1 0.1-0.1 0.2v0.4l4.4 3.5c0.5 0.5 1.3 0.5 1.8 0l4.4-3.5v-0.4q0-0.1-0.1-0.2l-5.2-3.7q0 0 0 0 0 0 0 0z"/>
		<path id="Shape 3 copy 2" fill-rule="evenodd" class="s4" d="m357.2 201.4l5.2 3.7c0.4 0.3 0.6 0.7 0.6 1.2v6.5c0 0.7-0.6 1.4-1.4 1.4h-10.2c-0.8 0-1.4-0.7-1.4-1.4v-6.5c0-0.5 0.2-0.9 0.6-1.2l5.2-3.7q0.3-0.2 0.7-0.2 0.4 0 0.7 0.2zm-6 11.4c0 0.1 0.1 0.2 0.2 0.2h10.2c0.1 0 0.2-0.1 0.2-0.2v-4.6l-3.6 3c-1 0.8-2.4 0.8-3.4 0l-3.6-3zm0.1-6.7q-0.1 0.1-0.1 0.2v0.4l4.4 3.5c0.5 0.5 1.3 0.5 1.8 0l4.4-3.5v-0.4q0-0.1-0.1-0.2l-5.2-3.7q0 0 0 0 0 0 0 0z"/>
	</g>
</svg>