<svg version="1.2" xmlns="http://www.w3.org/2000/svg" viewBox="0 0 450 270" width="450" height="270">
	<title>Gelezen ongelezen</title>
	<style>
		.s0 { fill: #1976d2 } 
	</style>
	<path id="Shape 3" fill-rule="evenodd" class="s0" d="m333.3 74l43.7 31.2c3.2 2.3 5 5.9 5 9.8v54.8c0 6.6-5.3 12-12 12h-85.7c-6.6 0-12-5.4-12-12v-54.8c0-3.9 1.8-7.5 5-9.8l43.7-31.2c1.8-1.3 4-2 6.2-2 2.1 0 4.3 0.7 6.1 2zm-50.7 95.8c0 0.9 0.7 1.7 1.7 1.7h85.7c1 0 1.7-0.8 1.7-1.7v-38.6l-30.4 25c-8.2 6.8-20.1 6.8-28.3 0l-30.4-25zm0.7-56.2c-0.5 0.4-0.7 0.9-0.7 1.4v3l36.9 30.3c4.5 3.7 10.8 3.7 15.3 0l36.9-30.3v-3c0-0.5-0.2-1-0.7-1.4l-43.7-31.2q-0.1 0-0.1-0.1-0.1 0.1-0.2 0.1z"/>
	<path id="Shape 4" fill-rule="evenodd" class="s0" d="m83 108.5c0-7.7 6.3-14 14-14h84.3c7.8 0 14.1 6.3 14.1 14v56.2c0 7.7-6.3 14-14.1 14h-84.3c-7.7 0-14-6.3-14-14zm10.5 18.5v37.7c0 1.9 1.6 3.5 3.5 3.5h84.3c1.9 0 3.5-1.6 3.5-3.5v-37.7l-31.1 25.6c-8.5 6.9-20.6 6.9-29 0zm3.5-22c-1.9 0-3.5 1.5-3.5 3.5v4.8l37.8 31.1c4.6 3.7 11.1 3.7 15.7 0l37.8-31.1v-4.8c0-2-1.6-3.5-3.5-3.5z"/>
</svg>